<?xml version="1.0" encoding="UTF-8" standalone="no"?>
<!-- Created with Inkscape (http://www.inkscape.org/) -->

<svg
   xmlns:dc="http://purl.org/dc/elements/1.1/"
   xmlns:cc="http://creativecommons.org/ns#"
   xmlns:rdf="http://www.w3.org/1999/02/22-rdf-syntax-ns#"
   xmlns:svg="http://www.w3.org/2000/svg"
   xmlns="http://www.w3.org/2000/svg"
   xmlns:sodipodi="http://sodipodi.sourceforge.net/DTD/sodipodi-0.dtd"
   xmlns:inkscape="http://www.inkscape.org/namespaces/inkscape"
   width="700"
   height="700"
   id="svg3957"
   version="1.1"
   inkscape:version="0.48.4 r9939"
   sodipodi:docname="hydrobiosidae.svg">
  <defs
     id="defs3959" />
  <sodipodi:namedview
     id="base"
     pagecolor="#ffffff"
     bordercolor="#666666"
     borderopacity="1.0"
     inkscape:pageopacity="0.0"
     inkscape:pageshadow="2"
     inkscape:zoom="0.35"
     inkscape:cx="375"
     inkscape:cy="520"
     inkscape:document-units="px"
     inkscape:current-layer="layer1"
     showgrid="false"
     inkscape:window-width="950"
     inkscape:window-height="651"
     inkscape:window-x="0"
     inkscape:window-y="59"
     inkscape:window-maximized="0" />
  <metadata
     id="metadata3962">
    <rdf:RDF>
      <cc:Work
         rdf:about="">
        <dc:format>image/svg+xml</dc:format>
        <dc:type
           rdf:resource="http://purl.org/dc/dcmitype/StillImage" />
        <dc:title />
      </cc:Work>
    </rdf:RDF>
  </metadata>
  <g
     inkscape:label="Layer 1"
     inkscape:groupmode="layer"
     id="layer1"
     transform="translate(0,-352.36218)">
    <path
       style="fill:#000063;fill-opacity:1"
       d="m 586.76517,909.92392 c -0.3811,-0.23556 -0.94507,-1.17462 -1.2533,-2.08681 -0.30818,-0.91224 -0.82918,-1.60261 -1.1578,-1.53421 -0.32857,0.0684 -0.59746,-0.0545 -0.59746,-0.27312 0,-0.21859 -0.81097,-0.69071 -1.8022,-1.04917 -1.50318,-0.54353 -1.87328,-0.53946 -2.2306,0.0244 -0.23561,0.37189 -0.43183,0.43073 -0.436,0.13076 -0.005,-0.35961 -1.91143,-0.56358 -5.59558,-0.59875 -4.99851,-0.0477 -5.7029,0.0547 -6.67782,0.97054 -0.59939,0.56314 -1.31492,0.88474 -1.59002,0.71474 -0.27505,-0.17001 -0.85117,0.19208 -1.28026,0.80465 -0.63873,0.9119 -0.78009,0.95851 -0.78009,0.257 0,-0.47122 -0.27446,-0.80078 -0.60993,-0.73239 -0.94538,0.19274 -1.02138,-1.79519 -0.19234,-5.03114 0.60182,-2.34928 0.6368,-3.26073 0.17224,-4.4915 -0.32056,-0.84922 -0.7316,-1.54406 -0.91339,-1.54406 -0.31663,0 -2.93647,-5.13933 -3.67648,-7.21201 -0.19531,-0.54712 -0.67236,-3.00915 -1.06011,-5.47117 -0.38776,-2.46204 -0.81282,-5.16335 -0.94462,-6.00288 -0.13181,-0.83958 -0.0308,-2.63015 0.22402,-3.97904 0.25505,-1.34895 0.28823,-2.63283 0.0738,-2.85317 -0.70581,-0.72503 -3.02073,0.19502 -3.02073,1.20058 0,0.89647 -0.1824,1.02504 -1.61648,1.13979 -0.63165,0.0505 -1.59657,1.34358 -2.15996,2.8945 -0.28229,0.77706 -0.44088,0.7879 -1.73542,0.11848 -1.26623,-0.6548 -1.39264,-0.65311 -1.13619,0.0149 0.15869,0.41357 0.0651,0.75194 -0.20813,0.75194 -0.27317,0 -0.643,0.58298 -0.82184,1.29552 -0.2439,0.97178 -0.56485,1.23291 -1.28422,1.0448 -0.77138,-0.20174 -1.02131,0.0811 -1.27727,1.44554 -0.17503,0.93293 -0.52579,1.82458 -0.77946,1.98136 -0.25368,0.15677 -0.33354,0.68733 -0.17749,1.17904 0.17327,0.54592 -0.0125,1.00769 -0.47715,1.186 -0.41848,0.16056 -0.76088,0.72105 -0.76088,1.24549 0,0.52444 -0.32676,1.5833 -0.72612,2.3531 -0.39937,0.7698 -0.7118,2.59851 -0.69429,4.06384 0.0506,4.23967 -2.16471,5.89147 -4.52785,3.37602 -1.05901,-1.12726 -1.12086,-1.49577 -0.79909,-4.76122 0.33399,-3.38959 0.29363,-3.59043 -0.95399,-4.74669 -1.53426,-1.42191 -2.64411,-1.53362 -3.50738,-0.35299 -0.48172,0.65877 -1.30343,0.83778 -3.58965,0.78208 -3.27472,-0.0798 -6.36513,-1.29275 -9.0901,-3.56766 -1.47908,-1.2348 -1.59872,-1.4995 -0.96183,-2.12809 0.69899,-0.68987 5.80791,-1.79604 9.42493,-2.04065 1.61523,-0.10922 1.99048,-0.49808 5.46871,-5.66684 2.05395,-3.05228 3.90345,-5.44512 4.10997,-5.31749 0.20654,0.12763 0.37551,0.009 0.37551,-0.26222 0,-0.27187 1.18901,-1.68393 2.64223,-3.13797 1.45323,-1.45404 2.85211,-2.9794 3.10863,-3.38974 0.54705,-0.87509 2.41423,-1.98952 3.33337,-1.98952 0.35326,0 1.02557,-0.44765 1.49403,-0.99476 0.46845,-0.54712 1.41348,-0.99476 2.10006,-0.99476 0.72871,0 1.24831,-0.2852 1.24831,-0.68519 0,-0.37682 0.31506,-0.94662 0.70013,-1.26624 0.50419,-0.41844 0.70611,-1.8397 0.7215,-5.07844 0.0117,-2.47357 0.24688,-4.76918 0.5225,-5.10127 0.27563,-0.33211 0.36334,-1.13075 0.19492,-1.77481 -0.20169,-0.77129 -0.12351,-1.05807 0.22903,-0.84022 0.49842,0.30808 1.03194,-1.30269 1.04651,-3.15951 0.003,-0.41034 0.24994,-1.64135 0.5483,-2.73559 0.29834,-1.09423 0.64174,-2.64078 0.76311,-3.43684 0.12136,-0.796 0.60458,-2.58658 1.07382,-3.97903 0.508,-1.50746 0.81976,-3.80919 0.77062,-5.68934 -0.0606,-2.31769 0.0799,-3.09514 0.52822,-2.9226 0.44699,0.17204 0.56258,-0.44352 0.43118,-2.29616 -0.0988,-1.39216 0.0834,-3.70597 0.40467,-5.14186 0.65206,-2.91365 0.98481,-5.54041 1.22007,-9.63126 0.0872,-1.51631 0.46355,-3.24535 0.83639,-3.84231 0.57263,-0.91697 0.57198,-1.18371 -0.005,-1.71949 -0.5608,-0.5212 -0.608,-0.50131 -0.26511,0.11196 0.37075,0.66316 0.31449,0.66316 -0.50653,0 -0.89041,-0.71926 -0.88489,-0.75179 0.15324,-0.90504 0.76253,-0.11255 1.07683,-0.50896 1.07683,-1.35829 0,-0.86454 0.34717,-1.28652 1.24345,-1.51148 2.32266,-0.58294 1.68283,-1.68383 -2.73559,-4.70691 -1.77813,-1.21659 -3.54329,-2.62915 -3.92257,-3.13901 -0.37928,-0.50987 -1.37559,-1.51706 -2.21401,-2.23821 -0.83844,-0.72116 -2.01178,-1.77744 -2.60743,-2.34739 -2.19846,-2.10346 -4.32908,-0.96541 -3.8396,2.05085 0.1996,1.23002 0.12798,1.76659 -0.20807,1.55893 -0.54999,-0.34025 -3.12393,1.78824 -3.12393,2.58374 0,0.26386 -0.23779,0.55896 -0.52841,0.65585 -0.36559,0.12186 -0.37325,0.58422 -0.0249,1.50045 0.3392,0.89215 0.33943,1.37898 5e-4,1.49189 -0.63463,0.21153 -0.97607,15.23817 -0.37287,16.40965 0.28668,0.55677 0.0838,1.78032 -0.59686,3.59954 -0.56716,1.51586 -0.93022,2.92688 -0.80682,3.13558 0.1234,0.2087 -0.40576,0.99386 -1.17593,1.74481 l -1.4003,1.36536 -1.02958,-1.30891 c -0.84498,-1.07419 -1.01969,-1.96689 -0.97441,-4.97902 0.0304,-2.01856 -0.18613,-3.96088 -0.48106,-4.31626 -0.57874,-0.69732 -0.97338,-3.75786 -1.12163,-8.69853 -0.0513,-1.70964 -0.28336,-3.22596 -0.51569,-3.3695 -0.58958,-0.36438 -0.52989,-3.06152 0.076,-3.43599 0.41173,-0.25446 0.36789,-3.58532 -0.10573,-8.03438 -0.0336,-0.31584 -0.35956,-0.45978 -0.72431,-0.31981 -0.74947,0.28758 -0.92616,-1.12284 -0.19711,-1.57342 0.25634,-0.15842 0.45365,-1.18749 0.43848,-2.2868 -0.0336,-2.45004 1.94709,-6.43669 3.19818,-6.43669 0.53968,0 0.87126,-0.37861 0.87126,-0.99476 0,-0.54712 -0.24776,-0.99476 -0.55059,-0.99476 -0.30283,0 -0.42983,-0.3147 -0.28223,-0.69932 0.43842,-1.14253 -1.224,-2.12943 -3.27056,-1.94167 -1.04495,0.0958 -1.86518,-0.0514 -1.86518,-0.33478 0,-0.27824 0.31795,-0.50589 0.70656,-0.50589 0.79589,0 1.62285,-2.93847 0.96231,-3.41944 -0.48399,-0.35239 -1.26248,-1.89198 -2.41193,-4.76987 -0.43321,-1.08469 -1.02787,-2.12058 -1.32145,-2.30202 -0.29359,-0.18144 -0.61001,-1.08459 -0.70316,-2.00693 -0.88332,-8.74667 -1.26773,-11.06407 -1.90764,-11.50032 -0.39342,-0.26818 -0.39512,-0.47783 -0.006,-0.74607 1.041,-0.71767 2.7069,-9.45255 1.68196,-8.81913 -0.26522,0.16393 -0.48224,-0.0509 -0.48224,-0.47739 0,-0.42646 -0.21679,-0.77541 -0.48176,-0.77541 -0.26498,0 -0.36153,-0.31335 -0.21457,-0.69634 0.27453,-0.71538 -0.34263,-0.82475 -5.52091,-0.9782 -1.23101,-0.0363 -2.23821,-0.29012 -2.23821,-0.56367 0,-0.27357 -0.55955,-0.49738 -1.24345,-0.49738 -0.6839,0 -1.24345,0.17213 -1.24345,0.38248 0,0.21039 -0.57326,0.23864 -1.27391,0.0628 -1.02495,-0.25724 -1.3279,-0.1133 -1.55015,0.73657 -0.15193,0.58099 -0.48716,1.05634 -0.74496,1.05634 -0.2578,0 -0.37162,0.16787 -0.25292,0.37304 0.1187,0.20516 0.0759,0.75651 -0.0951,1.22524 -0.22669,0.62133 -0.513,0.72239 -1.05686,0.37303 -0.4901,-0.31484 -0.56719,-0.6071 -0.22476,-0.8522 0.28666,-0.20517 0.56862,-1.08251 0.62658,-1.94959 0.0793,-1.18695 -0.21969,-1.8323 -1.21,-2.61124 -0.72346,-0.5691 -1.60813,-1.0347 -1.96594,-1.0347 -0.76413,0 -4.36231,-2.02817 -4.60357,-2.59483 -0.0912,-0.21422 -0.48287,-0.38945 -0.87041,-0.38945 -0.38755,0 -0.70462,-0.24829 -0.70462,-0.5518 0,-0.33776 -0.67529,-0.47295 -1.74083,-0.34856 -0.95746,0.11177 -1.74083,0.0244 -1.74083,-0.19427 0,-0.21865 -0.34894,-0.39751 -0.77543,-0.39751 -0.42648,0 -0.63604,-0.22551 -0.46567,-0.50121 0.17037,-0.27565 -0.0295,-0.84047 -0.44424,-1.25518 -0.67374,-0.67375 -0.81375,-0.64232 -1.31546,0.29509 -0.3088,0.57701 -0.43929,1.17128 -0.28997,1.32059 0.41888,0.4189 -0.64723,2.13013 -1.32749,2.13082 -0.9409,0 -3.02298,2.03702 -4.3227,4.22714 -1.34269,2.26253 -2.71094,3.73035 -3.47727,3.73035 -0.67446,0 -3.49793,2.69122 -3.49793,3.33408 0,0.26993 -0.44764,0.89589 -0.99476,1.39102 -0.54711,0.49515 -0.99503,0.69768 -0.99536,0.45014 -3.4e-4,-0.2476 -0.55989,0.20019 -1.24345,0.995 -0.68357,0.79487 -1.24285,1.72745 -1.24285,2.07243 0,0.34499 -0.27803,0.71996 -0.61784,0.83321 -0.4363,0.14544 -0.60181,1.5095 -0.5633,4.6422 0.0577,4.68756 0.49503,7.20157 1.34953,7.75689 0.69978,0.4547 0.99147,2.89664 0.34601,2.89664 -1.43308,0 0.31744,5.23661 2.23087,6.67349 0.67858,0.50962 1.23377,1.18153 1.23377,1.49314 0,0.31166 0.44764,0.88926 0.99476,1.28359 0.54712,0.39432 0.99476,0.94168 0.99476,1.21629 0,0.2746 0.75021,1.1764 1.66711,2.00404 1.78496,1.61116 2.80279,4.19043 1.69968,4.30716 -1.66066,0.17572 -5.15903,-0.20627 -5.58013,-0.60929 -0.25988,-0.24874 -0.87539,-0.45227 -1.36779,-0.45227 -0.49241,0 -0.89529,-0.28599 -0.89529,-0.63555 0,-0.34951 -0.39168,-1.00526 -0.87041,-1.45713 -1.44875,-1.36749 -2.11387,-2.30803 -2.11387,-2.98914 0,-0.35613 -0.44764,-0.92702 -0.99476,-1.26867 -0.54711,-0.3417 -0.99476,-0.8553 -0.99476,-1.14139 0,-0.28609 -0.67043,-1.23544 -1.48983,-2.10964 -0.81942,-0.87424 -1.49799,-1.92525 -1.50796,-2.33559 -0.01,-0.41034 -0.34674,-1.18054 -0.74837,-1.71154 -0.41082,-0.54319 -0.73026,-2.02906 -0.73026,-3.39685 0,-1.45956 -0.5182,-3.72667 -1.29653,-5.67217 -1.2021,-3.00477 -1.43563,-5.01672 -1.14456,-9.86071 0.0328,-0.54711 -0.078,-2.35638 -0.2464,-4.02057 -0.28124,-2.77945 -0.20048,-3.14388 0.9919,-4.47642 0.84899,-0.94875 1.38117,-1.23549 1.53828,-0.82887 0.31052,0.80366 2.52345,0.80366 3.3707,0 0.36048,-0.34196 1.28127,-1.06937 2.0462,-1.61649 1.81603,-1.29896 6.95889,-6.21725 6.50109,-6.21725 -0.19475,0 0.41435,-0.76845 1.35358,-1.70765 0.93921,-0.93926 1.59372,-1.82166 1.45445,-1.96092 -0.13927,-0.13927 0.21885,-0.91613 0.79581,-1.72641 0.57696,-0.81028 1.04902,-1.64484 1.04902,-1.85463 0,-0.20979 0.37166,-0.79213 0.82592,-1.29408 0.45425,-0.50196 0.6874,-1.05116 0.5181,-1.22042 -0.61517,-0.61521 -2.89213,-0.28699 -3.81718,0.55015 -0.52143,0.47187 -1.72477,0.85798 -2.67411,0.85798 -1.27746,0 -1.79027,0.24561 -1.97317,0.94502 -0.14516,0.55513 -0.684,0.94502 -1.30595,0.94502 -0.84736,0 -0.96942,-0.17383 -0.61115,-0.87041 0.24621,-0.47873 0.34734,-1.15019 0.22473,-1.49214 -0.14143,-0.39447 0.24675,-0.62173 1.06197,-0.62173 0.81055,0 1.2849,-0.27544 1.2849,-0.74607 0,-0.41033 0.43444,-0.74606 0.96541,-0.74606 0.53097,0 1.08587,-0.19493 1.2331,-0.43312 0.14723,-0.23825 0.96804,-0.57323 1.82403,-0.74443 1.11618,-0.22322 1.4752,-0.52275 1.26941,-1.05903 -0.15781,-0.41123 -0.0659,-0.7477 0.20432,-0.7477 0.81608,0 -0.0667,-2.48332 -1.33295,-3.74956 -0.64848,-0.64848 -1.17904,-1.52491 -1.17904,-1.94769 0,-0.52582 -0.48075,-0.76869 -1.52149,-0.76869 -0.88768,0 -1.39345,-0.20721 -1.2141,-0.49738 0.16962,-0.27445 -0.18676,-0.49738 -0.79512,-0.49738 -1.82333,0 -8.34942,-5.31971 -8.38986,-6.83895 -0.009,-0.34195 -0.24036,-0.62173 -0.51393,-0.62173 -0.27355,0 -0.49738,-0.33573 -0.49738,-0.74607 0,-0.41034 -0.22381,-0.74607 -0.49738,-0.74607 -0.27355,0 -0.49738,-0.37582 -0.49738,-0.8351 0,-0.45928 -0.21605,-1.52243 -0.48013,-2.36255 -0.26407,-0.84013 -0.60406,-2.14297 -0.75554,-2.89525 -0.15148,-0.75229 -0.56753,-1.3678 -0.92455,-1.3678 -0.35703,0 -2.0594,-1.36714 -3.78304,-3.03814 -3.22044,-3.122 -5.1065,-3.86782 -7.14493,-2.82532 -1.16388,0.59527 -7.07734,0.55821 -9.16955,-0.0574 -0.88907,-0.26162 -1.61648,-0.28241 -1.61648,-0.0462 0,0.23615 -0.67814,0.41014 -1.50697,0.38657 -0.82883,-0.0233 -2.08234,0.26505 -2.78559,0.64142 -1.11825,0.5985 -1.35328,0.58223 -1.87391,-0.12982 -0.32741,-0.44774 -1.2473,-0.88931 -2.0442,-0.98123 -1.04978,-0.12106 -1.54342,-0.50962 -1.79202,-1.41052 -0.18872,-0.6839 -0.36544,-0.96671 -0.3927,-0.62839 -0.0447,0.55403 -3.03899,2.1911 -4.27731,2.33848 -1.43112,0.1703 -1.95814,-2.8466 -0.65207,-3.73264 0.70106,-0.47559 -0.61247,-3.3883 -1.6809,-3.72741 -1.85776,-0.58965 -2.8087,-1.77709 -2.6196,-3.27122 0.15026,-1.18749 -0.0358,-1.47085 -1.14775,-1.75003 -2.02936,-0.50931 -2.94071,-1.68388 -3.31667,-4.27453 -0.23571,-1.62414 -0.57762,-2.36255 -1.094,-2.36255 -0.82902,0 -2.1722,-1.16119 -2.1722,-1.87792 0,-0.25122 -0.46122,-0.99461 -1.0249,-1.65199 -0.56368,-0.65738 -1.47941,-1.72402 -2.03493,-2.37031 -0.55547,-0.6463 -1.21888,-1.77436 -1.47423,-2.5068 -0.41,-1.17605 -3.41064,-3.02899 -3.43163,-2.11914 -0.005,0.18145 -0.2174,0.66167 -0.47385,1.06719 -0.39189,0.61973 -0.68813,0.52727 -1.85757,-0.57975 -0.76522,-0.72443 -2.17469,-1.44384 -3.13215,-1.59878 -0.95745,-0.15488 -2.18846,-0.37278 -2.73559,-0.48415 -0.54711,-0.11141 -2.11118,-0.35279 -3.47569,-0.53642 -1.36446,-0.18363 -2.83695,-0.6561 -3.27211,-1.04992 -0.43515,-0.39383 -1.27722,-0.71603 -1.87114,-0.71603 -0.59397,0 -1.07996,-0.28186 -1.07996,-0.6264 0,-0.34459 -0.39995,-0.87618 -0.88872,-1.18147 -0.72393,-0.45208 -1.36944,-0.23417 -3.48166,1.1753 -1.56306,1.04306 -2.59294,2.09472 -2.59294,2.6477 0,0.81531 -0.1799,0.85669 -1.61648,0.37204 -2.11283,-0.71279 -2.06323,-0.62774 -1.16491,-1.99876 0.82177,-1.2542 0.71533,-5.78339 -0.14882,-6.32976 -0.23999,-0.15175 -0.51822,-0.70484 -0.61824,-1.22907 -0.11947,-0.6261 -0.6936,-1.02163 -1.67304,-1.15264 -0.82013,-0.10972 -1.67055,-0.5201 -1.8899,-0.91199 -0.59033,-1.05489 -1.34406,-0.8641 -1.34406,0.34021 0,0.84908 -0.21657,0.99476 -1.11911,0.75288 -0.61551,-0.16498 -1.28697,-0.30295 -1.49214,-0.30673 -0.20517,-0.005 -0.37303,-0.45441 -0.37303,-1.00153 0,-0.54711 -0.22382,-0.99476 -0.49738,-0.99476 -0.84356,0 -0.54871,-0.90841 0.37303,-1.14929 0.80441,-0.21019 0.80217,-0.23183 -0.0293,-0.28515 -0.4949,-0.0319 -0.76144,-0.28151 -0.59238,-0.55508 0.16906,-0.27355 -0.0413,-0.49738 -0.46804,-0.49738 -0.92259,0 -1.04464,-1.30681 -0.15369,-1.64573 0.41397,-0.15747 0.16464,-0.67668 -0.74607,-1.55371 -0.75228,-0.72448 -1.36779,-1.54521 -1.36779,-1.82384 0,-0.27863 -0.22382,-0.36826 -0.49738,-0.1992 -0.27356,0.16906 -0.49738,-0.0263 -0.49738,-0.43451 0,-0.90787 -2.11237,-1.68378 -2.382,-0.87494 -0.33603,1.00813 -2.09442,0.646 -2.09442,-0.43138 0,-0.54712 -0.22382,-0.99476 -0.49738,-0.99476 -0.27355,0 -0.49738,-0.44764 -0.49738,-0.99476 0,-0.54712 0.22383,-0.99476 0.49738,-0.99476 0.27356,0 0.49738,-0.22382 0.49738,-0.49738 0,-0.27356 -0.32419,-0.49738 -0.72046,-0.49738 -0.84255,0 -3.25858,-2.11973 -3.25858,-2.85894 0,-0.70762 -1.76426,-1.10443 -4.9738,-1.1187 -1.50457,-0.007 -3.84937,-0.35001 -5.21059,-0.76289 -1.36128,-0.41292 -2.7718,-0.63689 -3.13449,-0.49772 -0.36269,0.13916 -0.5227,0.0319 -0.35553,-0.2386 0.16712,-0.27048 -0.0453,-0.4917 -0.47157,-0.4917 -0.42645,0 -0.77541,0.18561 -0.77541,0.41247 0,0.52404 -4.02077,0.46674 -4.84945,-0.0691 -0.38672,-0.25008 -0.62173,-0.15324 -0.62173,0.25605 0,1.0152 -3.92209,2.4948 -6.07017,2.28993 -1.33303,-0.12712 -1.8879,0.0149 -1.8879,0.4842 0,0.36533 -0.20473,0.53773 -0.45491,0.38309 -0.25018,-0.15464 -0.54065,-0.0239 -0.6455,0.29066 -0.14355,0.43064 -0.4547,0.43044 -1.26066,0 -1.04912,-0.56149 -1.05385,-0.61635 -0.24197,-2.80691 0.45545,-1.22883 1.01873,-2.23427 1.2517,-2.23427 0.23298,0 0.28152,-0.4476 0.10789,-0.99476 -0.23626,-0.74444 -0.0882,-0.99666 0.58819,-1.00238 0.53897,-0.005 0.68848,-0.15513 0.3703,-0.37303 -0.29355,-0.20094 -0.67673,-0.75333 -0.85161,-1.22744 -0.19263,-0.52224 -0.61939,-0.74631 -1.08285,-0.5685 -0.47673,0.18294 -0.76486,0.0149 -0.76486,-0.44541 0,-0.79232 -1.71254,-1.5936 -4.39809,-2.0579 -1.54207,-0.2666 -5.0102,-3.32867 -5.04059,-4.45046 -0.007,-0.23447 -0.34727,-0.29743 -0.75761,-0.13996 -0.45446,0.17438 -0.74607,0 -0.74607,-0.44416 0,-0.40164 -0.21,-0.73035 -0.46664,-0.73035 -0.93851,0 -4.97355,-2.75519 -4.98882,-3.40646 -0.008,-0.36895 -0.70424,-1.31403 -1.54571,-2.10009 -0.90175,-0.84236 -1.38077,-1.67069 -1.16661,-2.01722 0.22089,-0.35741 0.15022,-0.45624 -0.18025,-0.25202 -0.29902,0.18483 -0.7662,-0.0604 -1.03817,-0.54488 -0.46257,-0.82396 -0.58497,-0.82833 -1.89572,-0.0679 -1.07568,0.62406 -2.32589,0.76676 -5.38031,0.61411 -2.18846,-0.10942 -5.21005,0.0683 -6.71462,0.39492 -1.50458,0.32659 -3.10743,0.54314 -3.56194,0.48117 -0.45451,-0.0619 -0.97128,0.12191 -1.14845,0.40855 -0.40999,0.6634 -2.59299,0.68071 -2.999,0.0239 -0.16906,-0.27356 0.0975,-0.50077 0.59238,-0.505 0.76288,-0.007 0.78626,-0.0809 0.15369,-0.48976 -0.99118,-0.64053 -4.79241,-0.62944 -6.00124,0.0174 -1.50949,0.80789 -1.13477,1.90019 0.96388,2.8094 2.30958,1.00058 3.43281,2.47715 2.52912,3.32468 -0.44849,0.42063 -0.65808,0.40576 -0.82834,-0.0586 -0.12538,-0.34195 -0.53801,-0.62173 -0.91701,-0.62173 -0.37896,0 -0.57766,0.29017 -0.44153,0.6448 0.1894,0.49365 -0.6637,0.64774 -3.63937,0.65714 -3.17249,0.01 -3.90205,-0.13126 -3.96959,-0.76915 -0.0453,-0.42983 -0.18786,-1.63454 -0.31638,-2.6772 -0.18115,-1.46955 -0.0468,-1.95484 0.59784,-2.15897 1.73368,-0.54886 3.14136,-1.39266 2.61572,-1.56784 -0.30081,-0.10027 -0.43555,-0.36249 -0.29947,-0.58268 0.13609,-0.22019 -0.58218,-0.55602 -1.59618,-0.74622 -1.01402,-0.19025 -2.45577,-0.66241 -3.20393,-1.04932 -0.74816,-0.38691 -1.91451,-0.70345 -2.59194,-0.70345 -0.74891,0 -1.29474,-0.3222 -1.39252,-0.82192 -0.1142,-0.58367 -0.73751,-0.84445 -2.15032,-0.89961 -1.09424,-0.0428 -2.38121,-0.23238 -2.85994,-0.42148 -0.47872,-0.18915 -1.23136,-0.45844 -1.67249,-0.59844 -0.65017,-0.20637 -0.68573,-0.39483 -0.18781,-0.99476 0.33787,-0.40711 0.475,-0.76821 0.3047,-0.80238 -0.17025,-0.0343 -0.4934,-0.0902 -0.71812,-0.12434 -0.7589,-0.11549 -2.03369,-1.6816 -1.68164,-2.06592 0.19214,-0.20975 -0.21019,-0.23944 -0.89409,-0.066 -0.6839,0.17343 -1.41132,0.31837 -1.61649,0.3221 -0.20517,0.005 -0.37303,0.24008 -0.37303,0.52518 0,0.28511 -0.2277,0.7887 -0.50598,1.11911 -0.27834,0.33041 -1.01123,1.38411 -1.62873,2.34156 -0.61749,0.95746 -1.6208,1.96177 -2.2296,2.2318 -0.60879,0.27008 -1.10686,0.67773 -1.10686,0.90598 0,0.89866 -1.4919,1.82423 -3.44342,2.13629 -1.12741,0.1803 -2.16996,0.5222 -2.31685,0.7598 -0.14687,0.23765 -0.70144,0.43207 -1.2324,0.43207 -0.531,0 -0.96541,0.21517 -0.96541,0.47813 0,0.26296 -1.1479,0.81899 -2.55086,1.23559 -1.40302,0.41666 -2.80189,0.96586 -3.10863,1.22047 -0.30678,0.25456 -0.78159,0.51042 -1.05514,0.56851 -0.84893,0.18025 -1.94769,0.54169 -2.98428,0.98163 -0.91254,0.38726 -0.89195,0.42625 0.24869,0.47161 1.21788,0.0483 1.22301,0.0649 0.24869,0.80063 -0.66549,0.50251 -1.02122,1.39983 -1.07469,2.71088 -0.0438,1.07786 -0.41964,2.29948 -0.83485,2.7147 -0.89986,0.89985 -1.32343,0.96004 -1.32343,0.18805 0,-0.31176 -0.38432,-0.84788 -0.8541,-1.19137 -0.49778,-0.36399 -0.86091,-1.30318 -0.87041,-2.25124 -0.009,-0.89469 -0.29625,-1.72014 -0.63839,-1.83444 -0.37145,-0.12399 -0.5131,0.0762 -0.35165,0.49704 0.16135,0.42038 -0.0393,0.70473 -0.49703,0.70473 -0.42208,0 -0.78511,-0.35438 -0.80675,-0.78755 -0.0259,-0.51364 -0.12649,-0.57129 -0.29012,-0.16578 -0.43173,1.06997 -1.08185,0.67768 -0.82431,-0.49738 0.18144,-0.82789 0.11867,-0.94009 -0.24113,-0.43127 -0.40949,0.57905 -0.66768,0.56089 -1.63225,-0.1147 -0.8066,-0.56497 -1.70527,-0.7131 -3.03571,-0.50036 -1.03942,0.16622 -2.17086,0.0898 -2.51431,-0.16971 -0.34343,-0.25954 -1.79946,-0.45172 -3.23565,-0.42705 -1.48537,0.0254 -2.61124,-0.17558 -2.61124,-0.46634 0,-1.09837 -1.84319,-1.70547 -3.65723,-1.20461 -1.99485,0.5508 -3.69365,2.75484 -6.62725,8.59826 -0.97869,1.94933 -1.9353,3.65619 -2.12585,3.79297 -0.19059,0.13677 -0.644,1.33039 -1.00759,2.65252 -0.48291,1.7558 -0.98725,2.52784 -1.87085,2.86377 -1.45801,0.55433 -5.16832,4.42195 -4.80538,5.00916 0.1417,0.22929 -0.0913,0.4169 -0.51777,0.4169 -0.42646,0 -0.77542,0.22382 -0.77542,0.49738 0,0.27356 -0.43441,0.49738 -0.96541,0.49738 -0.53096,0 -1.09499,0.2097 -1.2534,0.46594 -0.15836,0.25631 -1.57048,1.04838 -3.13797,1.76024 -1.56749,0.71179 -3.23863,1.50934 -3.71363,1.77226 -0.47505,0.26286 -1.31657,0.47798 -1.87006,0.47798 -0.55353,0 -1.38967,0.44764 -1.8581,0.99476 -0.46848,0.54712 -1.13776,0.99476 -1.48727,0.99476 -0.34956,0 -0.63555,0.19094 -0.63555,0.42437 0,0.23341 -1.13637,0.31519 -2.52525,0.18174 -2.5256,-0.24268 -5.5325,0.38701 -7.97429,1.66995 -0.71389,0.37512 -1.47721,0.52006 -1.69622,0.32205 -0.21904,-0.19796 -0.24779,-0.0972 -0.064,0.22377 0.33638,0.58731 -2.07835,2.64929 -3.10246,2.64929 -0.70832,0 -3.75556,2.99612 -4.17337,4.10339 -0.18064,0.47873 -0.5593,0.87041 -0.84141,0.87041 -0.28216,0 -0.513,0.33573 -0.513,0.74607 0,0.41034 -0.22382,0.74607 -0.49738,0.74607 -0.27356,0 -0.49738,0.20095 -0.49738,0.44655 0,0.24561 -0.89528,1.92023 -1.98952,3.72135 -1.09423,1.80116 -1.98952,3.47146 -1.98952,3.71179 0,0.24034 -0.56323,1.26693 -1.25165,2.28139 -0.68843,1.01446 -1.09936,2.09089 -0.91319,2.39215 0.20815,0.33682 0.0597,0.44072 -0.38567,0.26983 -0.82192,-0.3154 -2.09387,0.49026 -2.52753,1.60096 -0.16026,0.41034 -1.37742,1.29135 -2.70482,1.95774 -1.32736,0.66644 -2.88735,1.62877 -3.46659,2.13858 -0.5792,0.50981 -1.62116,0.97178 -2.31535,1.02655 -1.63077,0.12872 -5.2223,3.35626 -5.90087,5.30296 -0.57393,1.64632 -1.1578,1.92844 -1.60097,0.77362 -0.34105,-0.88892 -1.81285,-0.44874 -1.81285,0.54219 0,0.38105 -0.28137,0.69286 -0.62525,0.69286 -0.34389,0 -1.85309,1.00719 -3.35379,2.23821 -1.50069,1.23101 -2.91121,2.23821 -3.13443,2.23821 -0.22328,0 -0.28824,0.19039 -0.1444,0.42316 0.1438,0.23273 -0.26977,1.14323 -0.9191,2.02335 -0.64933,0.88011 -1.4524,2.25646 -1.78465,3.05848 -0.3322,0.80208 -0.80073,1.45832 -1.04106,1.45832 -0.24039,0 -0.43705,0.31181 -0.43705,0.69285 0,0.38109 -0.30331,0.80924 -0.67396,0.95149 -0.37069,0.14225 -0.80067,1.03948 -0.95556,1.99385 -0.30261,1.86462 -2.11302,4.31989 -3.18527,4.31989 -0.36105,0 -0.65639,0.22382 -0.65639,0.49737 0,0.27357 -0.33573,0.49738 -0.74607,0.49738 -0.41033,0 -0.74607,0.22129 -0.74607,0.49171 0,0.62969 -1.51532,2.5069 -5.4866,6.7968 -0.59834,0.6464 -1.08478,2.02722 -1.22648,3.48166 -0.12917,1.3257 -0.33181,3.23285 -0.45033,4.238 -0.15593,1.32214 -0.006,1.908 0.5413,2.11809 0.41621,0.15972 0.6342,0.6098 0.4844,1.00014 -0.14977,0.39039 -0.0274,0.79138 0.27186,0.89115 0.37264,0.1242 0.32056,0.64406 -0.16518,1.64862 -0.63575,1.31487 -0.61088,1.67378 0.23945,3.45674 0.52184,1.09424 1.15187,2.11998 1.39997,2.27949 0.2654,0.1706 0.23904,0.84774 -0.064,1.64489 -0.28335,0.74522 -0.34797,1.2518 -0.14364,1.12572 0.53727,-0.33146 0.45843,4.98335 -0.0812,5.47759 -0.26312,0.24098 -0.30291,0.15419 -0.095,-0.20706 0.21994,-0.38218 0.0651,-0.62172 -0.40203,-0.62172 -0.50435,0 -0.65302,0.27828 -0.44222,0.82764 0.23063,0.60098 0.13717,0.71618 -0.34116,0.42053 -0.44157,-0.27291 -0.5401,-0.21512 -0.29883,0.17523 0.19796,0.32031 0.53454,0.4744 0.74797,0.34249 0.21342,-0.1319 0.66539,0.27843 1.00435,0.91185 0.55179,1.03097 0.83322,1.11189 2.68625,0.77223 2.37559,-0.43541 2.58693,-0.34473 2.05234,0.88066 -0.21402,0.49052 -0.33494,1.11567 -0.26868,1.38923 0.0662,0.27357 -0.0293,0.34767 -0.21233,0.16468 -0.32797,-0.32796 -1.44544,0.50748 -4.27061,3.19264 -1.9153,1.82041 -3.82808,1.78236 -5.98149,-0.11903 -1.006294,-0.88857 -1.984096,-1.36316 -2.429945,-1.17948 -1.910138,0.78686 -2.984279,0.78277 -2.984279,-0.0114 0,-0.44222 -0.223818,-0.80406 -0.49738,-0.80406 -0.273562,0 -0.49738,-0.5805 -0.49738,-1.29001 0,-0.87767 -0.322453,-1.37436 -1.008688,-1.55382 -0.766162,-0.20034 -0.928305,-0.51712 -0.674349,-1.31731 0.28485,-0.89741 0.223026,-0.96113 -0.417198,-0.42978 -0.413376,0.3431 -1.137955,1.8521 -1.610171,3.35344 -0.824352,2.62074 -1.85836,3.49409 -2.416121,2.04064 -0.14538,-0.37895 0.06717,-1.16232 0.472365,-1.74083 0.405216,-0.5785 0.622069,-1.05185 0.481956,-1.05185 -0.140158,0 0.07099,-0.92344 0.469179,-2.05204 0.907173,-2.57131 0.904585,-2.92176 -0.02184,-2.92176 -0.614118,0 -0.707771,-0.63699 -0.530361,-3.60601 0.118525,-1.9833 0.246947,-3.606 0.285396,-3.606 0.0383,0 0.17165,-0.55955 0.29604,-1.24345 0.124345,-0.68389 0.44347,-1.31805 0.709117,-1.40922 0.265648,-0.0912 0.483003,-0.38418 0.483003,-0.65112 0,-0.2669 -0.27977,-0.32733 -0.621725,-0.13424 -0.49738,0.28081 -0.49738,0.21705 0,-0.31883 0.935875,-1.00828 0.762587,-2.80492 -0.297282,-3.08206 -0.602425,-0.15752 -1.118903,-1.0342 -1.499298,-2.5449 -0.319169,-1.26752 -0.80093,-2.30461 -1.070513,-2.30461 -0.269627,0 -0.490221,-0.34358 -0.490221,-0.76357 0,-0.41994 -0.37403,-1.33432 -0.831121,-2.03195 -0.674244,-1.029 -0.706776,-1.34519 -0.172436,-1.67545 0.43471,-0.26869 0.216061,-0.38105 -0.643163,-0.33061 -0.788446,0.0462 -1.538196,0.51783 -1.90114,1.1956 -0.329612,0.61549 -0.870662,1.11909 -1.202263,1.11909 -0.331654,0 -1.200528,0.78337 -1.930777,1.74083 -1.359836,1.78276 -2.769311,2.30401 -2.769311,1.0241 0,-0.39417 0.202776,-0.84206 0.450673,-0.99526 0.247845,-0.15319 0.327376,-0.74999 0.176722,-1.32621 -0.232727,-0.88986 -0.53722,-1.00491 -2.021699,-0.76403 -1.170188,0.1899 -2.255871,0 -3.285347,-0.5683 -0.845692,-0.46856 -1.587985,-0.86498 -1.64951,-0.88094 -0.06156,-0.0159 -0.243222,-0.8553 -0.403719,-1.86517 -0.214969,-1.35253 -0.115294,-1.83618 0.378353,-1.83618 0.368607,0 0.677379,-0.39169 0.686138,-0.87042 0.009,-0.47872 0.183335,-1.42996 0.387853,-2.11386 0.290371,-0.97089 0.251675,-1.07991 -0.176467,-0.49738 -0.436902,0.59442 -0.51932,0.44282 -0.405612,-0.74607 0.102951,-1.07628 0.374875,-1.45379 0.97561,-1.35462 0.458131,0.0757 0.974915,-0.0922 1.148495,-0.37303 0.173536,-0.28082 0.749952,-0.51056 1.280956,-0.51056 0.530952,0 0.965415,-0.20875 0.965415,-0.46386 0,-0.47614 1.63891,-1.18694 3.374369,-1.46349 0.214625,-0.0343 0.813265,-0.78959 1.330341,-1.67865 0.517128,-0.88907 1.157553,-1.76177 1.423209,-1.93933 0.265595,-0.17757 0.343338,-0.68664 0.17269,-1.13129 -0.229795,-0.5989 -0.667684,-0.72424 -1.688954,-0.48341 -0.758308,0.17886 -1.591321,0.52006 -1.851201,0.75831 -0.259881,0.23824 -0.761285,0.43317 -1.11428,0.43317 -0.454009,0 -0.392581,-0.29093 0.210046,-0.99476 0.468432,-0.54713 1.361527,-0.99476 1.984643,-0.99476 0.623116,0 1.133527,-0.27978 1.134327,-0.62173 0,-0.37652 0.769491,-0.6558 1.949081,-0.70812 2.50008,-0.11087 4.606232,-1.45911 4.448465,-2.8477 -0.108083,-0.95129 1.210275,-3.62898 2.524399,-5.12734 0.289779,-0.33041 0.526874,-1.04514 0.526874,-1.58838 0,-0.5699 0.631075,-1.36043 1.49214,-1.86905 0.820678,-0.48475 1.49214,-1.05699 1.49214,-1.27156 0,-0.21456 0.239788,-0.39014 0.532896,-0.39014 0.728663,0 1.675519,-1.00715 2.59478,-2.75992 0.42337,-0.80729 1.675624,-2.29301 2.782738,-3.30155 1.107121,-1.00858 2.156892,-2.40747 2.332912,-3.10863 0.17597,-0.7012 0.51051,-1.27488 0.74344,-1.27488 0.23292,0 0.68096,-0.95124 0.9956,-2.11386 0.31469,-1.16263 0.75517,-2.56151 0.97894,-3.10863 0.22377,-0.54711 0.5409,-1.81245 0.70484,-2.81189 0.16388,-0.99948 0.59805,-1.93231 0.96477,-2.07302 0.68628,-0.26336 0.74925,-0.44645 1.9445,-5.65138 0.38845,-1.69159 1.09275,-3.46211 1.56516,-3.93452 0.77671,-0.77671 0.78327,-0.9012 0.0685,-1.30115 -1.19735,-0.67007 -0.94687,-1.38764 0.48435,-1.38764 1.03614,0 1.24558,-0.20925 1.1191,-1.11811 -0.15862,-1.13965 -2.87784,-3.3583 -4.11607,-3.3583 -1.01898,0 -2.25676,-0.54926 -2.25676,-1.00143 0,-0.21865 0.42476,-0.28649 0.94398,-0.15071 0.51917,0.13573 1.51776,-0.12912 2.219,-0.5886 0.82869,-0.54298 2.00127,-0.77631 3.34931,-0.66648 1.61629,0.1317 2.19703,-0.0373 2.6304,-0.76537 0.4248,-0.71365 0.40447,-0.98939 -0.0863,-1.16745 -0.78447,-0.28466 0.14936,-1.62852 1.13159,-1.62852 0.73557,0 4.73341,-5.68441 4.73341,-6.73025 0,-0.40174 0.18553,-0.73045 0.41233,-0.73045 0.22681,0 0.93652,-1.11911 1.57719,-2.4869 0.64063,-1.3678 1.32318,-2.4869 1.51681,-2.4869 0.19358,0 0.63014,-0.67146 0.97009,-1.49214 0.33991,-0.82068 0.79233,-1.49214 1.00536,-1.49214 0.53946,0 3.96844,-3.48111 3.96844,-4.02878 0,-0.2462 0.34275,-0.44764 0.76164,-0.44764 0.41895,0 0.89051,-0.33573 1.04798,-0.74607 0.15747,-0.41034 0.50215,-0.74607 0.76601,-0.74607 1.11632,0 2.99353,-2.6952 3.2086,-4.60683 0.0997,-0.88573 0.3888,-2.16997 0.64252,-2.85387 0.25371,-0.68389 0.60556,-2.11097 0.78188,-3.17129 0.22924,-1.37819 0.94895,-2.54723 2.52455,-4.1005 1.21216,-1.195 2.20394,-2.39782 2.20394,-2.67296 0,-0.27511 0.45465,-0.50022 1.01032,-0.50022 0.55573,0 1.15437,-0.39169 1.3303,-0.87041 0.17597,-0.47873 0.57716,-1.02735 0.8915,-1.21913 0.3144,-0.19179 0.85669,-1.3109 1.2051,-2.4869 0.34842,-1.17601 0.87047,-2.58583 1.16006,-3.13295 1.1684,-2.20727 1.62713,-2.99586 1.8806,-3.23297 0.69086,-0.64614 3.96187,-5.95154 3.96187,-6.42589 0,-0.2956 0.22383,-0.53742 0.49738,-0.53742 0.27356,0 0.49738,-0.46088 0.49738,-1.02411 0,-0.56328 0.19005,-0.90663 0.42238,-0.76303 0.23233,0.14354 0.70618,-0.26918 1.053,-0.91717 0.34683,-0.64803 1.57048,-1.66164 2.71928,-2.25248 1.14875,-0.59084 3.08101,-1.9552 4.29382,-3.03183 1.21287,-1.07668 2.42901,-1.96291 2.70257,-1.96938 0.27356,-0.007 1.05693,-0.44943 1.74083,-0.98436 0.6839,-0.53493 1.71964,-0.9776 2.30163,-0.98372 1.13929,-0.012 2.37543,-1.13676 1.83885,-1.67328 -0.17999,-0.18001 0.14713,-0.32728 0.72698,-0.32728 1.27174,0 3.588,-0.99963 3.588,-1.54849 0,-0.21671 1.39888,-0.8162 3.10862,-1.33218 2.47287,-0.74632 3.6172,-1.46021 5.59552,-3.49076 3.32922,-3.41715 3.72254,-3.91557 3.36885,-4.26921 -0.16592,-0.16593 -0.0482,-0.30171 0.26143,-0.30171 0.30972,0 1.23002,-0.61551 2.04512,-1.3678 1.98967,-1.83632 2.55042,-2.27938 4.28508,-3.38571 0.81361,-0.51887 1.59117,-1.06046 1.72795,-1.20356 0.13678,-0.1431 1.4604,-0.89638 2.94146,-1.67398 1.48099,-0.77761 2.98402,-1.67288 3.34005,-1.98952 1.6801,-1.49437 2.17991,-1.81917 2.7995,-1.81917 0.36721,0 0.88026,-0.18681 1.14014,-0.41516 0.25988,-0.22835 1.53566,-0.8064 2.83507,-1.28458 1.9271,-0.70921 2.36256,-1.09101 2.36256,-2.07173 0,-0.82059 0.28067,-1.20233 0.88404,-1.20233 1.43952,0 2.99273,-1.38649 3.34379,-2.98487 0.1802,-0.82038 0.64554,-1.49154 1.03415,-1.49154 0.3886,0 0.70658,-0.19915 0.70658,-0.44262 0,-0.59641 4.20564,-2.54166 5.4951,-2.54166 0.56621,0 0.90687,-0.19846 0.75696,-0.44103 -0.3712,-0.60059 0.89732,-1.58689 2.16365,-1.68224 0.56895,-0.0428 1.0345,-0.25411 1.0345,-0.46947 0,-0.21537 0.43709,-0.39154 0.97134,-0.39154 0.93457,0 3.48827,-0.94607 4.00246,-1.48279 1.21828,-1.27185 3.04148,-1.58376 6.28598,-1.07543 1.87712,0.29405 5.03598,0.64122 7.01972,0.77153 1.98375,0.13026 3.88623,0.41139 4.22773,0.62476 0.67236,0.42004 0.63904,0.41168 3.68593,0.92577 1.74834,0.29505 2.21027,0.18587 2.97051,-0.702 0.62849,-0.73403 1.48114,-1.05136 2.82506,-1.05136 1.17173,0 2.41966,-0.3892 3.1895,-0.99476 0.69554,-0.54711 1.68209,-0.99476 2.19231,-0.99476 0.5102,0 0.92771,-0.22382 0.92771,-0.49738 0,-0.27356 0.44764,-0.49738 0.99476,-0.49738 0.54712,0 0.99476,-0.23705 0.99476,-0.52672 0,-0.28973 0.20163,-0.40214 0.44808,-0.24979 0.24651,0.15235 2.31685,-0.0968 4.60077,-0.55368 2.28396,-0.45684 4.76087,-0.80168 5.50426,-0.76626 0.74338,0.0353 1.48397,-0.14992 1.64583,-0.41174 0.16184,-0.26187 0.92318,-0.47609 1.69188,-0.47609 2.03284,0 10.08612,-1.46016 10.70187,-1.94038 0.88171,-0.68758 3.16802,-1.0719 3.34373,-0.56204 0.091,0.26406 1.54885,0.53404 3.23959,0.59989 1.69075,0.0658 2.99418,0.24909 2.89644,0.40715 -0.0977,0.15812 0.23715,0.28744 0.74413,0.28744 0.50693,0 0.79188,-0.21004 0.63322,-0.46679 -0.17493,-0.28306 0.94865,-0.35463 2.85446,-0.18179 2.12192,0.19238 3.28579,0.54025 3.58268,1.07076 0.25958,0.46386 1.0997,0.78576 2.05069,0.78576 0.88604,0 2.48899,0.44765 3.56214,0.99476 1.0731,0.54712 2.30669,0.99476 2.74125,0.99476 0.43457,0 1.01262,0.22253 1.28459,0.4945 0.27197,0.27196 1.1001,0.54458 1.84031,0.60585 0.7402,0.0613 1.34585,0.2864 1.34585,0.50027 0,0.21387 0.33573,0.3889 0.74607,0.3889 0.41034,0 0.74607,0.19955 0.74607,0.44346 0,0.24392 0.53071,0.57667 1.17934,0.73946 1.28464,0.32245 3.42954,2.84083 4.02595,4.727 0.26405,0.8351 0.48931,0.99924 0.76327,0.55602 0.28232,-0.45684 0.47515,-0.35623 0.70499,0.36796 0.22357,0.70454 0.89175,1.07394 2.27895,1.26002 1.07941,0.14478 2.30475,0.60541 2.72295,1.0236 0.60502,0.60496 2.10491,0.76154 7.33869,0.76601 4.24494,0.005 6.69796,-0.18801 6.91572,-0.5403 0.24387,-0.39462 0.93641,-0.38502 2.49819,0.0349 1.18844,0.31931 2.88823,0.62575 3.77735,0.68096 1.03724,0.0644 1.71476,0.40984 1.89059,0.96392 0.15076,0.4749 0.68961,0.99536 1.19744,1.15656 0.50787,0.1612 1.04892,0.62028 1.20242,1.02022 0.15344,0.3999 0.78964,0.72851 1.41375,0.7302 0.62406,0 1.80619,0.3534 2.62686,0.78159 2.16082,1.12746 6.87235,2.65824 7.32347,2.37941 0.54756,-0.33841 0.47798,-2.06268 -0.12897,-3.19675 -0.35493,-0.66321 -0.35493,-0.96209 0,-0.96209 0.28316,0 0.51489,0.33573 0.51489,0.74607 0,0.41034 0.19581,0.74607 0.43521,0.74607 0.23934,0 0.56949,0.67146 0.73363,1.49214 0.16414,0.82068 0.6158,1.49214 1.00371,1.49214 0.38791,0 0.83411,0.33573 0.99158,0.74607 0.16901,0.44048 0.91593,0.74607 1.82339,0.74607 0.8454,0 1.41933,0.1906 1.27534,0.42352 -0.14394,0.23297 0.57676,0.67475 1.60161,0.98183 3.62252,1.08533 11.03596,5.55777 11.03596,6.65783 0,0.23863 0.45764,0.92512 1.01704,1.52556 1.18128,1.26797 2.46462,3.69598 2.46462,4.66298 0,0.36831 0.22382,0.66968 0.49738,0.66968 0.27355,0 0.49738,0.41342 0.49738,0.91865 0,0.50524 0.42073,1.40381 0.93502,1.99679 0.8069,0.93034 1.4718,1.0817 4.84946,1.10393 3.69747,0.0244 6.94069,0.56268 8.65943,1.43738 0.42133,0.21437 1.59639,0.32394 2.61124,0.24341 1.01491,-0.0805 1.84627,0.005 1.84747,0.18533 0,0.18249 0.79974,0.37283 1.77445,0.42307 0.97472,0.0502 2.05747,0.32807 2.40608,0.61739 0.34866,0.28938 0.78118,0.37881 0.96119,0.19886 0.18,-0.18001 0.32727,-0.0661 0.32727,0.25297 0,0.31917 0.45873,0.58029 1.01943,0.58029 0.5607,0 1.68636,0.34488 2.50152,0.76641 0.81511,0.42148 1.6993,0.63212 1.9648,0.46799 0.26556,-0.16409 0.48281,-0.0613 0.48281,0.22839 0,0.28968 0.43441,0.52673 0.96537,0.52673 0.53099,0 1.10373,0.22382 1.27284,0.49738 0.16906,0.27355 0.84052,0.49738 1.49214,0.49738 0.65157,0 1.32303,0.22382 1.49214,0.49738 0.16906,0.27355 0.86389,0.49738 1.54406,0.49738 0.68773,0 1.83384,0.60357 2.5819,1.35974 0.73986,0.7478 1.55093,1.29472 1.8024,1.21534 0.25148,-0.0794 0.20021,0.16538 -0.11394,0.54393 -0.45133,0.54384 -0.26446,0.91508 0.8904,1.76894 0.8039,0.59431 2.03025,1.08061 2.72523,1.08061 0.94408,0 1.26359,0.25893 1.26359,1.0241 0,0.56328 0.2254,0.88484 0.50089,0.71453 0.27549,-0.17025 0.63517,0.0403 0.79928,0.46804 0.16412,0.42769 0.57425,0.77761 0.91141,0.77761 0.33717,0 0.85168,0.52378 1.14336,1.16396 0.29169,0.64018 1.83841,2.01946 3.43716,3.06505 1.59874,1.0456 2.97675,1.95336 3.06223,2.01718 0.0855,0.0639 0.25935,0.97874 0.38637,2.03309 0.2603,2.16061 0.54103,3.3121 1.27603,5.23402 0.43993,1.15034 0.75076,1.30781 2.32921,1.18009 1.00184,-0.0811 2.04535,-0.20139 2.3189,-0.26729 1.07864,-0.25999 1.76751,0.0575 3.23297,1.49004 1.00185,0.97935 2.03335,1.49214 3.00143,1.49214 0.81125,0 1.47499,0.22383 1.47499,0.49738 0,0.27357 -0.22382,0.49738 -0.49738,0.49738 -0.27356,0 -0.49738,0.33573 -0.49738,0.74607 0,0.41034 0.4237,0.74607 0.94154,0.74607 0.51786,0 1.06389,0.31883 1.21342,0.70847 0.38537,1.00426 3.62715,2.4406 4.81017,2.13123 0.64474,-0.16862 0.99295,-0.0144 0.99295,0.43983 0,0.46783 0.57652,0.69951 1.74083,0.69951 0.95745,0 1.74224,0.16787 1.74397,0.37304 10e-4,0.20517 0.65137,0.74179 1.44364,1.19247 1.04565,0.59486 1.59011,0.66982 1.98637,0.27355 0.39626,-0.39626 0.54589,-0.33115 0.54589,0.2375 0,0.50251 0.4426,0.78338 1.23437,0.78338 0.67891,0 1.14478,-0.14499 1.03527,-0.32216 -0.10951,-0.17721 0.67794,-0.3222 1.74991,-0.3222 1.32534,0 1.949,0.2196 1.949,0.68628 0,0.40562 0.30506,0.56916 0.74607,0.39995 0.52874,-0.20293 0.74607,0.0443 0.74607,0.84773 0,1.22003 1.64476,3.30061 2.63062,3.32772 0.81515,0.0224 2.84056,1.75202 2.84056,2.42573 0,0.29807 0.24247,0.54199 0.53882,0.54199 0.29636,0 0.44594,0.27868 0.3324,0.61929 -0.11354,0.34061 0.53734,1.4038 1.44638,2.36255 0.90904,0.9588 1.65579,1.96709 1.65942,2.24065 0.004,0.27355 0.64837,1.18197 1.43274,2.01871 0.78437,0.83674 1.58137,2.01046 1.77111,2.60831 0.18975,0.5978 0.70659,1.44857 1.14854,1.8905 0.44195,0.44197 0.83378,1.39449 0.87074,2.11679 0.0369,0.7223 0.33276,1.8033 0.65735,2.40219 0.3863,0.71275 0.41742,1.19571 0.0901,1.39799 -1.11155,0.68698 2.85652,5.17867 4.60077,5.20792 0.47873,0.008 0.87041,0.29643 0.87041,0.64102 0,0.79501 1.87409,1.99052 2.50714,1.59927 0.26243,-0.16219 0.47714,0.054 0.47714,0.48052 0,0.42646 0.33573,0.77542 0.74607,0.77542 0.41034,0 0.74607,0.22382 0.74607,0.49738 0,0.27356 0.33573,0.49738 0.74607,0.49738 0.41034,0 0.74607,0.22382 0.74607,0.49738 0,0.27356 0.33573,0.49738 0.74607,0.49738 0.41034,0 0.74607,0.3227 0.74607,0.71707 0,0.47709 0.5411,0.71772 1.61648,0.71896 0.88908,0 2.3757,0.15608 3.30363,0.34454 0.99063,0.20114 1.57037,0.15369 1.40431,-0.11505 -0.15555,-0.25167 0.15392,-0.45758 0.68773,-0.45758 0.63737,0 0.87684,0.24421 0.69756,0.7114 -0.29712,0.77432 1.06032,2.55708 1.94702,2.55708 0.30235,0 1.15317,0.55955 1.89072,1.24345 0.73756,0.6839 1.5746,1.24345 1.8601,1.24345 0.2855,0 0.51909,0.16921 0.51909,0.37596 0,0.20677 0.61586,0.64859 1.3686,0.98178 0.75273,0.3332 1.59206,1.02297 1.86517,1.53283 0.27312,0.50986 1.27891,2.13844 2.23509,3.61898 0.9562,1.48061 1.67445,2.88729 1.59615,3.12604 -0.0783,0.23874 0.19111,0.30609 0.5987,0.14966 0.46755,-0.17941 0.65155,-0.051 0.4985,0.34777 -0.264,0.68797 1.75995,1.80409 3.27157,1.80409 0.5181,0 1.08033,0.22382 1.2494,0.49738 0.16907,0.27356 0.74013,0.49738 1.26902,0.49738 1.04424,0 3.55182,1.92964 3.21527,2.47417 -0.20775,0.33618 4.64012,1.79395 5.33896,1.60549 0.20517,-0.0553 0.37303,0.1232 0.37303,0.39676 0,0.27356 0.67147,0.49738 1.49214,0.49738 1.26004,0 1.49214,0.19344 1.49214,1.24345 0,1.33432 0.46434,1.5749 1.34326,0.69598 0.39834,-0.3983 0.63777,-0.26286 0.87909,0.49738 0.22954,0.72334 0.74687,1.04485 1.68119,1.04485 1.04182,0 1.47757,0.33917 1.91099,1.48732 0.64356,1.70506 2.58261,2.64128 4.54536,2.19463 2.72166,-0.61934 4.85802,-0.55512 6.48917,0.19502 3.12449,1.43684 10.7453,0.70027 9.73119,-0.94059 -0.11694,-0.1892 0.7311,-0.72165 1.88452,-1.18317 1.41967,-0.56805 2.15609,-0.66256 2.27939,-0.29255 0.17344,0.52025 0.6647,1.03385 2.26134,2.36414 0.39069,0.32549 0.84609,0.45605 1.01202,0.29012 0.16597,-0.16592 0.30171,-0.0274 0.30171,0.30798 0,0.33528 0.17527,0.50126 0.38955,0.36886 0.21422,-0.13241 1.45971,-0.0124 2.76771,0.26649 1.75048,0.37334 2.52207,0.82297 2.92326,1.70353 0.29982,0.65794 0.73299,1.1963 0.96262,1.1963 0.22965,0 0.41755,0.33573 0.41755,0.74607 0,0.41446 0.44213,0.74607 0.99476,0.74607 0.54713,0 0.99476,0.22382 0.99476,0.49738 0,0.27355 0.56309,0.49737 1.25126,0.49737 1.59734,0 5.21468,1.11911 5.21468,1.61325 0,0.20697 0.44764,0.37627 0.99476,0.37627 0.54712,0 0.99476,0.22383 0.99476,0.49738 0,0.27356 0.36185,0.49738 0.80407,0.49738 0.58641,0 0.7406,0.33186 0.56964,1.2261 -0.12891,0.67435 -0.0263,1.29552 0.22826,1.38032 0.25445,0.0848 0.3129,0.7509 0.12986,1.48021 -0.23516,0.93676 -0.75662,1.41907 -1.77669,1.64309 -1.43788,0.31583 -4.61618,-0.43993 -5.79935,-1.37904 -0.34195,-0.27137 -0.62173,-0.31136 -0.62173,-0.0888 0,0.22258 -0.30175,-0.008 -0.67061,-0.51244 -0.36886,-0.50445 -0.92841,-0.75782 -1.24345,-0.56314 -0.3233,0.19985 -0.57284,0.0638 -0.57284,-0.31231 0,-0.94477 -2.79835,-2.0201 -5.71986,-2.19807 -4.15889,-0.25331 -4.26464,-0.28081 -3.69832,-0.96322 0.57626,-0.69434 -0.1988,-1.46792 -0.98431,-0.98242 -0.25018,0.15463 -0.52996,0.0624 -0.62173,-0.20508 -0.10271,-0.29932 -0.89807,-0.23421 -2.06939,0.16946 -1.90402,0.6562 -4.51269,0.53598 -4.06569,-0.18731 0.54051,-0.87455 -1.37083,-1.5377 -5.16753,-1.79306 -3.33777,-0.22446 -4.03429,-0.14528 -4.03429,0.45854 0,0.97233 -1.95729,1.41748 -3.84818,0.87519 -1.35641,-0.38901 -1.54954,-0.31246 -1.74118,0.68992 -0.11852,0.62013 0.0747,1.52441 0.42944,2.00955 0.42267,0.57806 0.49012,1.17134 0.19567,1.72154 -0.4933,0.92179 0.31151,3.82928 1.43464,5.18255 0.36691,0.44212 0.43919,0.80386 0.1606,0.80386 -0.62595,0 -0.47664,3.92602 0.16692,4.38933 0.2566,0.18468 0.50375,0.89533 0.54926,1.57923 0.0453,0.6839 0.31733,2.13873 0.60407,3.23297 0.28673,1.09423 0.88668,3.70523 1.33327,5.80218 0.44655,2.09696 1.23789,4.26986 1.75849,4.82867 0.52056,0.5588 0.94652,1.27309 0.94652,1.58738 0,0.31425 0.32433,0.44695 0.72074,0.2948 0.43088,-0.16533 0.63009,-0.0368 0.49535,0.3198 -0.124,0.32802 0.44645,1.37978 1.26762,2.33723 0.82113,0.95746 1.49353,2.02061 1.49418,2.36256 0,0.34194 0.22496,0.62172 0.49852,0.62172 0.27356,0 0.49738,0.33573 0.49738,0.74607 0,0.41034 0.23875,0.74607 0.53056,0.74607 0.29181,0 1.24305,0.54214 2.11386,1.2047 0.87081,0.66261 2.18961,1.35606 2.93072,1.54099 0.74104,0.18487 1.60777,0.64997 1.92605,1.03345 0.31827,0.38353 1.11084,0.69728 1.76122,0.69728 0.65042,0 1.18396,0.16787 1.18571,0.37303 0,0.20517 0.72915,0.80551 1.61647,1.33403 1.79127,1.06698 4.29224,1.40833 5.16699,0.70518 0.31315,-0.25168 0.76079,-0.42058 0.99476,-0.37527 0.23397,0.0452 1.16839,-0.22566 2.07651,-0.60208 1.28771,-0.53374 1.60574,-0.92179 1.44494,-1.76296 -0.1436,-0.75125 0.14772,-1.26797 0.96014,-1.70273 0.64147,-0.3433 1.1663,-0.92209 1.1663,-1.28623 0,-0.36408 0.25123,-0.66201 0.55826,-0.66201 0.38179,0 0.35941,-0.23964 -0.0708,-0.7581 -0.34604,-0.41696 -0.48729,-0.89991 -0.3139,-1.07335 0.17339,-0.17339 0.0518,-0.63267 -0.27018,-1.02062 -0.45555,-0.54891 -0.42775,-0.80282 0.12519,-1.14458 0.50897,-0.31454 0.83953,-0.12737 1.16482,0.65963 0.24983,0.60436 0.43476,1.22022 0.41093,1.36859 -0.10092,0.62919 2.16868,0.36687 2.95091,-0.34105 0.77575,-0.70206 0.95482,-0.67743 1.97315,0.27132 1.2148,1.13174 2.18832,1.33059 2.67322,0.54602 0.5028,-0.81356 3.80764,-0.56791 6.98057,0.51897 1.63186,0.55895 3.24914,1.11239 3.59397,1.22982 0.34484,0.11743 0.78373,0.20308 0.97536,0.1903 1.06753,-0.0711 1.49891,4.73794 0.51156,5.7029 -0.81371,0.79522 -3.72423,0.95955 -6.38944,0.3607 -2.90778,-0.6533 -5.09844,0.59561 -5.15624,2.93967 -0.0144,0.58765 -0.67852,0.73448 -3.12703,0.6914 -2.74628,-0.0482 -3.10862,0.0559 -3.10862,0.89439 0,0.58472 -0.57607,1.19133 -1.50044,1.58003 -0.82521,0.34697 -1.34746,0.78382 -1.16054,0.97074 0.30121,0.30116 -0.94079,0.55652 -1.93979,0.39874 -0.85832,-0.13553 -0.26515,0.88102 1.24345,2.13078 0.88907,0.73652 1.64449,1.55237 1.67866,1.81295 0.0343,0.26058 0.11072,0.52976 0.17005,0.59815 0.0593,0.0684 0.14868,0.90772 0.19851,1.86518 0.0499,0.95745 0.25387,2.00041 0.45331,2.31768 0.19945,0.31724 0.21199,0.9695 0.0278,1.44937 -0.2189,0.57049 -0.14529,0.75542 0.21272,0.53413 0.30112,-0.18612 0.6852,-0.11564 0.85341,0.15658 0.28723,0.46471 0.66475,3.12991 0.72896,5.14614 0.0159,0.49489 0.25247,0.76144 0.52603,0.59238 0.27355,-0.16906 0.49738,0.14026 0.49738,0.68738 0,0.54712 0.18159,1.10697 0.40352,1.24414 0.22194,0.13718 0.35254,0.98541 0.29028,1.88498 -0.0623,0.89955 0.005,1.82633 0.14871,2.0594 0.55194,0.89304 0.70498,11.86111 0.17443,12.5004 -0.59546,0.71751 0.16668,7.81378 1.00451,9.35263 0.37263,0.68444 0.27947,0.87041 -0.4359,0.87041 -0.80272,0 -0.87226,0.2927 -0.59079,2.4869 0.17547,1.36779 0.14091,2.4869 -0.0768,2.4869 -0.21776,0 -0.19408,0.5309 0.0526,1.17973 0.55333,1.45538 0.28321,9.3314 -0.36308,10.58624 -0.25979,0.50448 -0.59452,1.87695 -0.74384,3.05003 -0.14926,1.17307 -0.67256,2.73982 -1.16287,3.48166 -1.0733,1.62399 -0.93443,3.83664 0.35433,5.64655 0.55851,0.78432 0.94492,2.16007 0.94492,3.36413 0,1.12039 0.22134,2.03707 0.49181,2.03707 0.27048,0 0.49285,0.50359 0.49415,1.1191 0.0124,5.85003 0.0912,6.84673 0.52155,6.58078 0.26511,-0.16383 0.48201,0.13902 0.48201,0.67301 0,0.53399 -0.35488,1.10707 -0.78865,1.27354 -0.66365,0.25466 -0.73164,0.83465 -0.42883,3.65923 0.19785,1.84612 0.34627,3.69229 0.32971,4.10263 -0.0164,0.41034 -0.0199,1.52945 -0.007,2.4869 0.074,5.69008 -0.084,11.80735 -0.33046,12.78938 -0.15703,0.6255 -0.63406,1.13725 -1.06017,1.13725 -0.58815,0 -0.74145,0.44909 -0.63659,1.86518 0.0923,1.24654 -0.0601,1.82394 -0.45929,1.74083 -0.83047,-0.17289 -0.7493,1.1199 0.11539,1.83752 0.61571,0.511 0.60417,0.71837 -0.0851,1.52322 -0.43873,0.51246 -0.87742,1.56069 -0.97481,2.32933 -0.0974,0.76871 -0.24575,1.97431 -0.32971,2.67914 -0.084,0.70489 -0.285,1.49577 -0.4468,1.75754 -0.28236,0.45689 -0.13275,3.26465 0.3417,6.41113 0.1237,0.82068 0.008,2.18733 -0.25754,3.037 -0.7024,2.2489 0.058,3.74567 3.77058,7.42185 2.99602,2.96672 3.4943,3.71353 3.27296,4.90571 -0.0453,0.24376 0.247,1.13904 0.64948,1.98952 0.40248,0.85051 1.17551,3.22501 1.7178,5.2767 0.54234,2.05169 1.19097,4.2899 1.44141,4.97379 0.25047,0.68391 0.39263,1.91129 0.31598,2.72749 -0.14991,1.5955 1.48618,4.83209 3.24898,6.42739 1.11428,1.00844 1.45589,3.777 0.466,3.777 -0.31911,0 -0.44172,0.13857 -0.27236,0.30793 0.60605,0.60601 -1.09539,1.68159 -2.66014,1.68159 -1.70904,0 -5.52748,-0.98088 -5.93742,-1.52522 -0.13678,-0.18163 -0.72454,-0.47857 -1.30612,-0.65992 -0.82242,-0.25635 -1.12209,-0.0826 -1.3481,0.78169 -0.15981,0.61123 -0.4475,0.95442 -0.63928,0.76268 -0.19174,-0.19179 -0.91403,0.48942 -1.60504,1.51383 -1.93223,2.8645 -4.24688,4.37733 -5.7908,3.78491 -0.807,-0.30973 -1.03574,-2.43339 -0.31036,-2.88168 0.24202,-0.14961 0.55935,-0.8902 0.70513,-1.64588 0.14578,-0.75561 0.52454,-2.26914 0.84166,-3.36338 0.63516,-2.19185 0.96836,-8.94124 0.48033,-9.73083 -0.56264,-0.91041 -1.90372,0.0911 -2.25328,1.68268 -0.1894,0.86221 -0.62874,2.01857 -0.97636,2.56966 -0.34762,0.55115 -0.78338,1.72815 -0.9684,2.61557 -0.18503,0.88748 -0.71055,1.82295 -1.1679,2.0789 -0.45739,0.25596 -0.72637,0.53707 -0.5978,0.62471 0.33434,0.2278 -2.93489,4.98793 -4.0423,5.88575 -0.51056,0.41397 -1.02366,1.19734 -1.14015,1.74083 -0.43381,2.02388 -2.17484,8.27749 -2.35449,8.45715 -0.10247,0.10251 -0.49818,-0.007 -0.87932,-0.24193 z m -11.46401,-10.7444 c 0,-0.0979 -0.42566,-0.40581 -0.94592,-0.68424 -0.79845,-0.4273 -0.90712,-0.35782 -0.69707,0.4455 0.14752,0.56418 0.53268,0.84276 0.94591,0.68419 0.38338,-0.14712 0.69708,-0.34756 0.69708,-0.44545 z m -10.68178,-3.65713 c -0.1802,-0.56776 -0.53155,-1.03227 -0.78079,-1.03227 -0.24928,0 -0.19786,0.5605 0.1143,1.24554 0.66161,1.45215 1.14592,1.29717 0.66649,-0.21327 z m 18.11795,0.24073 c 0.32703,-0.39408 0.91399,-0.59392 1.30433,-0.44416 0.39035,0.14981 0.70971,0.0244 0.70971,-0.27823 0,-0.30286 -0.23168,-0.55061 -0.51488,-0.55061 -0.34205,0 -0.32852,-0.34821 0.0403,-1.03733 0.30534,-0.57059 0.4456,-1.14701 0.3116,-1.28095 -0.13394,-0.134 -0.39323,0.2279 -0.57611,0.80416 -0.18289,0.57627 -0.92846,1.60037 -1.65682,2.27572 -0.72831,0.67534 -1.0742,1.22792 -0.76851,1.22792 0.30564,0 0.82332,-0.32245 1.15039,-0.71652 z m -45.50697,-1.736 c 0.1574,-0.25466 0.0586,-0.60363 -0.21933,-0.77542 -0.27802,-0.17184 -0.50549,0.0363 -0.50549,0.46301 0,0.87364 0.29845,1.00227 0.72482,0.31241 z m 0.76732,-3.79407 c 0,-0.70006 -0.20281,-1.14746 -0.45069,-0.99426 -0.24788,0.15319 -0.33368,0.72593 -0.19068,1.2728 0.35789,1.36853 0.64137,1.24544 0.64137,-0.27854 z m 47.25107,0.57995 c 0,-0.38109 -0.33244,-0.82043 -0.7388,-0.97636 -0.61795,-0.23715 -0.63904,-0.1238 -0.12902,0.69285 0.72389,1.15914 0.86782,1.20615 0.86782,0.28351 z m -3.81719,-0.82431 c -0.69667,-0.67619 -7.80578,-1.47807 -8.15101,-0.91941 -0.16891,0.27331 -0.77507,0.53215 -1.347,0.57522 -0.57194,0.0433 -0.93557,0.24715 -0.80805,0.45346 0.12748,0.20632 0.79805,0.15986 1.49006,-0.10326 1.73516,-0.65972 3.33473,-0.59869 4.84492,0.18478 1.31662,0.6831 4.70377,0.52036 3.97108,-0.19079 z m -43.09412,-3.05252 c -0.15877,-0.39676 -0.27663,-0.27893 -0.3005,0.30052 -0.0215,0.52429 0.096,0.81809 0.26124,0.6528 0.16527,-0.16527 0.18294,-0.59426 0.0393,-0.95332 z m 12.4345,-22.3821 c -0.15878,-0.39675 -0.27663,-0.27892 -0.3005,0.30052 -0.0216,0.52429 0.096,0.81809 0.26123,0.65282 0.16528,-0.16529 0.18295,-0.59428 0.0393,-0.95334 z m 7.95807,-53.21963 c -0.15876,-0.39676 -0.27665,-0.27893 -0.30052,0.30051 -0.0214,0.52429 0.096,0.81809 0.26128,0.65282 0.16527,-0.16529 0.18293,-0.59428 0.0393,-0.95333 z m -22.85656,-36.51599 c -0.16527,-0.16528 -0.59427,-0.18294 -0.95331,-0.0393 -0.39678,0.15881 -0.27892,0.27664 0.3005,0.30052 0.52432,0.0214 0.81809,-0.096 0.65281,-0.26123 z M 102.38883,702.65939 c 0.1525,-2.39181 0.15012,-2.39584 -1.33934,-2.25169 -0.82068,0.0794 -1.878555,0.63893 -2.350868,1.24345 -0.472306,0.60446 -1.319547,1.60265 -1.882731,2.21816 -1.120945,1.22509 -1.080357,1.25389 1.5956,1.13119 1.375649,-0.0631 1.999459,0.17363 2.478239,0.94024 0.62138,0.99501 0.65003,0.997 0.99307,0.0697 0.19433,-0.52524 0.42203,-2.03319 0.50603,-3.35104 z m 283.65932,-59.34605 c 0.16905,-0.27357 -0.0548,-0.49738 -0.49738,-0.49738 -0.44263,0 -0.66644,0.22381 -0.49738,0.49738 0.16905,0.27355 0.39288,0.49738 0.49738,0.49738 0.1045,0 0.32832,-0.22383 0.49738,-0.49738 z m 0.114,-1.29528 c -0.16529,-0.16528 -0.59427,-0.18294 -0.95334,-0.0393 -0.39675,0.15881 -0.27892,0.27664 0.30053,0.30052 0.52428,0.0214 0.81809,-0.0959 0.65281,-0.26123 z m 170.23858,159.24269 c 0,-0.42645 0.22382,-0.77541 0.49738,-0.77541 0.27356,0 0.49738,0.21059 0.49738,0.46803 0,0.2574 -0.22382,0.60636 -0.49738,0.77542 -0.27356,0.16906 -0.49738,-0.0413 -0.49738,-0.46804 z m -47.7092,-61.24849 c 0.0239,-0.57945 0.14173,-0.69728 0.3005,-0.30052 0.14368,0.35906 0.12602,0.78805 -0.0393,0.95333 -0.16528,0.16528 -0.28283,-0.12852 -0.26123,-0.65281 z m 3.93977,-3.93761 c 0,-0.41034 0.2168,-0.74607 0.48178,-0.74607 0.26497,0 0.35293,0.33573 0.19547,0.74607 -0.15746,0.41034 -0.37426,0.74607 -0.48177,0.74607 -0.10751,0 -0.19548,-0.33573 -0.19548,-0.74607 z m -40.28776,-9.20152 c 0,-1.03749 0.38608,-1.1971 1.68737,-0.69778 0.66415,0.25486 0.67497,0.39602 0.0762,0.99476 -0.99286,0.99287 -1.76358,0.8631 -1.76358,-0.29698 z m 26.85851,-0.77542 c 0,-0.4265 0.22747,-0.63486 0.50549,-0.46301 0.27802,0.17179 0.37673,0.52075 0.21934,0.77541 -0.42637,0.68987 -0.72483,0.56125 -0.72483,-0.3124 z m -1.49214,-0.71672 c 0,-0.27356 0.22382,-0.49738 0.49738,-0.49738 0.27356,0 0.49738,0.22382 0.49738,0.49738 0,0.27355 -0.22382,0.49738 -0.49738,0.49738 -0.27356,0 -0.49738,-0.22383 -0.49738,-0.49738 z M 480.6108,719.0394 c 0.46845,-1.95272 0.68558,-2.01832 0.68558,-0.20727 0,0.86629 -0.22809,1.57506 -0.50686,1.57506 -0.3009,0 -0.37351,-0.55582 -0.17872,-1.36779 z M 70.327981,684.03675 c 0.337421,-0.3399 0.738761,-0.49275 0.891898,-0.3396 0.153099,0.15314 -0.122946,0.43127 -0.613467,0.61804 -0.708863,0.26993 -0.76596,0.21278 -0.278431,-0.27844 z m 11.323695,-8.39373 c -0.169054,-0.27355 -0.07039,-0.49738 0.219345,-0.49738 0.289674,0 0.526725,0.22383 0.526725,0.49738 0,0.27356 -0.09868,0.49738 -0.219345,0.49738 -0.120612,0 -0.357663,-0.22382 -0.526725,-0.49738 z M 554.51227,650.46183 c 0.43512,-1.19068 0.71185,-1.4241 1.17948,-0.99476 0.44975,0.41287 0.45984,0.61501 0.0382,0.76591 -0.31499,0.11281 -0.84575,0.56045 -1.17947,0.99476 -0.48211,0.6275 -0.48996,0.47018 -0.0382,-0.76591 z M 105.55894,634.38387 c -0.71046,-0.25794 -0.79661,-0.45121 -0.32972,-0.7398 0.34762,-0.21482 0.87743,-0.14523 1.1773,0.15464 0.73383,0.73384 0.32996,1.01266 -0.84758,0.58516 z m -5.42194,-6.00292 c -0.775467,-0.23258 -1.704026,-0.30997 -2.063581,-0.17205 -0.359503,0.13798 -0.803668,0.008 -0.987048,-0.28853 -0.183335,-0.29668 -0.541701,-0.41063 -0.79636,-0.25326 -0.59974,0.37064 -0.581189,-0.31221 0.03433,-1.26469 0.321406,-0.49738 0.484701,-0.53881 0.489772,-0.12435 0.0052,0.34195 0.343338,0.62173 0.753678,0.62173 0.410339,0 0.746069,-0.25804 0.746069,-0.57348 0,-0.31543 0.394571,-0.11857 0.876781,0.43745 0.647143,0.74617 1.361979,0.97248 2.729319,0.86394 1.59789,-0.12678 1.75575,-0.0501 1.14826,0.55732 -0.78546,0.78547 -0.93279,0.79531 -2.93126,0.19592 z m -10.221406,-1.67657 c -0.766012,-0.42461 -0.986307,-0.78119 -0.621725,-1.0065 0.310515,-0.19188 0.813415,-0.19512 1.117564,-0.007 0.304149,0.18796 0.772879,0.0334 1.041661,-0.34369 0.369751,-0.51857 0.415359,-0.46008 0.187464,0.24029 -0.254906,0.78337 -0.109078,0.87753 0.947858,0.61227 0.686976,-0.17244 1.249068,-0.11151 1.249068,0.13534 0,0.24689 -0.503596,0.58382 -1.119105,0.74875 -1.444789,0.38721 -1.411914,0.39164 -2.802785,-0.3793 z m -7.763007,-2.28576 c -0.174284,-0.28196 0.02536,-0.36537 0.468035,-0.19552 0.861662,0.33066 1.01928,0.68718 0.303849,0.68718 -0.257389,0 -0.604759,-0.22128 -0.771884,-0.49166 z M 66.236438,622.4291 c -0.174284,-0.28196 0.02536,-0.36537 0.468034,-0.19552 0.861656,0.33066 1.019281,0.68718 0.30385,0.68718 -0.257397,0 -0.604767,-0.22128 -0.771884,-0.49166 z m -2.49043,-0.5031 c -0.169063,-0.27355 -0.07039,-0.49738 0.219344,-0.49738 0.289667,0 0.526725,0.22383 0.526725,0.49738 0,0.27356 -0.09868,0.49738 -0.219344,0.49738 -0.12062,0 -0.357671,-0.22382 -0.526725,-0.49738 z M 445.48503,551.29807 c 0,-0.27356 0.22382,-0.49738 0.49738,-0.49738 0.27356,0 0.49738,0.22382 0.49738,0.49738 0,0.27356 -0.22382,0.49738 -0.49738,0.49738 -0.27356,0 -0.49738,-0.22382 -0.49738,-0.49738 z m -150.66684,-50.0281 c 0.0239,-0.57945 0.14176,-0.69728 0.30052,-0.30052 0.14369,0.35906 0.12603,0.78804 -0.0393,0.95333 -0.16528,0.16528 -0.28281,-0.12853 -0.26122,-0.65281 z"
       id="path3046"
       inkscape:connector-curvature="0" />
  </g>
</svg>
