<?xml version="1.0" encoding="UTF-8" standalone="no"?>
<!-- Created with Inkscape (http://www.inkscape.org/) -->

<svg
   xmlns:dc="http://purl.org/dc/elements/1.1/"
   xmlns:cc="http://creativecommons.org/ns#"
   xmlns:rdf="http://www.w3.org/1999/02/22-rdf-syntax-ns#"
   xmlns:svg="http://www.w3.org/2000/svg"
   xmlns="http://www.w3.org/2000/svg"
   xmlns:sodipodi="http://sodipodi.sourceforge.net/DTD/sodipodi-0.dtd"
   xmlns:inkscape="http://www.inkscape.org/namespaces/inkscape"
   width="700"
   height="700"
   id="svg3893"
   version="1.1"
   inkscape:version="0.48.4 r9939"
   sodipodi:docname="blepheraceridae.svg">
  <defs
     id="defs3895" />
  <sodipodi:namedview
     id="base"
     pagecolor="#ffffff"
     bordercolor="#666666"
     borderopacity="1.0"
     inkscape:pageopacity="0.0"
     inkscape:pageshadow="2"
     inkscape:zoom="0.35"
     inkscape:cx="380.71429"
     inkscape:cy="520"
     inkscape:document-units="px"
     inkscape:current-layer="layer1"
     showgrid="false"
     inkscape:window-width="1170"
     inkscape:window-height="850"
     inkscape:window-x="182"
     inkscape:window-y="79"
     inkscape:window-maximized="0" />
  <metadata
     id="metadata3898">
    <rdf:RDF>
      <cc:Work
         rdf:about="">
        <dc:format>image/svg+xml</dc:format>
        <dc:type
           rdf:resource="http://purl.org/dc/dcmitype/StillImage" />
        <dc:title />
      </cc:Work>
    </rdf:RDF>
  </metadata>
  <g
     inkscape:label="Layer 1"
     inkscape:groupmode="layer"
     id="layer1"
     transform="translate(0,-352.36218)">
    <path
       style="fill:#000063;fill-opacity:1"
       d="m 333.89114,953.88739 c -3.16477,-1.46635 -4.22221,-2.7349 -4.68329,-5.61836 -0.24403,-1.526 -0.67271,-2.77462 -0.95263,-2.77462 -0.27992,0 -0.93242,-3.67653 -1.45,-8.17001 -0.8128,-7.0566 -0.79681,-8.54669 0.11727,-10.9333 1.53847,-4.01694 1.30801,-6.29708 -0.66477,-6.57726 -0.88786,-0.12604 -2.07099,0.22748 -2.62917,0.78562 -0.55817,0.5582 -3.05796,1.43552 -5.55508,1.94971 -2.49711,0.51412 -4.93167,1.2388 -5.41013,1.61039 -0.47845,0.37158 -3.41023,0.84978 -6.51508,1.06257 -5.51296,0.3779 -5.68987,0.33868 -7.5541,-1.67176 -1.04992,-1.13233 -1.90894,-2.59976 -1.90894,-3.26092 0,-0.66123 -0.36003,-1.32225 -0.80005,-1.46893 -1.26395,-0.42135 -1.92956,-6.85407 -1.35716,-13.11617 0.5881,-6.4338 3.11624,-16.33127 4.26977,-16.71576 0.41535,-0.13852 0.75519,-0.70805 0.75519,-1.26576 0,-0.5577 1.14276,-2.22459 2.53947,-3.7042 1.39671,-1.47962 2.72217,-3.41607 2.94548,-4.30328 0.2233,-0.88721 0.78325,-1.61311 1.24435,-1.61311 0.46109,0 1.39083,-0.64524 2.06607,-1.43388 1.05227,-1.22897 2.86324,-1.85715 3.61671,-1.25464 0.12327,0.0986 1.81703,-1.14846 3.76392,-2.77118 1.94689,-1.62271 4.26569,-3.17689 5.15291,-3.4537 1.62038,-0.50566 1.93285,-1.65276 1.19675,-4.39333 -0.27348,-1.01826 -1.40041,-1.74574 -3.62667,-2.34116 -2.75214,-0.73608 -3.75248,-0.67829 -6.76281,0.39088 -3.35671,1.19219 -3.70758,1.19277 -7.0346,0.0107 -2.55447,-0.90728 -5.74883,-1.24367 -11.80904,-1.24367 -7.18244,0 -8.8198,-0.22906 -12.09172,-1.69183 -4.39415,-1.96441 -6.10725,-4.40745 -6.37073,-9.0854 -0.20114,-3.57114 0.65478,-7.86316 1.56809,-7.86316 0.32716,0 0.8115,-1.15491 1.07632,-2.56649 0.26481,-1.41158 0.92468,-2.73663 1.46636,-2.94447 0.54168,-0.20791 0.98488,-0.78784 0.98488,-1.28884 0,-0.50107 0.48819,-1.31608 1.08487,-1.81134 0.59668,-0.49519 1.0206,-1.26059 0.94204,-1.70086 -0.24982,-1.40026 0.94525,-6.89453 1.49965,-6.89453 0.29302,0 0.99056,-0.88721 1.55009,-1.97158 0.55953,-1.08437 1.66256,-2.67253 2.4512,-3.52927 5.02112,-5.45468 7.21389,-7.40404 8.32848,-7.40404 0.69605,0 1.44042,-0.2829 1.65415,-0.62875 0.21373,-0.34585 1.92653,-1.00837 3.80623,-1.4723 4.82849,-1.19177 7.36081,-2.39658 7.36081,-3.50217 0,-0.52344 0.49977,-1.45145 1.11061,-2.06228 0.61084,-0.61083 1.29641,-2.03954 1.5235,-3.17496 0.22708,-1.13541 0.6248,-2.06442 0.88382,-2.06442 0.25902,0 0.53879,-0.8196 0.62169,-1.82138 0.0829,-1.00171 1.04049,-2.65403 2.12796,-3.67173 l 1.9772,-1.85034 -8.60325,0.46034 c -12.90659,0.69063 -25.28657,1.70108 -30.1114,2.45767 -3.95514,0.62022 -5.76265,0.48809 -13.43786,-0.98206 -6.44814,-1.23514 -10.23771,-9.32436 -7.10787,-15.17256 0.45646,-0.85294 0.82994,-2.16766 0.82994,-2.9216 0,-2.34718 2.17532,-6.00973 7.54522,-12.70371 6.86278,-8.55497 7.89016,-9.67865 8.84921,-9.67865 0.44664,0 0.81328,-0.24197 0.81475,-0.53771 10e-4,-0.29573 1.85655,-2.03935 4.1224,-3.8747 2.26584,-1.83536 4.92627,-4.04855 5.91206,-4.91822 2.10338,-1.8556 8.68738,-5.00813 10.4594,-5.00813 0.67709,0 4.6951,-0.86768 8.92891,-1.92818 7.04359,-1.7643 7.62893,-2.0385 6.88718,-3.22622 -0.44585,-0.71393 -1.21697,-1.29804 -1.71359,-1.29804 -0.49662,0 -0.90295,-0.32263 -0.90295,-0.71694 0,-0.39432 -0.80655,-0.71694 -1.79234,-0.71694 -1.11524,0 -1.79235,-0.40627 -1.79235,-1.07541 0,-0.59147 -0.27749,-1.0754 -0.61665,-1.0754 -1.16154,0 -5.91346,-4.99438 -6.20823,-6.525 -0.37025,-1.92255 1.60241,-5.85153 2.74455,-5.46637 0.84821,0.28606 3.3634,-3.12901 3.3634,-4.56675 0,-1.10476 -1.88577,-2.79921 -3.11527,-2.79921 -0.58678,0 -1.25507,-0.40328 -1.48509,-0.89617 -0.33456,-0.71694 -0.50185,-0.71694 -0.83642,0 -0.23002,0.49289 -1.28797,0.89617 -2.35101,0.89617 -1.11035,0 -2.37257,0.61015 -2.96628,1.43388 -1.0648,1.47732 -5.01857,2.04214 -5.01857,0.71693 0,-1.44235 -2.34501,-0.66068 -4.30163,1.43388 -1.10504,1.18295 -2.52497,2.15081 -3.15539,2.15081 -0.63043,0 -1.14624,0.32263 -1.14624,0.71694 0,0.39432 -1.29048,0.71694 -2.86775,0.71694 -1.57726,0 -2.86775,-0.32262 -2.86775,-0.71694 0,-0.39431 -1.14053,-0.71694 -2.5345,-0.71694 -1.39398,0 -3.31553,-0.51174 -4.27011,-1.1372 -0.95457,-0.62546 -2.0724,-0.92905 -2.48405,-0.67463 -0.41166,0.25442 -0.74847,0.19968 -0.74847,-0.12165 0,-0.78402 -3.32329,-2.16814 -6.63168,-2.76204 -1.47868,-0.26544 -2.68851,-0.76934 -2.68851,-1.11977 0,-0.35043 -0.66829,-0.63715 -1.48509,-0.63715 -3.18437,0 -4.4666,-3.30366 -4.29886,-11.07593 0.10064,-4.66302 1.95195,-10.80335 3.57006,-11.841 0.32896,-0.21096 1.4639,-1.67404 2.52208,-3.2513 4.80936,-7.16856 19.02014,-22.11259 22.27535,-23.42473 1.18295,-0.47683 2.41407,-1.29858 2.73582,-1.8261 0.57743,-0.94672 4.03117,-3.29389 8.7312,-5.93373 1.32648,-0.74504 4.45101,-1.72214 6.94339,-2.17134 2.49238,-0.44919 5.49947,-1.42009 6.68242,-2.15757 2.78042,-1.73338 6.09397,-5.95544 6.09397,-7.76483 0,-0.85801 -2.25523,-3.4504 -5.73533,-6.59275 -6.22335,-5.61937 -7.45518,-8.04011 -7.25189,-14.25108 0.12698,-3.87947 -1.11561,-7.93014 -2.43268,-7.93014 -0.53346,0 -1.07304,-0.6949 -1.19904,-1.54422 -0.50717,-3.41855 -16.72994,-5.07797 -28.54815,-2.92018 -1.77442,0.32398 -4.36434,0.54757 -5.75538,0.49686 -2.84382,-0.10367 -6.43256,-2.13598 -6.43256,-3.64277 0,-0.72791 -1.07297,-0.99295 -4.01987,-0.99295 -3.27866,0 -3.94377,0.19829 -3.60719,1.07541 0.22697,0.59147 0.0837,1.07541 -0.31834,1.07541 -0.93546,0 -2.61651,-4.01838 -2.8493,-6.81091 -0.22197,-2.66295 0.72458,-7.52785 1.46467,-7.52785 0.30115,0 0.73638,-0.9442 0.96718,-2.09822 0.60349,-3.01747 9.62289,-11.7068 14.67845,-14.14127 4.67493,-2.25118 7.88268,-4.47733 11.96631,-8.30449 1.57727,-1.4782 3.91628,-3.03799 5.1978,-3.46619 1.28153,-0.4282 2.33005,-1.26934 2.33005,-1.86918 0,-1.14218 3.9862,-5.25061 5.09439,-5.25061 0.35261,0 0.64112,-0.32263 0.64112,-0.71694 0,-0.39432 -0.89665,-0.71694 -1.99255,-0.71694 -1.17009,0 -2.41912,-0.59185 -3.02602,-1.43388 -0.56842,-0.78863 -1.36554,-1.43427 -1.77138,-1.43475 -1.25375,-0.001 -4.49603,-3.16794 -4.78132,-4.66951 -0.17638,-0.92832 -0.94875,-1.50197 -2.22015,-1.64892 -1.07231,-0.12393 -2.52136,-0.93542 -3.22009,-1.80332 -1.19876,-1.48898 -8.91169,-6.93307 -9.82246,-6.93307 -0.66599,0 -4.28668,-3.7249 -5.947,-6.11818 -2.54586,-3.66972 -2.73306,-6.7934 -0.65312,-10.89796 1.65113,-3.25834 2.36756,-3.85891 7.76858,-6.51222 3.27234,-1.60756 6.91758,-3.15274 8.10053,-3.43371 2.39353,-0.56851 4.52558,-2.64223 5.03228,-4.89465 1.51725,-6.74446 1.62974,-8.3183 0.99427,-13.91086 -0.81168,-7.1433 0.39561,-12.19498 3.41497,-14.2893 0.98427,-0.68273 2.82179,-2.10023 4.08337,-3.15001 1.26158,-1.04978 3.89653,-2.758 5.85545,-3.79605 1.95892,-1.03804 5.17478,-3.43179 7.14636,-5.31943 1.97158,-1.88764 6.13918,-5.31958 9.26134,-7.62655 3.12216,-2.30696 7.47634,-5.91002 9.67597,-8.00681 2.19962,-2.09678 4.3262,-3.81233 4.72572,-3.81233 0.39953,0 1.12938,-0.64525 1.62189,-1.43388 0.49251,-0.78863 1.26045,-1.43387 1.70653,-1.43387 0.44608,0 1.23964,-0.56459 1.76346,-1.25464 1.07006,-1.40963 1.32954,-4.48087 0.37858,-4.48087 -0.34069,0 -1.53048,-1.31464 -2.64398,-2.92143 -1.67922,-2.4231 -1.84871,-3.03268 -0.99367,-3.5737 2.22865,-1.41019 3.54964,-1.10898 8.20947,1.87187 2.1134,1.35192 4.32687,3.14952 4.91882,3.99464 0.93687,1.33758 1.5696,1.48878 4.88502,1.16741 2.46967,-0.23939 5.54531,0.0855 8.74801,0.92415 3.45639,0.90506 5.46136,1.09484 6.67835,0.63214 3.03408,-1.15355 6.76058,-0.72068 10.89677,1.26577 3.4185,1.64177 5.12648,1.96048 11.54018,2.15339 7.92991,0.23851 10.36599,-0.36809 10.98503,-2.73531 0.4868,-1.86155 3.09938,-1.69971 4.32726,0.26806 0.55361,0.88721 1.18924,3.29115 1.41248,5.34209 0.3223,2.9609 1.19546,4.88185 4.23912,9.32609 2.10826,3.07841 4.54198,7.04625 5.40825,8.81743 0.86627,1.77118 2.62668,4.34951 3.91203,5.72961 3.55595,3.81813 8.00927,9.93427 10.55738,14.4994 1.25984,2.25708 4.21797,5.96724 6.57363,8.24479 6.2425,6.0355 7.78905,8.95722 7.78905,14.71493 0,2.59186 -0.56459,6.59629 -1.25464,8.89874 -0.69006,2.30245 -1.18844,4.99282 -1.10752,5.97861 0.46983,5.72347 0.82623,7.78989 1.58949,9.21607 0.46866,0.87569 0.66279,2.18863 0.43141,2.91764 -0.32116,1.01189 0.32139,1.76038 2.71585,3.16362 1.72509,1.01098 3.93567,2.90264 4.91238,4.20371 3.21902,4.28799 5.7201,12.1703 4.16638,13.13055 -0.3846,0.23771 -0.69928,1.05839 -0.69928,1.82375 0,0.76536 -0.48394,1.39156 -1.07541,1.39156 -0.59147,0 -1.07541,0.32263 -1.07541,0.71694 0,0.39432 -0.45704,0.71694 -1.01566,0.71694 -0.55861,0 -1.13565,0.35997 -1.28231,0.79994 -0.14665,0.43996 -2.35123,0.91834 -4.89907,1.06306 -3.03578,0.17244 -4.26893,0.0337 -3.57779,-0.40248 1.62561,-1.02598 0.52308,-1.55094 -4.14655,-1.97437 -3.91067,-0.35461 -4.32244,-0.25624 -4.76505,1.13826 -0.26645,0.83952 -0.94665,1.5264 -1.51155,1.5264 -2.18088,0 -0.82679,2.55455 4.13615,7.80303 2.88186,3.04768 6.21729,5.84292 7.54878,6.32622 2.33412,0.84722 4.49449,2.50498 4.49449,3.44884 0,0.26069 0.6775,1.0226 1.50557,1.69313 1.03982,0.842 1.50557,2.0419 1.50557,3.87884 0,1.86328 0.31589,2.65971 1.05492,2.65971 2.14968,0 3.4787,2.26882 5.03958,8.60326 0.5344,2.16873 1.15733,4.6471 1.38429,5.50748 1.1544,4.37631 -7.5519,7.55558 -17.03466,6.22052 -7.42135,-1.04484 -32.49949,-0.75406 -33.88144,0.39287 -1.86205,1.54536 -1.44975,4.77867 0.81534,6.3941 1.51771,1.0824 2.01683,2.08391 2.16814,4.35045 0.11076,1.65918 -0.12394,2.94434 -0.5377,2.94434 -0.40385,0 -0.73426,0.94883 -0.73426,2.1085 0,1.15968 -0.28096,2.28215 -0.62434,2.49437 -0.34339,0.21223 -0.81509,1.27979 -1.04822,2.37236 -0.26054,1.22099 -1.80199,3.0916 -4.00008,4.85425 -3.48106,2.79146 -4.72625,5.37704 -2.58954,5.37704 0.58191,0 2.04191,1.08122 3.24443,2.40271 2.12057,2.33033 2.39823,2.41658 9.21855,2.86354 6.65567,0.43618 9.58738,1.03002 13.72265,2.77968 4.3391,1.83589 6.71641,3.19849 8.79003,5.03818 1.22226,1.08437 2.40615,1.97307 2.63087,1.9749 0.22471,0.002 1.37644,0.89272 2.55939,1.97977 1.18294,1.08705 2.95737,2.38882 3.94316,2.89282 3.26924,1.67146 4.64109,2.63262 6.59909,4.62352 1.06644,1.08437 2.36169,1.97158 2.87833,1.97158 0.51665,0 2.32581,1.43063 4.02037,3.17917 6.5149,6.72245 9.351,21.35223 4.90584,25.30635 -2.13727,1.90117 -8.31046,3.18135 -11.26076,2.33521 -2.5662,-0.73598 -8.12724,-0.3901 -18.97235,1.18003 -3.94316,0.57088 -10.55691,1.40087 -14.69723,1.84441 -4.14032,0.44354 -7.67982,0.93161 -7.86556,1.0846 -0.71566,0.58947 1.88109,1.61262 4.11938,1.62309 1.80195,0.008 2.49733,0.4043 2.991,1.70274 0.35377,0.93047 1.53256,2.33962 2.61955,3.13143 1.80842,1.31735 1.98326,1.85889 2.05783,6.37379 0.0702,4.24943 -0.14655,5.16249 -1.56188,6.57982 -0.90386,0.90513 -1.64338,1.92727 -1.64338,2.27142 0,1.44092 0.93838,2.89379 1.86905,2.89379 0.54928,0 0.9987,0.24407 0.9987,0.54238 0,0.79157 5.32977,2.32636 8.05426,2.31935 2.5337,-0.006 12.15139,2.22182 12.73694,2.95104 0.19716,0.24553 1.16503,0.67914 2.15082,0.96357 1.89169,0.54583 9.51037,5.39143 9.91764,6.30778 0.13144,0.29574 0.8546,0.53771 1.60703,0.53771 0.75244,0 1.77102,0.64524 2.26353,1.43387 0.4925,0.78863 1.31646,1.43388 1.83101,1.43388 0.51454,0 1.74209,0.80655 2.72788,1.79234 0.98579,0.98579 2.06364,1.79235 2.3952,1.79235 1.18307,0 7.74458,6.87631 10.09072,10.57483 1.31319,2.07016 2.61929,3.76393 2.90244,3.76393 0.56054,0 1.26757,2.91603 1.87283,7.72421 0.26408,2.09783 -0.009,3.90659 -0.86517,5.7355 -2.46801,5.27064 -7.10343,7.49165 -16.10273,7.71547 -8.69628,0.2163 -17.90421,1.15571 -18.34678,1.87178 -0.20802,0.33661 -1.08509,0.61041 -1.94903,0.60847 -3.09773,-0.007 -8.23959,2.34754 -9.06035,4.14892 -0.93249,2.04657 -0.37151,4.45785 1.03711,4.45785 1.75552,0 1.98077,2.74028 0.40694,4.95053 -1.84027,2.58442 -1.84607,2.93579 -0.0485,2.93579 0.78863,0 1.43387,0.2943 1.43387,0.65392 0,0.35968 1.29049,0.87194 2.86776,1.13842 1.57726,0.26649 2.86775,0.77874 2.86775,1.13843 0,0.35969 0.57888,0.65392 1.2864,0.65392 0.70752,0 3.85309,1.2831 6.99015,2.8514 5.28103,2.64013 8.2604,4.88952 11.15551,8.4223 0.63259,0.77193 1.77497,1.85802 2.53862,2.4135 1.91123,1.39029 4.44914,5.13314 5.40322,7.96848 0.4371,1.29895 1.13616,2.79649 1.55346,3.32781 0.4173,0.5314 0.85404,1.59067 0.97054,2.354 0.11649,0.76332 0.7458,2.20288 1.39847,3.199 0.72473,1.10609 1.30077,3.81783 1.4798,6.9662 0.37302,6.56005 -0.82897,8.64405 -6.67293,11.56951 -3.5224,1.76324 -4.96645,2.08514 -8.73115,1.94613 -3.12034,-0.11521 -4.99518,0.17278 -6.08237,0.93431 -1.84246,1.29049 -4.12034,1.45051 -4.12034,0.28943 0,-0.55025 -0.98051,-0.66016 -3.04699,-0.34148 -1.67584,0.25839 -4.81905,0.65048 -6.98492,0.8713 -2.16586,0.22089 -4.12909,0.71084 -4.36273,1.08888 -0.23364,0.37804 -1.36517,0.93883 -2.51451,1.24626 -1.39251,0.37237 -2.08971,1.02006 -2.08971,1.94118 0,1.11362 0.59209,1.42513 3.04699,1.60271 1.67584,0.12124 3.04698,0.49892 3.04698,0.83918 0,0.34033 0.96417,0.83057 2.1426,1.08939 1.17843,0.25881 2.32664,0.76841 2.55159,1.13233 0.22496,0.36399 1.19283,0.6618 2.15084,0.6618 0.95801,0 2.43682,0.56459 3.28625,1.25464 4.67172,3.79519 6.32837,5.40794 6.67405,6.49711 0.2114,0.66604 1.28924,1.61153 2.39521,2.10106 1.41472,0.62624 2.80978,2.46376 4.70574,6.19822 1.48219,2.91951 2.78379,6.06758 2.89246,6.99573 0.10866,0.92822 0.47049,2.30804 0.80406,3.06642 0.34816,0.7915 0.26978,3.34444 -0.18401,5.99367 -0.88005,5.13772 -2.59004,7.5267 -6.58554,9.20047 -3.4125,1.4295 -11.7352,1.98025 -16.89009,1.11777 -3.49288,-0.58444 -4.61547,-0.51913 -5.97096,0.34758 -1.13153,0.72346 -1.51403,1.4543 -1.18727,2.26853 0.26513,0.66073 0.65738,2.97572 0.87166,5.14446 0.21427,2.16874 0.8292,5.19357 1.3665,6.7218 2.0433,5.81178 0.51806,18.48545 -2.55377,21.22014 -0.67591,0.60173 -1.4347,1.64903 -1.68618,2.32733 -0.98532,2.65761 -4.92133,2.37406 -14.27642,-1.02852 -1.06057,-0.38572 -2.21488,-0.52423 -2.56513,-0.30778 -0.35026,0.21651 -2.32187,0.58624 -4.38137,0.82175 -3.06971,0.35094 -4.28641,0.93847 -6.75117,3.26013 -1.65365,1.55762 -3.42301,2.83205 -3.93191,2.83205 -0.50892,0 -1.78694,0.56459 -2.84006,1.25464 -1.35536,0.88807 -3.44257,1.27027 -7.14416,1.30813 -2.87616,0.0294 -5.22939,-0.21258 -5.22939,-0.53771 0,-0.32513 -0.46875,-0.59118 -1.04167,-0.59118 -2.08396,0 -4.73802,-1.71879 -5.1425,-3.33032 -0.85445,-3.40438 -8.65115,-3.0852 -13.16073,0.53878 -1.66865,1.34096 -3.08004,1.95293 -3.83557,1.663 -0.81972,-0.31459 -1.19542,-0.0852 -1.19542,0.72992 0,2.33313 -7.69962,4.50603 -10.82892,3.05609 z m 83.61663,-201.98556 2.07912,-2.17012 -1.34094,-2.48998 c -2.66844,-4.95498 -6.71099,-2.38606 -5.80043,3.686 0.57662,3.84515 2.04155,4.12703 5.06225,0.9741 z m -55.72053,-27.4023 c 0.1976,-2.32322 0.0683,-2.53698 -1.31525,-2.17517 -1.05225,0.27518 -1.25922,0.57132 -0.65868,0.94247 0.50258,0.31061 0.72119,1.34949 0.51307,2.43823 -0.23156,1.2113 -0.0727,1.80193 0.43954,1.63396 0.4412,-0.1447 0.90079,-1.42246 1.02132,-2.83949 z m -15.6561,-110.40972 c -0.0125,-0.88721 -0.45832,-2.18718 -0.99062,-2.88882 -0.86954,-1.14617 -1.01283,-1.15841 -1.41107,-0.12059 -0.95073,2.47755 -0.49105,4.62252 0.99061,4.62252 1.01578,0 1.42723,-0.47036 1.41108,-1.61311 z m 75.40012,-82.62174 c -0.30543,-1.22215 -0.43531,-1.13571 -0.89908,0.59837 -0.29814,1.11479 -0.33555,2.56417 -0.0832,3.22086 0.36825,0.95807 0.54589,0.83984 0.89909,-0.59837 0.24209,-0.98579 0.2795,-2.43518 0.0831,-3.22086 z m -2.24965,-3.55632 c 0,-1.11109 -1.80504,-3.97689 -2.50487,-3.97689 -1.70795,0 -1.78807,1.03534 -0.20146,2.60326 1.53173,1.51368 2.70633,2.10986 2.70633,1.37363 z m -2.73848,-15.44789 c 1.03497,0 1.33175,-0.32905 1.02284,-1.13405 -0.23935,-0.62372 -0.43517,-1.43028 -0.43517,-1.79234 0,-0.36207 -0.35714,-0.6583 -0.79364,-0.6583 -0.4365,0 -0.60795,0.48393 -0.38097,1.0754 0.24141,0.62912 0.0104,1.07541 -0.55662,1.07541 -1.04568,0 -1.99292,2.48638 -1.23778,3.24903 0.25285,0.25536 0.56404,-0.0486 0.69153,-0.67543 0.12749,-0.62685 0.88791,-1.13972 1.68981,-1.13972 z m -13.03415,0.71693 c 0,-0.39431 -0.32262,-0.71693 -0.71694,-0.71693 -0.39432,0 -0.71694,0.32262 -0.71694,0.71693 0,0.39432 0.32262,0.71694 0.71694,0.71694 0.39432,0 0.71694,-0.32262 0.71694,-0.71694 z m 8.60325,-4.30162 c 0,-0.39432 -0.64524,-0.71694 -1.43387,-0.71694 -0.78863,0 -1.43388,0.32262 -1.43388,0.71694 0,0.39431 0.64525,0.71693 1.43388,0.71693 0.78863,0 1.43387,-0.32262 1.43387,-0.71693 z m 2.86776,-6.00235 c 0,-0.59335 1.1381,-1.16577 2.86775,-1.44235 1.57726,-0.25221 2.86775,-0.63911 2.86775,-0.85978 0,-1.04855 -2.17377,-2.39578 -3.21867,-1.99482 -0.74434,0.28564 -1.56084,-0.10106 -2.22969,-1.05598 -0.58041,-0.82865 -2.17294,-2.037 -3.53897,-2.68522 -1.36602,-0.64822 -2.48368,-1.46444 -2.48368,-1.81383 0,-0.34938 -0.96786,-0.63525 -2.15081,-0.63525 -1.91184,0 -2.15082,0.23898 -2.15082,2.15082 0,1.18294 0.32263,2.15081 0.71694,2.15081 0.39432,0 0.71694,0.51158 0.71694,1.13683 0,1.93914 4.45524,5.9728 6.63168,6.00415 1.20673,0.0173 1.97158,-0.35324 1.97158,-0.95538 z m -11.38694,-31.0992 c -0.93372,-1.71439 -5.81958,-6.35748 -5.81958,-5.5304 0,0.56643 5.70765,6.69377 6.29843,6.76158 0.11246,0.0129 -0.10303,-0.54112 -0.47885,-1.23118 z m -13.34742,-3.76392 c 0.2437,-0.39432 -0.17769,-0.71694 -0.93641,-0.71694 -0.75873,0 -2.14892,-0.57345 -3.0893,-1.27434 -2.25243,-1.67878 -5.5839,-2.72519 -11.95701,-3.75568 -6.09213,-0.98506 -9.37457,-0.52757 -8.01019,1.1164 0.4774,0.57523 1.42567,1.04587 2.10728,1.04587 0.68161,0 4.43292,0.78361 8.33624,1.74134 6.199,1.52102 8.48825,1.97931 12.25243,2.45287 0.46962,0.0591 1.05325,-0.2152 1.29696,-0.60952 z m 5.37703,-5.7355 c 0,-0.39432 -0.14227,-0.71694 -0.31616,-0.71694 -0.17388,0 -0.51555,0.32262 -0.75925,0.71694 -0.2437,0.39431 -0.10143,0.71693 0.31616,0.71693 0.41759,0 0.75925,-0.32262 0.75925,-0.71693 z m -51.71456,-1.8513 c 1.55171,-0.50513 -1.89317,-2.78147 -5.84643,-3.86326 -3.57375,-0.97794 -21.7099,-0.73978 -23.40416,0.30734 -1.41583,0.87503 0.46928,2.37984 3.65565,2.91817 7.39039,1.2486 22.55755,1.62652 25.59494,0.63775 z m -36.46881,-0.58128 c 0,-0.15497 -0.48393,-0.46747 -1.07541,-0.69444 -0.59147,-0.22697 -1.07541,-0.10017 -1.07541,0.28177 0,0.38193 0.48394,0.69443 1.07541,0.69443 0.59148,0 1.07541,-0.1268 1.07541,-0.28176 z m -5.35807,-1.73059 c -0.22073,-0.22074 -0.79923,-4.6e-4 -1.28556,0.48951 -0.70278,0.70806 -0.62044,0.79041 0.40134,0.40134 0.70706,-0.26923 1.10496,-0.67012 0.88422,-0.89085 z m 25.19335,-18.38166 c 0,-0.7831 -0.32151,-0.86461 -1.31439,-0.33324 -0.72291,0.38689 -1.31438,0.85339 -1.31438,1.03668 0,0.18329 0.59147,0.33325 1.31438,0.33325 0.72292,0 1.31439,-0.46651 1.31439,-1.03669 z m -62.13462,170.95099 c 0,-0.39432 0.32262,-0.71694 0.71694,-0.71694 0.39431,0 0.71693,0.32262 0.71693,0.71694 0,0.39431 -0.32262,0.71694 -0.71693,0.71694 -0.39432,0 -0.71694,-0.32263 -0.71694,-0.71694 z"
       id="path3042"
       inkscape:connector-curvature="0" />
  </g>
</svg>
