<?xml version="1.0" encoding="UTF-8" standalone="no"?>
<svg
   xmlns:dc="http://purl.org/dc/elements/1.1/"
   xmlns:cc="http://creativecommons.org/ns#"
   xmlns:rdf="http://www.w3.org/1999/02/22-rdf-syntax-ns#"
   xmlns:svg="http://www.w3.org/2000/svg"
   xmlns="http://www.w3.org/2000/svg"
   id="svg8"
   version="1.1"
   viewBox="0 0 30.238503 30.238466"
   height="114.28712"
   width="114.28726">
  <defs
     id="defs2" />
  <metadata
     id="metadata5">
    <rdf:RDF>
      <cc:Work
         rdf:about="">
        <dc:format>image/svg+xml</dc:format>
        <dc:type
           rdf:resource="http://purl.org/dc/dcmitype/StillImage" />
        <dc:title></dc:title>
      </cc:Work>
    </rdf:RDF>
  </metadata>
  <g
     transform="translate(-40.017475,-31.273401)"
     id="layer1" />
  <path
     d="m 27.590411,15.110424 a 12.499999,12.499999 0 0 1 -3.687904,8.865492 l -8.812095,-8.865492 z"
     id="path4747"
     style="opacity:1;fill:#5fad41;fill-opacity:1;stroke:#ffffff;stroke-width:0;stroke-linecap:butt;stroke-linejoin:round;stroke-miterlimit:4;stroke-dasharray:none;stroke-dashoffset:0;stroke-opacity:1" />
  <path
     transform="rotate(-45.278984)"
     style="opacity:1;fill:#3d2b3d;fill-opacity:1;stroke:#ffffff;stroke-width:0;stroke-linecap:butt;stroke-linejoin:round;stroke-miterlimit:4;stroke-dasharray:none;stroke-dashoffset:0;stroke-opacity:1"
     id="path4763"
     d="M 12.367054,21.372774 A 12.499999,12.499999 0 0 1 8.6791499,30.238266 L -0.13294522,21.372774 Z" />
  <path
     d="m -2.6846094,15.073818 a 12.499999,12.499999 0 0 1 -3.6879039,8.865493 l -8.8120947,-8.865493 z"
     id="path4765"
     style="opacity:1;fill:#e3b505;fill-opacity:1;stroke:#ffffff;stroke-width:0;stroke-linecap:butt;stroke-linejoin:round;stroke-miterlimit:4;stroke-dasharray:none;stroke-dashoffset:0;stroke-opacity:1"
     transform="rotate(-90.138608)" />
  <path
     transform="rotate(-135.37097)"
     style="opacity:1;fill:#95190c;fill-opacity:1;stroke:#ffffff;stroke-width:0;stroke-linecap:butt;stroke-linejoin:round;stroke-miterlimit:4;stroke-dasharray:none;stroke-dashoffset:0;stroke-opacity:1"
     id="path4767"
     d="M -8.9102221,-0.14723769 A 12.499999,12.499999 0 0 1 -12.598126,8.7182547 l -8.812095,-8.86549239 z" />
  <path
     d="m -2.5677805,-15.207923 a 12.499999,12.499999 0 0 1 -3.6879039,8.8654924 L -15.06778,-15.207923 Z"
     id="path4769"
     style="opacity:1;fill:#610345;fill-opacity:1;stroke:#ffffff;stroke-width:0;stroke-linecap:butt;stroke-linejoin:round;stroke-miterlimit:4;stroke-dasharray:none;stroke-dashoffset:0;stroke-opacity:1"
     transform="rotate(179.69646)" />
  <path
     transform="rotate(134.802)"
     style="opacity:1;fill:#107e7d;fill-opacity:1;stroke:#ffffff;stroke-width:0;stroke-linecap:butt;stroke-linejoin:round;stroke-miterlimit:4;stroke-dasharray:none;stroke-dashoffset:0;stroke-opacity:1"
     id="path4771"
     d="m 12.545034,-21.390528 a 12.499999,12.499999 0 0 1 -3.6879042,8.865493 l -8.81209516,-8.865493 z" />
  <path
     d="m 27.562538,-15.155868 a 12.499999,12.499999 0 0 1 -3.687904,8.8654928 l -8.812095,-8.8654928 z"
     id="path4773"
     style="opacity:1;fill:#044b7f;fill-opacity:1;stroke:#ffffff;stroke-width:0;stroke-linecap:butt;stroke-linejoin:round;stroke-miterlimit:4;stroke-dasharray:none;stroke-dashoffset:0;stroke-opacity:1"
     transform="rotate(90.10547)" />
  <path
     transform="rotate(44.893983)"
     style="opacity:1;fill:#f86624;fill-opacity:1;stroke:#ffffff;stroke-width:0;stroke-linecap:butt;stroke-linejoin:round;stroke-miterlimit:4;stroke-dasharray:none;stroke-dashoffset:0;stroke-opacity:1"
     id="path4775"
     d="M 33.852956,0.03073982 A 12.499999,12.499999 0 0 1 30.165052,8.8962322 L 21.352957,0.03073982 Z" />
</svg>
