<?xml version="1.0" encoding="UTF-8" standalone="no"?>
<!-- Created with Inkscape (http://www.inkscape.org/) -->

<svg
   xmlns:dc="http://purl.org/dc/elements/1.1/"
   xmlns:cc="http://creativecommons.org/ns#"
   xmlns:rdf="http://www.w3.org/1999/02/22-rdf-syntax-ns#"
   xmlns:svg="http://www.w3.org/2000/svg"
   xmlns="http://www.w3.org/2000/svg"
   xmlns:sodipodi="http://sodipodi.sourceforge.net/DTD/sodipodi-0.dtd"
   xmlns:inkscape="http://www.inkscape.org/namespaces/inkscape"
   width="210mm"
   height="297mm"
   viewBox="0 0 210 297"
   version="1.1"
   id="svg8"
   inkscape:version="0.92.3 (2405546, 2018-03-11)"
   sodipodi:docname="locate-me.svg">
  <defs
     id="defs2" />
  <sodipodi:namedview
     id="base"
     pagecolor="#ffffff"
     bordercolor="#666666"
     borderopacity="1.0"
     inkscape:pageopacity="0.0"
     inkscape:pageshadow="2"
     inkscape:zoom="0.5979729"
     inkscape:cx="-536.69651"
     inkscape:cy="381.92477"
     inkscape:document-units="mm"
     inkscape:current-layer="layer1"
     showgrid="false"
     inkscape:window-width="1920"
     inkscape:window-height="1052"
     inkscape:window-x="1920"
     inkscape:window-y="0"
     inkscape:window-maximized="1" />
  <metadata
     id="metadata5">
    <rdf:RDF>
      <cc:Work
         rdf:about="">
        <dc:format>image/svg+xml</dc:format>
        <dc:type
           rdf:resource="http://purl.org/dc/dcmitype/StillImage" />
        <dc:title></dc:title>
      </cc:Work>
    </rdf:RDF>
  </metadata>
  <g
     inkscape:label="Layer 1"
     inkscape:groupmode="layer"
     id="layer1">
    <g
       id="g834"
       transform="translate(-275.21454,-35.397368)">
      <path
         style="fill:#26849c;fill-opacity:0.97435895;stroke-width:0.94019884"
         id="path815"
         d="M -16.42029,136.18536 H -29.194771 C -30.534555,121.94228 -41.901558,110.57528 -56.14369,109.23644 V 96.226906 h -5.641193 v 13.009534 c -14.243072,1.33884 -25.611016,12.70584 -26.949859,26.94892 h -12.773538 v 5.64119 h 12.774478 c 1.339783,14.24213 12.706787,25.60913 26.948919,26.94892 V 181.785 h 5.641193 v -13.00953 c 14.242132,-1.33979 25.609135,-12.70679 26.948919,-26.94892 h 12.774481 z m -42.543997,27.08618 c -13.379029,0 -24.265591,-10.88562 -24.265591,-24.26559 0,-13.37997 10.885622,-24.26559 24.265591,-24.26559 13.37997,0 24.264652,10.88562 24.264652,24.26559 0,13.37903 -10.885622,24.26559 -24.264652,24.26559 z"
         inkscape:connector-curvature="0" />
      <path
         sodipodi:nodetypes="sssss"
         style="fill:#26849c;fill-opacity:1;stroke-width:0.94019884"
         id="path817"
         d="m -58.964287,120.71062 c -10.087393,0 -18.295328,8.207 -18.295328,18.29533 0,10.08834 8.206995,18.29533 18.295328,18.29533 10.088334,0 18.294389,-8.20793 18.294389,-18.29533 0,-10.08739 -8.206995,-18.29533 -18.294389,-18.29533 z"
         inkscape:connector-curvature="0" />
    </g>
  </g>
</svg>
