<?xml version="1.0" encoding="UTF-8" standalone="no"?>
<!-- Created with Inkscape (http://www.inkscape.org/) -->

<svg
   xmlns:dc="http://purl.org/dc/elements/1.1/"
   xmlns:cc="http://creativecommons.org/ns#"
   xmlns:rdf="http://www.w3.org/1999/02/22-rdf-syntax-ns#"
   xmlns:svg="http://www.w3.org/2000/svg"
   xmlns="http://www.w3.org/2000/svg"
   xmlns:sodipodi="http://sodipodi.sourceforge.net/DTD/sodipodi-0.dtd"
   xmlns:inkscape="http://www.inkscape.org/namespaces/inkscape"
   width="744.09448819"
   height="1052.3622047"
   id="svg2"
   version="1.1"
   inkscape:version="0.48.3.1 r9886"
   sodipodi:docname="New document 1">
  <defs
     id="defs4" />
  <sodipodi:namedview
     id="base"
     pagecolor="#ffffff"
     bordercolor="#666666"
     borderopacity="1.0"
     inkscape:pageopacity="0.0"
     inkscape:pageshadow="2"
     inkscape:zoom="0.87081594"
     inkscape:cx="380.71429"
     inkscape:cy="815.90141"
     inkscape:document-units="px"
     inkscape:current-layer="layer1"
     showgrid="false"
     inkscape:window-width="1069"
     inkscape:window-height="861"
     inkscape:window-x="41"
     inkscape:window-y="59"
     inkscape:window-maximized="0" />
  <metadata
     id="metadata7">
    <rdf:RDF>
      <cc:Work
         rdf:about="">
        <dc:format>image/svg+xml</dc:format>
        <dc:type
           rdf:resource="http://purl.org/dc/dcmitype/StillImage" />
        <dc:title></dc:title>
      </cc:Work>
    </rdf:RDF>
  </metadata>
  <g
     inkscape:label="Layer 1"
     inkscape:groupmode="layer"
     id="layer1">
    <path
       style="fill:#000000"
       d="m 24.646467,120.28538 c -3.07787,-2.87642 -7.69037,-6.50261 -10.25,-8.05821 -3.29324,-2.00144 -4.6538703,-3.47789 -4.6538703,-5.05 0,-2.80791 1.7836603,-4.62164 4.5450103,-4.62164 1.17976,0 2.88909,-0.82219 3.79851,-1.82709 1.54943,-1.712098 1.49721,-1.973908 -0.8297,-4.159928 -5.62402,-5.28349 -4.06375,-14.55264 3.82263,-22.70928 4.23863,-4.38388 6.91082,-6.0537 14.918,-9.3221 5.36494,-2.18988 10.62588,-3.9816 11.69098,-3.9816 1.0651,0 2.17714,-0.3893 2.4712,-0.8651 0.71303,-1.1537 9.8222,-2.86627 22.08337,-4.15178 5.5,-0.57664 12.475,-1.5449 15.5,-2.1517 5.08543,-1.0201 7.31602,-1.37026 10.85359,-1.7038 0.86305,-0.0814 0.23407,-1.40269 -1.73555,-3.64596 -3.98711,-4.54107 -4.62066,-7.33179 -3.24578,-14.29727 1.0473,-5.30586 3.04017,-8.26029 6.391123,-9.47486 0.97995,-0.35519 0.97717,-0.88764 -0.0134,-2.56531 -2.95023,-4.9967 -0.76892,-9.8612 4.829253,-10.76966 3.56111,-0.57788 6.07658,0.7688 7.20561,3.85758 0.32376,0.88573 1.1125,0.59337 2.61696,-0.97003 6.08781,-6.3262997 14.17179,-1.84632 11.12566,6.16561 -0.59589,1.56731 -0.95835,2.95968 -0.80546,3.09416 0.26697,0.23483 6.41321,1.73643 13.77798,3.36613 4.74526,1.05005 8.67403,3.22989 13.83061,7.67377 5.8744,5.06249 6.67742,7.50131 4.26535,12.9542 -2.9302,6.62418 -5.95205,7.74509 -22.33873,8.28616 l -13.74277,0.45377 2.6517,4.87205 c 1.45845,2.67962 3.05593,4.87204 3.54997,4.87204 2.7275,0 10.56295,-2.50666 12.28389,-3.92977 1.1,-0.90963 3.63627,-2.39084 5.63616,-3.29159 3.37868,-1.52174 3.87435,-1.51878 7,0.0418 2.29248,1.14462 3.44569,2.47577 3.62083,4.17954 l 0.257,2.5 -1.62897,-2.25 c -1.98308,-2.73912 -7.77524,-3.06584 -11.24662,-0.63439 l -2.30662,1.61562 3.28028,3.38438 c 3.64726,3.76302 5.77165,4.16192 9.42312,1.76938 2.23146,-1.46211 2.46482,-1.46544 2.46482,-0.0352 0,2.06378 -3.06483,3.65019 -7.05191,3.65019 -2.39506,0 -4.20165,-1.01827 -7.29531,-4.11192 l -4.11192,-4.11192 -5.52043,1.96442 c -4.8654,1.73132 -5.55617,2.31861 -5.82167,4.94946 -0.25196,2.49667 0.44339,3.59523 4.25,6.71446 2.98166,2.44325 4.55124,4.5161 4.55124,6.01057 0,3.41794 6.94218,6.39905 10.75953,4.62035 2.9245,-1.36267 2.69846,-1.61957 -3.00953,-3.42051 -2.53572,-0.80004 -2.37195,-5.61491 0.19098,-5.61491 1.06754,0 2.2191,-0.45 2.55902,-1 0.87301,-1.41256 11.85254,-1.24746 13.3,0.2 1.73846,1.73846 1.48701,6.47589 -0.38179,7.19301 -0.86998,0.33384 -2.92154,0.60699 -4.55901,0.60699 -1.73018,0 -2.71836,0.41886 -2.3592,1 0.33992,0.55 0.2379,1 -0.2267,1 -0.4646,0 -0.84473,0.9 -0.84473,2 0,1.1 0.45,2 1,2 0.55,0 0.2123,0.7875 -0.75045,1.75 -1.20781,1.2075 -1.97174,1.40316 -2.46428,0.63115 -1.16904,-1.83233 -11.30201,-6.56129 -12.81507,-5.98068 -1.03035,0.39539 -1.39877,-0.36417 -1.39877,-2.88381 0,-2.90812 -0.6479,-3.86634 -4.32458,-6.39597 l -4.32459,-2.97539 -1.63028,3.5968 c -0.89665,1.97824 -1.31309,4.12918 -0.92541,4.77987 1.8718,3.1417 6.23122,7.47803 7.51786,7.47803 0.79316,0 2.0258,0.7033 2.73919,1.56288 1.13653,1.36944 0.96602,1.47979 -1.37756,0.89159 -2.96563,-0.74432 -3.555,0.56999 -1.15046,2.56559 0.83829,0.69572 1.28359,1.50551 0.98956,1.79954 -0.90359,0.903598 -6.51373,-5.08309 -6.51373,-6.95093 0,-0.96643 -1.09669,-3.01974 -2.43708,-4.56291 -2.21412,-2.54907 -2.58256,-2.66278 -4.02716,-1.24289 -1.44086,1.41621 -1.4455,1.9089 -0.0495,5.25 0.84732,2.02792 2.2361,3.68713 3.08618,3.68713 0.85008,0 1.29702,0.40219 0.99322,0.89377 -0.30381,0.49157 0.16412,2.60859 1.03984,4.704488 1.46712,3.51131 1.4648,3.70497 -0.0295,2.46479 -1.39514,-1.15787 -1.53374,-1.11657 -0.99187,0.29551 0.35021,0.91272 0.1384,1.64144 -0.47714,1.64144 -0.60885,0 -1.10699,-0.45 -1.10699,-1 0,-0.55 -0.40787,-1 -0.90638,-1 -0.49851,0 -0.71082,1.0125 -0.47179,2.25 0.39581,2.04924 0.32905,2.02694 -0.74828,-0.25 l -1.18286,-2.5 -0.66936,3 c -0.57658,2.58417 -0.73883,2.23764 -1.17052,-2.5 -0.3783,-4.151758 -0.13053,-5.805628 1.01076,-6.746788 1.34665,-1.11051 1.3353,-1.61716 -0.10382,-4.63501 l -1.61572,-3.38822 -5.82102,2.72649 c -3.20155,1.49957 -7.95682,3.58533 -10.567263,4.63501 -4.45824,1.79271 -4.74648,2.13249 -4.75,5.599498 -0.004,4.01093 1.74466,6.00997 3.11516,3.56103 2.04529,-3.65474 8.670933,-2.88174 10.893363,1.27091 2.62167,4.89863 -3.29336,8.47708 -14.012273,8.47708 l -6.5,0 -0.11641,-3 c -0.16939,-4.36548 1.34568,-7.81787 3.13031,-7.13304 1.0969,0.42092 1.4861,-0.16355 1.4861,-2.23168 0,-3.647498 -0.61393,-4.148168 -3.83501,-3.127538 -1.46574,0.464438 -4.91499,1.161778 -7.66499,1.549648 -4.72262,0.6661 -4.84744,0.75803 -2.25,1.65725 2.84765,0.98583 3.49168,2.20894 1.73485,3.29472 -0.87574,0.54124 -3.98485,6.92013 -3.98485,8.17562 0,0.24241 0.9584,0.29995 2.12978,0.12788 3.17234,-0.46601 6.25946,4.02094 4.97675,7.23341 l -0.97976,2.45373 -0.0787,-2.5 c -0.10655,-3.38475 -1.53252,-5.41181 -3.32354,-4.72453 -0.97824,0.37538 -1.33412,1.52255 -1.05344,3.39571 0.41749,2.78613 0.40126,2.77977 -1.07533,-0.42118 -0.82457,-1.7875 -2.20047,-3.25 -3.05757,-3.25 -1.23959,0 -0.94272,-1.15368 1.45134,-5.64004 2.82461,-5.29321 2.9021,-5.72303 1.26008,-6.98956 -1.21844,-0.93981 -4.33014,-1.27678 -10.24961,-1.10996 l -8.5,0.23956 -0.18955,4.25 c -0.16076,3.60433 0.1051,4.25 1.75,4.25 1.23113,0 1.93955,0.68618 1.93955,1.87868 0,1.20591 1.16384,2.3098 3.25,3.08259 5.46407,2.02406 6.25,2.66836 6.25,5.12363 0,1.67637 -0.79592,2.64685 -2.72801,3.32633 -2.32283,0.81689 -3.39931,0.47731 -7.24767,-2.28638 -4.87912,-3.50392 -6.52432,-3.39444 -6.52432,0.43417 0,1.77431 -0.54623,2.44098 -2,2.44098 -1.55254,0 -2,-0.66667 -2,-2.97976 0,-4.599 2.87975,-11.00361 4.64334,-10.32686 1.2018,0.46117 1.41911,-0.34217 1.16676,-4.31333 l -0.3101,-4.88005 -13.5,-0.59831 c -7.425,-0.32907 -15.10386,-0.92596 -17.06413,-1.32642 -2.64142,-0.53961 -3.88946,-0.33612 -4.82076,0.78604 -1.0546,1.2707 -0.77934,1.76096 1.71203,3.0493 1.63277,0.84434 5.08062,2.00846 7.6619,2.58693 2.58128,0.57848 6.26043,1.7066 8.1759,2.50693 4.29112,1.79295 3.95665,3.64458 -1.7269,9.56001 -2.16592,2.2543 -3.93804,4.512 -3.93804,5.01712 0,1.77995 -1.55613,0.82564 -7.09613,-4.35175 z m 11.65251,-6.06318 c 0.88565,-1.00834 1.42382,-2.0198 1.19592,-2.2477 -0.2279,-0.2279 -3.95717,-1.32046 -8.28728,-2.42792 -6.95546,-1.7789 -7.97191,-1.83667 -8.72236,-0.49569 -1.17456,2.09882 -4.74266,0.13982 -4.74266,-2.60387 0,-2.48898 -3.31053,-2.23309 -3.79711,0.2935 -0.20998,1.09037 1.25509,2.58514 4.25951,4.34584 2.51878,1.4761 6.70764,4.45076 9.3086,6.61036 l 4.729,3.92654 2.22304,-2.78387 c 1.22268,-1.53112 2.94767,-3.60886 3.83334,-4.61719 z m -11.83156,1.1826 c -2.99525,-2.44659 -3.53809,-3.36934 -2.62756,-4.46647 1.52389,-1.83617 3.90274,-1.76474 3.90274,0.1172 0,1.68421 1.12235,1.95026 2.55,0.60448 0.56126,-0.52907 1.97301,-0.46674 3.45,0.15232 2.06598,0.86593 2.19406,1.12134 0.73776,1.4712 -0.96924,0.23285 -1.493,0.85902 -1.16391,1.39149 0.60003,0.97087 -1.26888,3.90989 -2.44629,3.84698 -0.34516,-0.0184 -2.32639,-1.42118 -4.40274,-3.1172 z m 67.07518,-4.04927 c 0.93333,-0.93333 1.46667,-0.93333 2.4,0 1.69403,1.69403 9.292783,1.51609 10.760133,-0.25196 1.75798,-2.11823 0.85789,-4.99967 -1.67483,-5.36163 -1.20685,-0.17247 -3.554383,0.69199 -5.216743,1.92102 -2.51594,1.86012 -3.42857,2.04957 -5.44574,1.13048 -2.7192,-1.23895 -3.62282,-0.75787 -3.62282,1.92876 0,2.11331 1.07653,2.35681 2.8,0.63333 z M 58.713687,96.305532 c 1.65636,-2.8875 3.29147,-6.71747 3.6336,-8.51105 0.34212,-1.79357 1.06923,-3.53742 1.61581,-3.87523 0.58607,-0.36221 0.76417,0.15513 0.43412,1.26105 -0.3078,1.03138 -0.86976,3.22523 -1.24878,4.87523 -0.37902,1.65 -1.79315,4.9125 -3.14251,7.25 l -2.45337,4.249998 3.84502,-0.0136 c 6.957,-0.0247 9.5405,-1.795998 10.91914,-7.486348 0.13325,-0.55 0.93307,-2.61197 1.77737,-4.58216 0.8443,-1.97019 1.82523,-5.79519 2.17985,-8.5 0.8195,-6.25079 -2.4354,-15.50535 -6.92253,-19.68263 -2.77386,-2.58231 -3.62314,-2.83647 -7.88263,-2.35896 -6.69024,0.75 -7.56458,1.53205 -4.51166,4.03543 3.64162,2.98611 5.4925,7.21124 6.17204,14.08936 l 0.59269,5.99891 -1.293,-5.5 c -1.63193,-6.9417 -3.898,-11.2348 -7.37299,-13.96823 -2.79258,-2.19664 -2.95609,-2.19536 -11.67348,0.0919 l -3.86022,1.01282 1.99737,2.18178 c 6.55211,7.15703 9.13479,22.01417 5.17581,29.77442 l -1.92962,3.782358 3.23844,0.40246 c 7.61488,0.94634 7.55511,0.97161 10.70953,-4.527468 z m -14.40335,0.14269 c 1.42605,-2.25901 2.83534,-5.60172 3.13174,-7.42824 0.74317,-4.5796 -3.11753,-16.78158 -6.51153,-20.58013 l -2.73936,-3.06588 -3.7243,1.77599 c -3.46672,1.65317 -4.91446,3.40557 -2.8135,3.40557 0.50094,0 1.85094,1.94208 3,4.31572 2.48295,5.12909 2.73346,14.15233 0.56037,20.18428 -1.97884,5.492788 -1.97555,5.499998 2.5163,5.499998 3.58187,0 4.25117,-0.41777 6.58028,-4.107308 z m 35.73321,2.62246 c 3.85589,-0.52444 4.98314,-1.13217 5.72647,-3.08728 0.50904,-1.33887 1.81674,-4.39065 2.906,-6.78172 4.37106,-9.59507 4.52961,-22.84269 0.34114,-28.50431 -2.8287,-3.8236 -5.9085,-4.81859 -13.52456,-4.36934 -7.71438,0.45504 -8.47283,1.60005 -3.71291,5.60526 4.16176,3.50189 5.96291,8.36084 5.96291,16.08614 0,6.13221 -2.94677,17.62763 -5.12329,19.9861 -1.44767,1.56869 -0.99228,2.716688 0.87329,2.201448 0.9625,-0.265828 3.91043,-0.777168 6.55095,-1.136298 z m -46.71018,-3.51515 c 1.71795,-4.7832 1.71464,-15.3333 -0.006,-19.45163 -2.11902,-5.07152 -4.90285,-6.17005 -8.72994,-3.44492 -6.76297,4.81566 -10.6403,14.69164 -7.82974,19.94321 1.85235,3.46115 8.17463,7.04192 11.89187,6.73524 2.89599,-0.23893 3.60848,-0.81544 4.67393,-3.7819 z m 60.25213,0.42322 c 6.953083,-1.48701 9.984303,-3.59182 11.942693,-8.29275 3.77113,-9.05222 4.52795,-13.56366 3.3742,-20.11362 -1.22066,-6.92978 -4.16386,-11.72878 -7.74431,-12.62742 -1.348463,-0.33844 -4.966073,-0.3012 -8.039133,0.0828 l -5.58739,0.6981 2.85552,2.97875 c 2.65907,2.77381 2.87931,3.62643 3.20131,12.39323 0.31479,8.57031 0.0682,10.14145 -2.75,17.52155 -3.59879,9.4243 -3.58348,9.33731 -1.50289,8.53891 0.8761,-0.33619 2.7886,-0.86696 4.25,-1.1795 z m 17.946943,-7.33849 c 5.84311,-3.01634 10.92239,-8.94816 12.26002,-14.31783 1.54716,-6.21076 0.60151,-10.48644 -3.25871,-14.73401 -2.64233,-2.90747 -4.05001,-3.57075 -8.72104,-4.10926 -3.06356,-0.35318 -5.72224,-0.51586 -5.90817,-0.3615 -0.18593,0.15436 0.71407,1.70602 2,3.44814 2.12665,2.88107 2.33567,4.17671 2.31165,14.32861 -0.0206,8.68529 -0.41444,11.88206 -1.77568,14.41112 -2.04166,3.79324 -1.83957,3.88048 3.09193,1.33473 z m 39.0978,-37.52663 c 5.06203,-2.61768 7.14115,-7.26726 5.02106,-11.2287 -1.95465,-3.6523 -14.44582,-10.8311 -21.4087,-12.3038 -3.3,-0.69797 -7.36152,-1.60012 -9.02561,-2.00476 -1.66408,-0.40464 -7.06408,-0.82315 -12,-0.93002 -13.12476,-0.28418 -16.491883,1.91272 -18.071463,11.79087 -1.05568,6.60186 3.79293,13.08542 11.740253,15.69906 5.86331,1.92826 39.56143,1.14048 43.74446,-1.02265 z m -37.90295,-30.8081 c -0.0124,-1.81944 -0.20082,-1.96296 -0.98469,-0.75 -1.25292,1.93876 -1.25292,3 0,3 0.55,0 0.99311,-1.0125 0.98469,-2.25 z m 11.20029,-0.0151 c 1.11179,-1.75038 1.00048,-5.50229 -0.18498,-6.23494 -0.55,-0.33992 -1,-0.14679 -1,0.42916 0,0.57596 -1.8,1.33504 -4,1.68683 -4.19041,0.67007 -5.25837,2.70908 -2.75,5.25046 1.46168,1.48091 6.75509,0.72609 7.93498,-1.13151 z m -5.96728,-0.88944 c 0.24642,-0.74003 1.25007,-1.50098 2.23033,-1.69101 1.14002,-0.22099 1.62085,0.13938 1.33427,1 -0.24642,0.74003 -1.25007,1.50099 -2.23033,1.69101 -1.14002,0.221 -1.62085,-0.13937 -1.33427,-1 z m -9.15196,1.11931 c 2.15861,-1.15525 2.5723,-4.92677 0.74126,-6.75781 -0.924,-0.924 -1.65682,-0.76338 -3.25,0.71234 -1.13135,1.04793 -3.01341,2.05728 -4.18236,2.243 -1.75161,0.27828 -1.9771,0.73333 -1.28223,2.58766 0.92553,2.46986 4.58613,3.02759 7.97333,1.21481 z m -4.06574,-1.96481 c 0,-0.55 0.675,-1 1.5,-1 0.825,0 1.5,0.45 1.5,1 0,0.55 -0.675,1 -1.5,1 -0.825,0 -1.5,-0.45 -1.5,-1 z m -0.5,-5 c 0.33992,-0.55 0.16803,-1 -0.38197,-1 -0.55,0 -1.27811,0.45 -1.61803,1 -0.33992,0.55 -0.16803,1 0.38197,1 0.55,0 1.27811,-0.45 1.61803,-1 z m 16.95729,0.0691 c 1.00667,-1.62881 -0.90682,-1.94478 -2.90945,-0.48042 -1.88358,1.3773 -1.87871,1.41132 0.20201,1.41132 1.17267,0 2.39101,-0.41891 2.70744,-0.9309 z m 39.54271,68.48992 c 0,-1.95746 0.45,-3.55902 1,-3.55902 0.55,0 1,1.32344 1,2.94098 0,1.61754 -0.45,3.2191 -1,3.55902 -0.59512,0.3678 -1,-0.82295 -1,-2.94098 z"
       id="path2996"
       inkscape:connector-curvature="0" />
  </g>
</svg>
