<?xml version="1.0" encoding="UTF-8" standalone="no"?>
<!-- Created with Inkscape (http://www.inkscape.org/) -->

<svg
   xmlns:dc="http://purl.org/dc/elements/1.1/"
   xmlns:cc="http://creativecommons.org/ns#"
   xmlns:rdf="http://www.w3.org/1999/02/22-rdf-syntax-ns#"
   xmlns:svg="http://www.w3.org/2000/svg"
   xmlns="http://www.w3.org/2000/svg"
   xmlns:sodipodi="http://sodipodi.sourceforge.net/DTD/sodipodi-0.dtd"
   xmlns:inkscape="http://www.inkscape.org/namespaces/inkscape"
   width="461.93781"
   height="222.50972"
   id="svg4002"
   version="1.1"
   inkscape:version="0.48.4 r9939"
   sodipodi:docname="athericidae.svg">
  <defs
     id="defs4004" />
  <sodipodi:namedview
     id="base"
     pagecolor="#ffffff"
     bordercolor="#666666"
     borderopacity="1.0"
     inkscape:pageopacity="0.0"
     inkscape:pageshadow="2"
     inkscape:zoom="0.35"
     inkscape:cx="-282.60252"
     inkscape:cy="22.683448"
     inkscape:document-units="px"
     inkscape:current-layer="layer1"
     showgrid="false"
     inkscape:window-width="1920"
     inkscape:window-height="1021"
     inkscape:window-x="0"
     inkscape:window-y="27"
     inkscape:window-maximized="1"
     fit-margin-top="0"
     fit-margin-left="0"
     fit-margin-right="0"
     fit-margin-bottom="0" />
  <metadata
     id="metadata4007">
    <rdf:RDF>
      <cc:Work
         rdf:about="">
        <dc:format>image/svg+xml</dc:format>
        <dc:type
           rdf:resource="http://purl.org/dc/dcmitype/StillImage" />
        <dc:title />
      </cc:Work>
    </rdf:RDF>
  </metadata>
  <g
     inkscape:label="Layer 1"
     inkscape:groupmode="layer"
     id="layer1"
     transform="translate(-154.74538,-332.5359)">
    <path
       style="fill:#000063;fill-opacity:1"
       d="m 293.02929,553.80027 c -1.7374,-0.8655 -2.287,-2.3107 -2.8391,-7.46633 -0.4479,-4.1823 -1.3262,-7.0347 -2.5398,-8.2483 -1.0203,-1.0203 -2.1621,-3.5676 -2.5375,-5.6608 -0.8067,-4.4987 -2.6688,-6.8982 -6.0027,-7.7349 -1.3345,-0.335 -2.4264,-1.0504 -2.4264,-1.5899 0,-0.5396 -0.585,-0.981 -1.3,-0.981 -0.715,0 -1.8339,-0.5339 -2.4864,-1.1864 -0.6526,-0.6526 -2.2051,-1.3312 -3.45,-1.5082 -1.245,-0.1769 -3.0568,-1.2749 -4.0263,-2.44 -1.6288,-1.9574 -2.0962,-2.0248 -6.1562,-0.8881 -5.8302,1.6324 -11.9856,0.5237 -17.4546,-3.1436 -5.2232,-3.5025 -7.2918,-3.3369 -8.443,0.676 -0.4718,1.6447 -1.5349,5.1171 -2.3625,7.7166 -0.9699,3.0464 -1.2632,6.1565 -0.825,8.75 0.3739,2.213 0.2803,4.0237 -0.2081,4.0237 -1.6244,0 -3.2879,-2.3707 -3.2879,-4.6856 0,-1.2572 -0.5376,-4.2956 -1.1946,-6.7522 -0.9541,-3.5674 -0.9315,-4.958 0.1124,-6.9087 1.7654,-3.2985 -0.077,-8.8734 -3.71827,-11.255 -3.549,-2.3208 -5.1995,-4.0118 -5.1995,-5.3271 0,-0.5893 -1.0737,-1.0714 -2.386,-1.0714 -1.7517,0 -2.8353,-0.9467 -4.0756,-3.5604 -0.9292,-1.9582 -2.443,-3.8004 -3.364,-4.0937 -6.8339,-2.1768 -12.1327,-6.042 -14.7107,-10.7307 -0.57,-1.0366 -1.3102,-1.7116 -1.645,-1.5 -0.9094,0.5749 -4.8458,-3.2567 -6.28,-6.1128 -0.6911,-1.3763 -1.5142,-4.174 -1.829,-6.2171 -0.3652,-2.3696 -1.7873,-4.9296 -3.9274,-7.0697 -4.5289,-4.5289 -12.2223,-23.1286 -13.7391,-33.2156 -0.4135,-2.75 -1.573,-6.5582 -2.5768,-8.4627 -1.05,-1.9921 -2.1135,-6.8759 -2.5043,-11.5 -0.3735,-4.4205 -1.259,-9.2615 -1.9676,-10.7577 -0.9839,-2.0771 -1.0135,-3.0517 -0.1255,-4.1217 0.8689,-1.047 0.9131,-5.4163 0.175,-17.2796 -0.6049,-9.7222 -0.6339,-17.4121 -0.075,-19.8344 0.712,-3.0848 0.4856,-5.2254 -1.028,-9.7185 -3.1432,-9.3305 -2.2578,-13.7894 2.0121,-10.1333 1.4555,1.2462 2.0467,2.9581 2.0467,5.9265 0,3.5185 0.5498,4.6569 3.5,7.2473 1.925,1.6901 3.5,3.6117 3.5,4.2702 0,0.6585 0.273,0.9243 0.6066,0.5907 1.1874,-1.1875 12.1903,9.9877 17.9001,18.1805 2.2037,3.1619 4.7638,6.506 5.6891,7.4313 0.9253,0.9253 2.2502,3.2527 2.9442,5.1719 0.694,1.9192 1.7622,3.4895 2.3738,3.4895 1.5493,0 5.9338,4.8576 7.8977,8.75 0.9019,1.7875 2.2712,3.25 3.0428,3.25 0.7715,0 1.9975,0.5839 2.7243,1.2975 0.7268,0.7137 3.4305,2.7407 6.0082,4.5046 4.8074,3.2895 11.81317,11.018 11.81317,13.0318 0,0.6204 1.125,1.4104 2.5,1.7555 1.375,0.3451 2.5,1.0286 2.5,1.519 0,0.4904 1.1507,0.8916 2.5572,0.8916 5.0187,0 11.5048,2.2633 13.4035,4.6772 l 1.9089,2.4267 3.5597,-2.302 c 1.9578,-1.266 3.3581,-2.8467 3.1117,-3.5126 -0.3561,-0.9621 6.6289,-17.5379 8.0932,-19.206 1.328,-1.5127 1.3072,1.6066 -0.042,6.2465 -0.8759,3.0129 -1.5925,7.9963 -1.5925,11.0741 0,3.1909 -0.4449,5.5961 -1.0352,5.5961 -0.6971,0 -0.6807,0.6622 0.05,2.0278 0.9489,1.773 1.7082,1.9452 6.0439,1.37 4.2342,-0.5617 5.5052,-0.3006 8.6999,1.7867 2.4699,1.6138 5.0891,2.4187 7.7072,2.3686 3.6541,-0.07 4.0423,-0.3501 4.9385,-3.5645 0.535,-1.9187 1.332,-3.7365 1.771,-4.0395 0.6469,-0.4464 4.9409,-11.9957 7.5099,-20.1991 0.3014,-0.9625 1.1391,-1.75 1.8616,-1.75 1.0059,0 1.0957,0.7595 0.3833,3.2434 -0.5116,1.7839 -0.9302,8.2785 -0.9302,14.4326 0,10.5601 0.1205,11.2275 2.1431,11.8694 1.1788,0.3741 3.8788,0.1074 6,-0.5926 4.6065,-1.5203 10.443,-0.013 15.0887,3.8957 l 2.8582,2.405 6.3299,-3.2128 c 6.2759,-3.1855 6.3437,-3.2655 7.9544,-9.3768 0.8935,-3.3901 1.8917,-9.0889 2.2182,-12.6639 0.6064,-6.6395 2.8616,-13 4.6093,-13 0.6103,0 0.662,1.5872 0.1384,4.25 -1.192,6.0632 -0.7335,13.1504 1.236,19.1036 0.9364,2.8305 1.8456,5.6955 2.0204,6.3666 0.5581,2.1428 5.4338,2.6931 8.39,0.9468 1.5025,-0.8876 4.0327,-1.6835 5.6227,-1.7688 3.7365,-0.2004 11.7438,1.7159 15.6839,3.7534 2.7857,1.4406 3.3893,1.4474 6.1479,0.07 1.6824,-0.8403 3.7339,-1.8178 4.5589,-2.1722 0.825,-0.3544 3.3,-1.6624 5.5,-2.9066 3.2825,-1.8565 4.0576,-2.8794 4.3213,-5.7023 0.1767,-1.892 0.7392,-3.8675 1.25,-4.39 0.5108,-0.5225 0.9312,-4.5725 0.9343,-9 0.01,-8.1703 1.3972,-15.55 2.9321,-15.55 0.464,0 1.091,3.2625 1.3932,7.25 0.7532,9.9366 1.6823,16.1241 2.5131,16.7365 0.3832,0.2824 1.2296,1.7272 1.8808,3.2106 0.6513,1.4834 2.3662,3.4716 3.811,4.4183 2.4799,1.6248 2.8924,1.6257 7.3722,0.015 4.1314,-1.4857 5.7058,-1.5533 12.1687,-0.5226 4.0828,0.6511 8.2765,1.9058 9.3194,2.7881 1.4221,1.2032 2.0054,1.2918 2.3333,0.3543 0.2405,-0.6875 1.455,-1.25 2.699,-1.25 1.2439,0 3.1097,-0.9372 4.1463,-2.0826 1.0366,-1.1454 3.2438,-2.6583 4.905,-3.362 5.8107,-2.4614 6.8366,-4.6506 7.571,-16.1547 0.8928,-13.9871 3.5423,-16.921 4.6012,-5.0951 0.4036,4.5069 3.0012,16.8386 3.6277,17.2216 7.3397,4.4869 9.3434,5.0691 12.7128,3.6943 2.9877,-1.2192 4.1919,-1.1883 9.4654,0.2429 10.543,2.8612 11.2721,2.8925 15.0794,0.6461 1.9674,-1.1607 4.3617,-2.1105 5.3206,-2.1105 4.4524,0 6.8332,-2.3853 9.4346,-9.4527 1.4267,-3.876 2.8888,-8.2669 3.2492,-9.7575 0.6756,-2.7945 4.6819,-7.7898 6.2476,-7.7898 0.4865,0 0.054,3.2625 -0.9602,7.25 -1.0146,3.9875 -1.6583,8.0375 -1.4305,9 0.2279,0.9625 0.01,1.75 -0.4921,1.75 -2.2785,0 0.1251,7.9197 4.2846,14.1177 1.354,2.0175 2.8968,2.7689 6.7285,3.2772 5.1459,0.6827 7.712,2.3039 14.0159,8.8551 1.9846,2.0625 4.5435,3.75 5.6864,3.75 2.1261,0 8.7875,4.3419 11.2506,7.3333 2.147,2.6073 3.5991,2.0254 7.695,-3.0833 2.0946,-2.6125 4.6238,-5.555 5.6205,-6.539 0.9966,-0.9839 1.8121,-2.3742 1.8121,-3.0895 0,-1.3766 11.3077,-10.6215 12.9914,-10.6215 0.5438,0 -1.7275,5.4138 -5.0473,12.0306 -3.3198,6.6168 -6.4654,11.7653 -6.9901,11.441 -0.5247,-0.3243 -0.954,0.049 -0.954,0.8285 0,0.7799 -1.3443,4.069 -2.9873,7.309 -1.6431,3.24 -2.9931,7.3848 -3,9.2107 -0.012,3.063 3.5911,9.6411 7.3258,13.3759 0.7401,0.7401 1.8953,2.3727 2.5672,3.6281 0.6718,1.2553 3.5639,3.7808 6.4268,5.6122 2.8628,1.8313 6.7068,4.7324 8.5421,6.4469 1.8353,1.7144 3.9643,3.1171 4.7312,3.1171 0.7668,0 1.3942,0.9 1.3942,2 0,1.5899 -0.6665,1.9999 -3.25,1.9995 -7.7958,-10e-4 -19.069,-6.5969 -27.6676,-16.1876 -4.29,-4.7849 -6.6581,-4.8319 -13.0245,-0.2581 -2.7206,1.9547 -6.6592,3.8131 -8.7523,4.13 -2.0931,0.3168 -4.9306,1.5702 -6.3056,2.7853 -6.4306,5.6825 -8.9374,6.7969 -13.8299,6.1479 -4.0728,-0.5403 -4.8601,-0.343 -6.0159,1.5077 -3.8549,6.1726 -5.7972,26.3076 -2.6542,27.5137 2.1483,0.8244 1.8545,3.3616 -0.3892,3.3616 -3.271,0 -5.7549,-3.2799 -7.5731,-10 -0.9672,-3.575 -2.1881,-7.4249 -2.713,-8.5554 -0.5249,-1.1305 -0.8127,-2.6349 -0.6395,-3.3431 0.3368,-1.3775 -0.2208,-1.7526 -7.1852,-4.8338 -3.9454,-1.7456 -4.8697,-1.8279 -7.5,-0.6679 -12.8021,5.6457 -12.6175,5.5942 -15.6024,4.3578 -2.3601,-0.9776 -3.4911,-0.9038 -6.2558,0.4081 -2.701,1.2817 -3.4991,2.3534 -3.9973,5.3679 -1.2889,7.7984 -0.4484,13.5526 2.3759,16.2664 0.5774,0.5548 2.9796,5.8332 2.9796,6.5471 0,1.2771 -3.0505,0.126 -6.6172,-2.4969 -3.5626,-2.62 -4.1397,-3.6411 -5.1607,-9.1312 -0.6322,-3.3997 -1.8408,-6.9452 -2.6858,-7.8789 -0.845,-0.9337 -1.5363,-2.1845 -1.5363,-2.7796 0,-0.5952 -1.9886,-2.0447 -4.4191,-3.2213 -2.4305,-1.1766 -4.957,-2.7874 -5.6144,-3.5796 -1.704,-2.0531 -8.8185,0.224 -18.9665,6.0706 -1.375,0.7922 -4.7783,1.447 -7.5629,1.4551 -4.2423,0.012 -5.5025,0.4735 -7.7748,2.8453 -1.4915,1.5568 -2.8867,3.7385 -3.1004,4.8482 -1.3238,6.8736 -1.966,13.5094 -1.7561,18.1447 0.1564,3.4535 -0.1209,5.0998 -0.7895,4.6866 -2.1294,-1.3161 -3.8144,-6.2074 -4.1373,-12.0101 -0.4522,-8.128 -4.3817,-13.237 -12.2342,-15.9061 -3.0204,-1.0267 -6.2064,-1.5924 -7.08,-1.2571 -0.8737,0.3352 -2.7513,0.08 -4.1726,-0.5679 -2.1687,-0.9881 -2.7341,-0.9094 -3.5169,0.4895 -0.5131,0.9168 -3.8452,3.0568 -7.4047,4.7556 -5.0543,2.4123 -7.6245,3.0421 -11.735,2.8758 -5.3886,-0.218 -9.6136,1.2322 -9.8918,3.3954 -0.6269,4.8743 -0.8467,7.3875 -1.4406,16.4648 -0.3688,5.6375 -1.0446,10.25003 -1.5017,10.25003 -1.5838,0 -2.9251,-3.93743 -3.4762,-10.20393 -0.7977,-9.0723 -1.2762,-10.7961 -2.9964,-10.7961 -0.8431,0 -1.9849,-1.2965 -2.5373,-2.8812 -0.8064,-2.3131 -1.7667,-3.0031 -4.8706,-3.4995 -2.1264,-0.34 -5.2173,-1.755 -6.8686,-3.1445 -1.807,-1.5205 -3.2549,-2.118 -3.6364,-1.5006 -0.8508,1.3766 -4.1064,1.2985 -6.4327,-0.1542 -1.5434,-0.9639 -2.9605,-0.702 -7.7364,1.4302 -8.4626,3.7781 -10.9211,4.1714 -16.9839,2.7169 -6.1381,-1.4725 -6.9391,-1.0566 -7.7669,4.0329 -1.6641,10.2309 -1.7358,18.9624 -0.1741,21.1921 2.7039,3.86043 1.5502,4.79383 -3.0765,2.48913 z"
       id="path3048"
       inkscape:connector-curvature="0" />
  </g>
</svg>
