<?xml version="1.0" encoding="UTF-8" standalone="no"?>
<!-- Created with Inkscape (http://www.inkscape.org/) -->

<svg
   xmlns:dc="http://purl.org/dc/elements/1.1/"
   xmlns:cc="http://creativecommons.org/ns#"
   xmlns:rdf="http://www.w3.org/1999/02/22-rdf-syntax-ns#"
   xmlns:svg="http://www.w3.org/2000/svg"
   xmlns="http://www.w3.org/2000/svg"
   xmlns:sodipodi="http://sodipodi.sourceforge.net/DTD/sodipodi-0.dtd"
   xmlns:inkscape="http://www.inkscape.org/namespaces/inkscape"
   width="744.09448819"
   height="1052.3622047"
   id="svg3893"
   version="1.1"
   inkscape:version="0.48.4 r9939"
   sodipodi:docname="New document 13">
  <defs
     id="defs3895" />
  <sodipodi:namedview
     id="base"
     pagecolor="#ffffff"
     bordercolor="#666666"
     borderopacity="1.0"
     inkscape:pageopacity="0.0"
     inkscape:pageshadow="2"
     inkscape:zoom="0.35"
     inkscape:cx="375"
     inkscape:cy="520"
     inkscape:document-units="px"
     inkscape:current-layer="layer1"
     showgrid="false"
     inkscape:window-width="887"
     inkscape:window-height="710"
     inkscape:window-x="254"
     inkscape:window-y="127"
     inkscape:window-maximized="0" />
  <metadata
     id="metadata3898">
    <rdf:RDF>
      <cc:Work
         rdf:about="">
        <dc:format>image/svg+xml</dc:format>
        <dc:type
           rdf:resource="http://purl.org/dc/dcmitype/StillImage" />
        <dc:title></dc:title>
      </cc:Work>
    </rdf:RDF>
  </metadata>
  <g
     inkscape:label="Layer 1"
     inkscape:groupmode="layer"
     id="layer1">
    <path
       style="fill:#000063;fill-opacity:1"
       d="m 336.40297,867.05819 c -4.41428,-2.0453 -5.88923,-3.8147 -6.53235,-7.8366 -0.34037,-2.1285 -0.93831,-3.8701 -1.32875,-3.8701 -0.39044,0 -1.30055,-5.1281 -2.02248,-11.3957 -1.13371,-9.8427 -1.11142,-11.9211 0.16357,-15.25 2.14588,-5.6029 1.82443,-8.7833 -0.92724,-9.1741 -1.23841,-0.1758 -2.88866,0.3173 -3.66722,1.0958 -0.77855,0.7786 -4.26531,2.0023 -7.74834,2.7195 -3.48303,0.7171 -6.8788,1.7279 -7.54616,2.2462 -0.66735,0.5183 -4.75667,1.1853 -9.08737,1.4821 -7.68959,0.5271 -7.93635,0.4724 -10.53662,-2.3318 -1.46445,-1.5794 -2.66263,-3.6262 -2.66263,-4.5484 0,-0.9223 -0.50217,-1.8443 -1.11593,-2.0489 -1.76298,-0.5877 -2.69139,-9.5602 -1.89299,-18.2947 0.8203,-8.974 4.3466,-22.7792 5.95556,-23.3155 0.57935,-0.1932 1.05336,-0.9876 1.05336,-1.7655 0,-0.7779 1.59395,-3.1029 3.54211,-5.1667 1.94816,-2.0638 3.79694,-4.7648 4.10841,-6.0023 0.31146,-1.2375 1.0925,-2.25 1.73565,-2.25 0.64314,0 1.93995,-0.9 2.8818,-2 1.46772,-1.7142 3.9937,-2.5904 5.04465,-1.75 0.17194,0.1375 2.53444,-1.6019 5.25,-3.8653 2.71556,-2.2634 5.94988,-4.4312 7.18738,-4.8173 2.26015,-0.7053 2.69598,-2.3053 1.66926,-6.1279 -0.38146,-1.4203 -1.95332,-2.435 -5.05856,-3.2655 -3.83874,-1.0267 -5.23404,-0.9461 -9.43291,0.5452 -4.682,1.6629 -5.17141,1.6637 -9.812,0.015 -3.56303,-1.2655 -8.01859,-1.7347 -16.47149,-1.7347 -10.01822,0 -12.30204,-0.3195 -16.86579,-2.3598 -6.12905,-2.74 -8.51852,-6.1476 -8.88602,-12.6725 -0.28056,-4.9811 0.9133,-10.96771 2.1872,-10.96771 0.45633,0 1.1319,-1.6109 1.50127,-3.5798 0.36937,-1.9689 1.28976,-3.8171 2.04531,-4.107 0.75555,-0.29 1.37373,-1.0989 1.37373,-1.7977 0,-0.6989 0.68094,-1.8357 1.5132,-2.5265 0.83226,-0.6907 1.42356,-1.7583 1.31398,-2.3724 -0.34846,-1.9531 1.31845,-9.6166 2.09174,-9.6166 0.40871,0 1.38166,-1.2375 2.1621,-2.75 0.78044,-1.5125 2.31898,-3.7277 3.41898,-4.9227 7.00357,-7.6083 10.06209,-10.3273 11.61674,-10.3273 0.97087,0 2.00913,-0.3946 2.30725,-0.877 0.29811,-0.4824 2.68716,-1.4065 5.30901,-2.0536 6.73487,-1.6623 10.267,-3.3428 10.267,-4.8849 0,-0.7301 0.6971,-2.0245 1.54911,-2.8765 0.85201,-0.852 1.80826,-2.8448 2.125,-4.4285 0.31674,-1.5837 0.87149,-2.8795 1.23278,-2.8795 0.36129,0 0.75151,-1.1432 0.86715,-2.5405 0.11564,-1.3972 1.45129,-3.7019 2.96811,-5.1214 l 2.75785,-2.5809 -12,0.6421 c -18.00238,0.9633 -35.27023,2.3727 -42,3.428 -5.51672,0.8651 -8.03787,0.6808 -18.74341,-1.3698 -8.994,-1.7228 -14.27977,-13.0058 -9.9142,-21.163 0.63668,-1.1897 1.15761,-3.0235 1.15761,-4.0751 0,-3.2739 3.03418,-8.3825 10.52423,-17.7194 9.57235,-11.93266 11.00536,-13.49999 12.34307,-13.49999 0.62298,0 1.13438,-0.3375 1.13643,-0.75 0.002,-0.4125 2.58955,-2.84453 5.75,-5.40452 3.16045,-2.55999 6.87127,-5.647 8.24627,-6.86003 2.93383,-2.58823 12.11734,-6.98545 14.58899,-6.98545 0.94442,0 6.54882,-1.21026 12.45422,-2.68946 9.82455,-2.46089 10.64099,-2.84335 9.60639,-4.5 -0.62188,-0.9958 -1.69745,-1.81054 -2.39015,-1.81054 -0.6927,0 -1.25945,-0.45 -1.25945,-1 0,-0.55 -1.125,-1 -2.5,-1 -1.55556,0 -2.5,-0.56667 -2.5,-1.5 0,-0.825 -0.38705,-1.5 -0.86012,-1.5 -1.62014,0 -8.24822,-6.96626 -8.65937,-9.1012 -0.51643,-2.68161 2.23508,-8.16184 3.82815,-7.6246 1.18311,0.39899 4.69134,-4.36442 4.69134,-6.3698 0,-1.54094 -2.63031,-3.9044 -4.34524,-3.9044 -0.81845,0 -1.75059,-0.5625 -2.07143,-1.25 -0.46666,-1 -0.7,-1 -1.16666,0 -0.32084,0.6875 -1.79649,1.25 -3.27924,1.25 -1.54874,0 -3.30931,0.85105 -4.13743,2 -1.4852,2.0606 -7,2.84843 -7,1 0,-2.01183 -3.27087,-0.92154 -6,2 -1.54133,1.65 -3.52188,3 -4.40121,3 -0.87933,0 -1.59879,0.45 -1.59879,1 0,0.55 -1.8,1 -4,1 -2.2,0 -4,-0.45 -4,-1 0,-0.55 -1.59083,-1 -3.53518,-1 -1.94435,0 -4.62456,-0.71379 -5.95603,-1.5862 -1.33146,-0.8724 -2.89063,-1.29585 -3.46481,-0.94098 -0.57419,0.35487 -1.04398,0.27851 -1.04398,-0.16969 0,-1.09356 -4.6354,-3.02416 -9.25,-3.85254 -2.0625,-0.37024 -3.75,-1.07309 -3.75,-1.56188 0,-0.48879 -0.93214,-0.88871 -2.07143,-0.88871 -4.44162,0 -6.23011,-4.60802 -5.99614,-15.44894 0.14038,-6.50408 2.72262,-15.06874 4.97959,-16.51607 0.45885,-0.29425 2.04188,-2.33499 3.51785,-4.53499 6.7082,-9.99885 26.52969,-30.84309 31.07013,-32.67329 1.65,-0.66509 3.36719,-1.81129 3.81598,-2.54709 0.80541,-1.3205 5.62276,-4.59438 12.17845,-8.27649 1.85021,-1.0392 6.20836,-2.40208 9.68479,-3.02862 3.47643,-0.62654 7.67078,-1.98078 9.32078,-3.00943 3.87819,-2.41775 8.5,-8.30677 8.5,-10.83055 0,-1.19677 -3.14565,-4.81269 -7.99977,-9.1957 -8.68045,-7.83801 -10.39864,-11.21452 -10.11508,-19.8777 0.17711,-5.41117 -1.55608,-11.06113 -3.39315,-11.06113 -0.74409,0 -1.4967,-0.96926 -1.67245,-2.15391 -0.70741,-4.76826 -23.33527,-7.08285 -39.81955,-4.07312 -2.475,0.45189 -6.08747,0.76375 -8.02772,0.69302 -3.96663,-0.1446 -8.97228,-2.9793 -8.97228,-5.081 0,-1.01531 -1.4966,-1.38499 -5.60699,-1.38499 -4.57315,0 -5.50086,0.27658 -5.03138,1.5 0.31658,0.825 0.11676,1.5 -0.44404,1.5 -1.30479,0 -3.64956,-5.60492 -3.97425,-9.5 -0.30962,-3.71433 1.01065,-10.5 2.04295,-10.5 0.42004,0 1.02711,-1.31699 1.34904,-2.92663 0.84176,-4.20883 13.42221,-16.32889 20.4738,-19.72454 6.52069,-3.14 10.99493,-6.24508 16.69087,-11.58328 2.2,-2.06182 5.4625,-4.23745 7.25,-4.83471 1.7875,-0.59727 3.25,-1.7705 3.25,-2.60718 0,-1.59313 5.56003,-7.32366 7.10575,-7.32366 0.49184,0 0.89425,-0.45 0.89425,-1 0,-0.55 -1.25066,-1 -2.77924,-1 -1.63207,0 -3.37425,-0.82553 -4.22076,-2 -0.79284,-1.1 -1.90468,-2.00055 -2.47076,-2.00122 -1.74876,-0.002 -6.27116,-4.41872 -6.66908,-6.51313 -0.24602,-1.29485 -1.32334,-2.09499 -3.09671,-2.29995 -1.49569,-0.17286 -3.51685,-1.30475 -4.49145,-2.51531 -1.67206,-2.07686 -12.43022,-9.67039 -13.70057,-9.67039 -0.92894,0 -5.97915,-5.19557 -8.29501,-8.53376 -3.55101,-5.1186 -3.81212,-9.47558 -0.91098,-15.2007 2.30303,-4.5448 3.30232,-5.38249 10.83578,-9.08338 4.56433,-2.24227 9.64878,-4.39751 11.29878,-4.78941 3.33855,-0.79297 6.31238,-3.68545 7.01914,-6.82716 2.11629,-9.40732 2.27319,-11.60254 1.38682,-19.40316 -1.13214,-9.96362 0.55181,-17.00982 4.76327,-19.93102 1.37288,-0.95228 3.93589,-2.92944 5.69557,-4.39369 1.75968,-1.46426 5.43497,-3.84692 8.16731,-5.29481 2.73234,-1.44789 7.21789,-4.78673 9.96789,-7.41965 2.75,-2.63292 8.56306,-7.41987 12.91791,-10.63767 4.35485,-3.2178 10.42815,-8.24343 13.49624,-11.16807 3.06808,-2.92463 6.03427,-5.31752 6.59154,-5.31752 0.55727,0 1.57528,-0.9 2.26224,-2 0.68696,-1.1 1.7581,-2 2.3803,-2 0.62221,0 1.72908,-0.7875 2.45972,-1.75 1.49254,-1.96617 1.85447,-6.25 0.52805,-6.25 -0.4752,0 -2.13475,-1.83369 -3.68788,-4.07487 -2.34221,-3.3798 -2.57862,-4.23005 -1.386,-4.98468 3.10857,-1.96696 4.95112,-1.54683 11.45075,2.61093 2.94781,1.88569 6.0352,4.39301 6.86086,5.57181 1.30677,1.86568 2.18932,2.07658 6.81374,1.62832 3.44474,-0.33391 7.73471,0.11929 12.2019,1.28903 4.82104,1.26239 7.61762,1.5271 9.3151,0.88172 4.232,-1.609 9.4298,-1.00522 15.19904,1.76552 4.7682,2.28998 7.15052,2.73452 16.09649,3.00359 11.0608,0.33268 14.45869,-0.51341 15.32215,-3.81527 0.679,-2.59652 4.32307,-2.37078 6.03574,0.3739 0.7722,1.2375 1.65878,4.59057 1.97017,7.45126 0.44955,4.12992 1.66744,6.80931 5.9128,13.00822 2.94065,4.29383 6.33525,9.82826 7.54355,12.29874 1.20829,2.47048 3.66375,6.06678 5.45657,7.99178 4.95992,5.3256 11.1715,13.85652 14.72566,20.22406 1.75725,3.14823 5.88331,8.32323 9.16903,11.5 8.70717,8.41845 10.86433,12.49372 10.86433,20.5247 0,3.61518 -0.7875,9.20064 -1.75,12.41215 -0.9625,3.2115 -1.65765,6.96409 -1.54478,8.33909 0.65532,7.98321 1.15243,10.8655 2.21705,12.85476 0.65369,1.22143 0.92447,3.05275 0.60174,4.06959 -0.44796,1.4114 0.44828,2.45541 3.78812,4.41268 2.40619,1.41013 5.48955,4.04866 6.85189,5.86342 4.48996,5.98098 7.97852,16.97538 5.81135,18.31477 -0.53645,0.33155 -0.97537,1.47626 -0.97537,2.5438 0,1.06754 -0.675,1.94098 -1.5,1.94098 -0.825,0 -1.5,0.45 -1.5,1 0,0.55 -0.6375,1 -1.41667,1 -0.77916,0 -1.58403,0.50209 -1.78859,1.11577 -0.20455,0.61367 -3.27955,1.28092 -6.83333,1.48278 -4.23437,0.24052 -5.95439,0.047 -4.99037,-0.56139 2.26744,-1.43105 0.7296,-2.16328 -5.78369,-2.75389 -5.45469,-0.49461 -6.02904,-0.35741 -6.64639,1.58767 -0.37165,1.17098 -1.32041,2.12906 -2.10835,2.12906 -3.04193,0 -1.15322,3.56313 5.76919,10.88383 4.01968,4.25096 8.67201,8.14982 10.52919,8.82393 3.25569,1.18173 6.26901,3.494 6.26901,4.81052 0,0.36362 0.945,1.42635 2.1,2.36161 1.45037,1.17444 2.1,2.84809 2.1,5.41029 0,2.59894 0.44061,3.70982 1.47143,3.70982 2.99842,0 4.85216,3.1646 7.02931,12 0.74539,3.025 1.61427,6.48188 1.93083,7.68195 1.61019,6.10417 -10.53354,10.53868 -23.76029,8.67651 -10.35146,-1.45736 -45.33097,-1.05177 -47.25854,0.54798 -2.59722,2.1555 -2.02214,6.66539 1.13726,8.91863 2.11693,1.50976 2.81311,2.90668 3.02416,6.0681 0.15449,2.31426 -0.17287,4.10683 -0.75,4.10683 -0.56329,0 -1.02416,1.32344 -1.02416,2.94098 0,1.61754 -0.39188,3.18318 -0.87084,3.47919 -0.47896,0.29602 -1.1369,1.78508 -1.46208,3.30902 -0.3634,1.70306 -2.51345,4.31223 -5.57939,6.77081 -4.85545,3.89358 -6.59227,7.5 -3.61194,7.5 0.81166,0 2.84809,1.50811 4.5254,3.35135 2.95781,3.2504 3.34509,3.3707 12.85822,3.99413 9.28346,0.60839 13.37268,1.4367 19.14063,3.87715 6.05227,2.56075 9.36819,4.46133 12.26052,7.02737 1.70484,1.5125 3.35615,2.75208 3.66959,2.75463 0.31344,0.003 1.91989,1.24518 3.56989,2.76142 1.65,1.51624 4.125,3.33198 5.5,4.03497 4.56001,2.33138 6.47349,3.67203 9.20455,6.44898 1.4875,1.5125 3.29414,2.75 4.01476,2.75 0.72063,0 3.24409,1.99547 5.60769,4.43437 9.08712,9.37662 13.04297,29.78254 6.84277,35.29783 -2.9811,2.65179 -11.5916,4.4374 -15.70674,3.2572 -3.57939,-1.02656 -11.33604,-0.54412 -26.46303,1.64592 -5.5,0.79628 -14.725,1.95396 -20.5,2.57262 -5.775,0.61867 -10.71197,1.29944 -10.97104,1.51283 -0.99823,0.8222 2.62378,2.24932 5.74579,2.26392 2.5134,0.0118 3.48333,0.56392 4.17191,2.37502 0.49344,1.29784 2.13765,3.26334 3.6538,4.36778 2.52243,1.83746 2.7663,2.59282 2.87031,8.89029 0.0979,5.9272 -0.20441,7.20075 -2.17855,9.17767 -1.26072,1.2625 -2.29222,2.6882 -2.29222,3.16822 0,2.00983 1.30888,4.03633 2.60699,4.03633 0.76615,0 1.39301,0.34043 1.39301,0.75652 0,1.10409 7.43408,3.24485 11.23425,3.23508 3.53405,-0.009 16.94901,3.09904 17.76575,4.11617 0.275,0.34247 1.625,0.94727 3,1.34401 2.63858,0.76133 13.26527,7.52007 13.83333,8.79822 0.18334,0.4125 1.19202,0.75 2.24153,0.75 1.04951,0 2.47025,0.9 3.15721,2 0.68696,1.1 1.83623,2 2.55393,2 0.7177,0 2.42991,1.125 3.80491,2.5 1.375,1.375 2.8784,2.5 3.34088,2.5 1.65017,0 10.8023,9.59122 14.07474,14.75 1.83166,2.8875 3.65344,5.25 4.04839,5.25 0.78185,0 1.76803,4.06735 2.61226,10.77389 0.36834,2.9261 -0.0122,5.449 -1.20676,8 -3.44243,7.3516 -9.90801,10.4495 -22.46042,10.7617 -12.12976,0.3017 -24.97317,1.612 -25.59048,2.6108 -0.29015,0.4695 -1.5135,0.8514 -2.71854,0.8487 -4.32078,-0.01 -11.49276,3.2744 -12.63757,5.787 -1.30065,2.8546 -0.51818,6.2179 1.44659,6.2179 2.44863,0 2.76282,3.8222 0.56761,6.9051 -2.56685,3.6048 -2.57494,4.0949 -0.0676,4.0949 1.1,0 2,0.4105 2,0.9121 0,0.5017 1.8,1.2162 4,1.5879 2.2,0.3717 4,1.0862 4,1.5879 0,0.5017 0.80744,0.9121 1.7943,0.9121 0.98687,0 5.37437,1.7897 9.75,3.9772 7.36609,3.6825 11.52178,6.82 15.55995,11.7476 0.88234,1.0767 2.47576,2.5916 3.54092,3.3664 2.66581,1.9392 6.20575,7.1598 7.53652,11.1146 0.60967,1.8118 1.58473,3.9006 2.16679,4.6417 0.58206,0.7412 1.19124,2.2187 1.35373,3.2834 0.16249,1.0647 1.04026,3.0726 1.95062,4.462 1.01087,1.5428 1.81434,5.3252 2.06405,9.7166 0.5203,9.15011 -1.15626,12.05691 -9.30753,16.13741 -4.91312,2.4594 -6.92731,2.9084 -12.17839,2.7145 -4.35232,-0.1607 -6.96738,0.241 -8.48382,1.3032 -2.5699,1.8 -5.74714,2.0232 -5.74714,0.4037 0,-0.7675 -1.36763,-0.9208 -4.25,-0.4763 -2.3375,0.3604 -6.72172,0.9073 -9.74271,1.2153 -3.02099,0.3081 -5.75934,0.9915 -6.08523,1.5188 -0.32589,0.5273 -1.90417,1.3095 -3.50729,1.7383 -1.94231,0.5194 -2.91477,1.4228 -2.91477,2.7076 0,1.5533 0.82585,1.9878 4.25,2.2355 2.3375,0.1691 4.25,0.6959 4.25,1.1705 0,0.4747 1.34484,1.1585 2.98853,1.5195 1.6437,0.361 3.24525,1.0718 3.55902,1.5794 0.31377,0.5077 1.66378,0.9231 3.00004,0.9231 1.33625,0 3.39892,0.7875 4.58372,1.75 6.51622,5.2936 8.82694,7.5431 9.30911,9.0623 0.29486,0.929 1.79825,2.2478 3.34088,2.9306 1.97329,0.8735 3.91914,3.4365 6.56367,8.6454 2.06739,4.0722 3.88289,8.4632 4.03446,9.7578 0.15157,1.2947 0.65625,3.2193 1.12152,4.2771 0.48562,1.104 0.3763,4.6649 -0.25666,8.3601 -1.22751,7.1662 -3.61264,10.4984 -9.18565,12.833 -4.75982,1.9939 -16.3685,2.7621 -23.55864,1.5591 -4.87195,-0.8152 -6.43776,-0.7241 -8.32842,0.4848 -1.57829,1.0091 -2.1118,2.0285 -1.65603,3.1642 0.36981,0.9216 0.91693,4.1506 1.2158,7.1756 0.29888,3.025 1.15659,7.2441 1.90603,9.3757 2.85003,8.1064 0.7226,25.7839 -3.56205,29.5983 -0.94278,0.8393 -2.00115,2.3001 -2.35192,3.2462 -1.37434,3.7069 -6.86438,3.3114 -19.91305,-1.4346 -1.47931,-0.538 -3.08936,-0.7312 -3.5779,-0.4293 -0.48854,0.302 -3.23859,0.8177 -6.11122,1.1462 -4.28169,0.4895 -5.97877,1.309 -9.41668,4.5473 -2.30654,2.1726 -4.77448,3.9502 -5.48431,3.9502 -0.70984,0 -2.49246,0.7875 -3.96137,1.75 -1.89048,1.2387 -4.80177,1.7718 -9.96482,1.8246 -4.01173,0.041 -7.29406,-0.2965 -7.29406,-0.75 0,-0.4535 -0.65383,-0.8246 -1.45295,-0.8246 -2.90675,0 -6.60869,-2.3974 -7.17286,-4.6452 -1.1918,-4.7485 -12.0668,-4.3033 -18.35686,0.7515 -2.32747,1.8704 -4.29611,2.724 -5.34994,2.3196 -1.14335,-0.4388 -1.66739,-0.1188 -1.66739,1.0181 0,3.2543 -10.73959,6.2851 -15.10441,4.2627 z m 116.63022,-281.73364 2.89999,-3.02693 -1.87037,-3.47307 c -3.72199,-6.91131 -9.36062,-3.32812 -8.09055,5.14131 0.80428,5.36329 2.84759,5.75647 7.06093,1.35869 z m -77.72016,-38.22129 c 0.27562,-3.24048 0.0953,-3.53864 -1.83453,-3.03397 -1.4677,0.38382 -1.75639,0.79688 -0.91874,1.31457 0.70101,0.43325 1.00592,1.8823 0.71563,3.4009 -0.32298,1.68954 -0.10137,2.51336 0.61309,2.27907 0.61539,-0.20182 1.25644,-1.98407 1.42455,-3.96057 z M 353.47558,393.10149 c -0.0175,-1.2375 -0.63928,-3.05073 -1.38174,-4.02939 -1.21285,-1.5987 -1.41271,-1.61578 -1.96819,-0.16821 -1.3261,3.45574 -0.68493,6.4476 1.38173,6.4476 1.41683,0 1.99073,-0.65607 1.9682,-2.25 z M 458.64523,277.85897 c -0.42602,-1.70469 -0.60718,-1.58412 -1.25405,0.83461 -0.41585,1.55493 -0.46804,3.57656 -0.11599,4.49252 0.51364,1.33634 0.76142,1.17143 1.25406,-0.83461 0.33767,-1.375 0.38986,-3.39664 0.11598,-4.49252 z m -3.13785,-4.96043 c 0,-1.54978 -2.51771,-5.54705 -3.49385,-5.54705 -2.38228,0 -2.49404,1.44411 -0.281,3.63107 2.13649,2.11132 3.77485,2.94289 3.77485,1.91598 z m -3.81969,-21.54705 c 1.4436,0 1.85755,-0.45896 1.42668,-1.58179 -0.33385,-0.86998 -0.60699,-1.99498 -0.60699,-2.5 0,-0.50501 -0.49814,-0.91821 -1.10699,-0.91821 -0.60884,0 -0.84797,0.675 -0.53138,1.5 0.33673,0.87751 0.0145,1.5 -0.77638,1.5 -1.45854,0 -2.77977,3.46805 -1.72649,4.53181 0.35268,0.35619 0.78674,-0.0678 0.96456,-0.9421 0.17783,-0.87434 1.23848,-1.58971 2.35699,-1.58971 z m -18.18031,1 c 0,-0.55 -0.45,-1 -1,-1 -0.55,0 -1,0.45 -1,1 0,0.55 0.45,1 1,1 0.55,0 1,-0.45 1,-1 z m 12,-6 c 0,-0.55 -0.9,-1 -2,-1 -1.1,0 -2,0.45 -2,1 0,0.55 0.9,1 2,1 1.1,0 2,-0.45 2,-1 z m 4,-8.37219 c 0,-0.82762 1.58745,-1.62604 4,-2.01182 2.2,-0.35179 4,-0.89145 4,-1.19924 0,-1.46255 -3.03202,-3.34169 -4.48947,-2.78242 -1.03822,0.39841 -2.17709,-0.14096 -3.11001,-1.4729 -0.80957,-1.15582 -3.03087,-2.84125 -4.93623,-3.7454 -1.90536,-0.90415 -3.46429,-2.04264 -3.46429,-2.52997 0,-0.48733 -1.35,-0.88606 -3,-0.88606 -2.66667,0 -3,0.33333 -3,3 0,1.65 0.45,3 1,3 0.55,0 1,0.71356 1,1.58568 0,2.70475 6.21426,8.33098 9.25,8.37471 1.68318,0.0242 2.75,-0.49271 2.75,-1.33258 z m -15.88274,-43.37781 c -1.30237,-2.39128 -8.11726,-8.86755 -8.11726,-7.71392 0,0.79006 7.96115,9.33661 8.78518,9.43119 0.15685,0.018 -0.14371,-0.75477 -0.66792,-1.71727 z m -18.61726,-5.25 c 0.33992,-0.55 -0.24784,-1 -1.30612,-1 -1.05829,0 -2.99735,-0.79987 -4.30902,-1.77748 -3.14173,-2.3416 -7.78854,-3.80115 -16.67789,-5.2385 -8.49742,-1.37398 -13.07584,-0.73587 -11.17278,1.55718 0.66589,0.80234 1.98856,1.4588 2.93929,1.4588 0.95072,0 6.18312,1.09299 11.62755,2.42886 8.6465,2.12155 11.83959,2.76078 17.08995,3.42131 0.65504,0.0824 1.4691,-0.30017 1.80902,-0.85017 z m 7.5,-8 c 0,-0.55 -0.19844,-1 -0.44098,-1 -0.24254,0 -0.7191,0.45 -1.05902,1 -0.33992,0.55 -0.14148,1 0.44098,1 0.58246,0 1.05902,-0.45 1.05902,-1 z m -72.13254,-2.58222 c 2.16435,-0.70457 -2.64063,-3.87966 -8.15472,-5.38856 -4.98475,-1.36405 -30.28142,-1.03186 -32.64462,0.42868 -1.97482,1.22051 0.65457,3.31945 5.09898,4.07033 10.30827,1.74157 31.46374,2.2687 35.70036,0.88955 z m -50.86746,-0.81079 c 0,-0.21616 -0.675,-0.65203 -1.5,-0.96862 -0.825,-0.31658 -1.5,-0.13972 -1.5,0.39302 0,0.53273 0.675,0.96861 1.5,0.96861 0.825,0 1.5,-0.17686 1.5,-0.39301 z m -7.47354,-2.41386 c -0.30789,-0.30789 -1.11479,-6.4e-4 -1.79313,0.68278 -0.98026,0.98762 -0.8654,1.10248 0.5598,0.5598 0.98622,-0.37553 1.54122,-0.9347 1.23333,-1.24258 z m 35.14021,-25.63912 c 0,-1.09229 -0.44845,-1.20598 -1.83334,-0.46481 -1.00833,0.53964 -1.83333,1.19033 -1.83333,1.44598 0,0.25565 0.825,0.46482 1.83333,0.46482 1.00834,0 1.83334,-0.65069 1.83334,-1.44599 z m -86.66667,238.44599 c 0,-0.55 0.45,-1 1,-1 0.55,0 1,0.45 1,1 0,0.55 -0.45,1 -1,1 -0.55,0 -1,-0.45 -1,-1 z"
       id="path3042"
       inkscape:connector-curvature="0" />
  </g>
</svg>
