<?xml version="1.0" encoding="UTF-8" standalone="no"?>
<!-- Created with Inkscape (http://www.inkscape.org/) -->

<svg
   xmlns:dc="http://purl.org/dc/elements/1.1/"
   xmlns:cc="http://creativecommons.org/ns#"
   xmlns:rdf="http://www.w3.org/1999/02/22-rdf-syntax-ns#"
   xmlns:svg="http://www.w3.org/2000/svg"
   xmlns="http://www.w3.org/2000/svg"
   xmlns:sodipodi="http://sodipodi.sourceforge.net/DTD/sodipodi-0.dtd"
   xmlns:inkscape="http://www.inkscape.org/namespaces/inkscape"
   width="744.09448819"
   height="1052.3622047"
   id="svg3957"
   version="1.1"
   inkscape:version="0.48.4 r9939"
   sodipodi:docname="New document 17">
  <defs
     id="defs3959" />
  <sodipodi:namedview
     id="base"
     pagecolor="#ffffff"
     bordercolor="#666666"
     borderopacity="1.0"
     inkscape:pageopacity="0.0"
     inkscape:pageshadow="2"
     inkscape:zoom="0.35"
     inkscape:cx="375"
     inkscape:cy="520"
     inkscape:document-units="px"
     inkscape:current-layer="layer1"
     showgrid="false"
     inkscape:window-width="950"
     inkscape:window-height="651"
     inkscape:window-x="0"
     inkscape:window-y="59"
     inkscape:window-maximized="0" />
  <metadata
     id="metadata3962">
    <rdf:RDF>
      <cc:Work
         rdf:about="">
        <dc:format>image/svg+xml</dc:format>
        <dc:type
           rdf:resource="http://purl.org/dc/dcmitype/StillImage" />
        <dc:title></dc:title>
      </cc:Work>
    </rdf:RDF>
  </metadata>
  <g
     inkscape:label="Layer 1"
     inkscape:groupmode="layer"
     id="layer1">
    <path
       style="fill:#000063;fill-opacity:1"
       d="m 863.94978,943.42212 c -0.7662,-0.4736 -1.9001,-2.3616 -2.5198,-4.1956 -0.6196,-1.8341 -1.6671,-3.2221 -2.3278,-3.0846 -0.6606,0.1375 -1.2012,-0.1096 -1.2012,-0.5491 0,-0.4395 -1.6305,-1.3887 -3.6234,-2.1094 -3.0222,-1.0928 -3.7663,-1.0846 -4.4847,0.049 -0.4737,0.7477 -0.8682,0.866 -0.8766,0.2629 -0.01,-0.723 -3.843,-1.1331 -11.2501,-1.2038 -10.0497,-0.096 -11.4659,0.1099 -13.426,1.9513 -1.2051,1.1322 -2.6437,1.7788 -3.1968,1.437 -0.553,-0.3418 -1.7113,0.3862 -2.574,1.6178 -1.2842,1.8334 -1.5684,1.9271 -1.5684,0.5167 0,-0.9474 -0.5518,-1.61 -1.2263,-1.4725 -1.9007,0.3875 -2.0535,-3.6093 -0.3867,-10.1153 1.21,-4.7233 1.2803,-6.5558 0.3463,-9.0303 -0.6445,-1.7074 -1.4709,-3.1044 -1.8364,-3.1044 -0.6366,0 -5.90389,-10.3328 -7.39169,-14.5 -0.3927,-1.1 -1.3518,-6.05 -2.1314,-11 -0.7796,-4.95 -1.6342,-10.3811 -1.8992,-12.069 -0.265,-1.688 -0.062,-5.288 0.4504,-8 0.5128,-2.7121 0.5795,-5.2934 0.1483,-5.7364 -1.41906,-1.4577 -6.0733,0.3921 -6.0733,2.4138 0,1.8024 -0.36671,2.0609 -3.25,2.2916 -1.26996,0.1016 -3.20994,2.7013 -4.34267,5.8195 -0.56756,1.5623 -0.8864,1.5841 -3.48912,0.2382 -2.5458,-1.3165 -2.79995,-1.3131 -2.28436,0.03 0.31907,0.8315 0.13077,1.5118 -0.41845,1.5118 -0.54922,0 -1.29277,1.1721 -1.65234,2.6047 -0.49037,1.9538 -1.13565,2.4788 -2.58196,2.1006 -1.55089,-0.4056 -2.05339,0.1631 -2.56801,2.9063 -0.3519,1.8757 -1.05711,3.6684 -1.56713,3.9836 -0.51002,0.3152 -0.6706,1.3819 -0.35684,2.3705 0.34837,1.0976 -0.0251,2.026 -0.95932,2.3845 -0.84139,0.3228 -1.5298,1.4497 -1.5298,2.5041 0,1.0544 -0.65695,3.1833 -1.45989,4.731 -0.80294,1.5477 -1.43109,5.2244 -1.3959,8.1705 0.10181,8.524 -4.35222,11.845 -9.10339,6.7876 -2.12917,-2.2664 -2.25353,-3.0073 -1.60661,-9.5726 0.67152,-6.8149 0.59036,-7.2187 -1.91803,-9.5434 -3.08468,-2.8588 -5.31606,-3.0834 -7.05171,-0.7097 -0.96851,1.3245 -2.62059,1.6844 -7.21712,1.5724 -6.58394,-0.1605 -12.79732,-2.5991 -18.27596,-7.1729 -2.97374,-2.4826 -3.2143,-3.0148 -1.9338,-4.2786 1.40535,-1.387 11.677,-3.611 18.94915,-4.1028 3.24748,-0.2196 4.00194,-1.0014 10.99504,-11.3934 4.12956,-6.1367 7.84803,-10.9476 8.26326,-10.691 0.41523,0.2566 0.75496,0.019 0.75496,-0.5272 0,-0.5466 2.39054,-3.3856 5.31231,-6.309 2.92177,-2.9234 5.73427,-5.9902 6.25,-6.8152 1.09986,-1.7594 4.85389,-4 6.70188,-4 0.71023,0 2.06193,-0.9 3.00378,-2 0.94185,-1.1 2.84186,-2 4.22224,-2 1.46511,0 2.50979,-0.5734 2.50979,-1.3776 0,-0.7576 0.63344,-1.9032 1.40763,-2.5458 1.0137,-0.8413 1.41966,-3.6988 1.4506,-10.2104 0.0236,-4.9732 0.49636,-9.5886 1.05052,-10.2563 0.55415,-0.6677 0.7305,-2.2734 0.39188,-3.5683 -0.40551,-1.5507 -0.24832,-2.1273 0.46047,-1.6893 1.0021,0.6194 2.07476,-2.6191 2.10404,-6.3523 0.006,-0.825 0.50254,-3.3 1.10238,-5.5 0.59983,-2.2 1.29025,-5.3094 1.53426,-6.9099 0.24401,-1.6004 1.21554,-5.2004 2.15895,-8 1.02136,-3.0308 1.64817,-7.6585 1.54937,-11.4386 -0.1218,-4.6598 0.1607,-6.2229 1.062,-5.876 0.8987,0.3459 1.1311,-0.8917 0.8669,-4.6165 -0.1986,-2.799 0.1676,-7.451 0.8136,-10.3379 1.311,-5.858 1.98,-11.1392 2.453,-19.364 0.1753,-3.0486 0.932,-6.5249 1.6816,-7.7251 1.1513,-1.8436 1.15,-2.3799 -0.01,-3.4571 -1.1275,-1.0479 -1.2224,-1.0079 -0.533,0.2251 0.7454,1.3333 0.6323,1.3333 -1.0184,0 -1.7902,-1.4461 -1.7791,-1.5115 0.3081,-1.8196 1.5331,-0.2263 2.165,-1.0233 2.165,-2.7309 0,-1.7382 0.698,-2.5866 2.49999,-3.0389 4.6698,-1.172 3.3834,-3.3854 -5.49999,-9.4634 -3.575,-2.446 -7.12391,-5.286 -7.88647,-6.3111 -0.76256,-1.0251 -2.76567,-3.0501 -4.45136,-4.5 -1.6857,-1.4499 -4.04474,-3.5736 -5.24232,-4.7195 -4.42009,-4.2291 -8.70376,-1.941 -7.71966,4.1233 0.40131,2.473 0.25731,3.5518 -0.41831,3.1343 -1.10578,-0.6841 -6.28078,3.5953 -6.28078,5.1947 0,0.5305 -0.47808,1.1238 -1.06239,1.3186 -0.73502,0.245 -0.75045,1.1746 -0.0501,3.0167 0.68197,1.7937 0.68242,2.7725 10e-4,2.9995 -1.27594,0.4253 -1.96242,30.6369 -0.74967,32.9922 0.57639,1.1194 0.16849,3.5794 -1.20001,7.237 -1.14028,3.0477 -1.87023,5.8846 -1.62213,6.3042 0.24811,0.4196 -0.8158,1.9982 -2.36425,3.508 l -2.81536,2.7451 -2.07,-2.6316 c -1.69886,-2.1597 -2.05012,-3.9545 -1.95909,-10.0105 0.061,-4.0584 -0.37422,-7.9635 -0.96718,-8.678 -1.16359,-1.402 -1.95703,-7.5553 -2.25509,-17.4887 -0.10314,-3.4373 -0.56971,-6.4859 -1.03682,-6.7745 -1.18535,-0.7326 -1.06535,-6.1553 0.15287,-6.9082 0.82779,-0.5116 0.73966,-7.2084 -0.21257,-16.1534 -0.0676,-0.635 -0.72292,-0.9244 -1.45626,-0.643 -1.50683,0.5782 -1.86207,-2.2575 -0.39629,-3.1634 0.51538,-0.3185 0.91209,-2.3875 0.88158,-4.5977 -0.0676,-4.9259 3.91469,-12.9412 6.43004,-12.9412 1.08505,0 1.75172,-0.7612 1.75172,-2 0,-1.1 -0.49814,-2 -1.10699,-2 -0.60884,0 -0.86419,-0.6327 -0.56744,-1.406 0.88146,-2.2971 -2.46088,-4.2813 -6.57557,-3.9038 -2.10091,0.1927 -3.75,-0.1033 -3.75,-0.6731 0,-0.5594 0.63925,-1.0171 1.42054,-1.0171 1.60018,0 3.2628,-5.9079 1.93476,-6.8749 -0.97307,-0.7085 -2.53825,-3.8039 -4.84926,-9.59 -0.87099,-2.1808 -2.06656,-4.2635 -2.65683,-4.6283 -0.59026,-0.3648 -1.22644,-2.1806 -1.41372,-4.035 -1.77596,-17.5855 -2.54882,-22.2447 -3.83538,-23.1218 -0.79098,-0.5392 -0.79441,-0.9607 -0.0122,-1.5 2.09297,-1.4429 5.44232,-19.0047 3.38164,-17.7312 -0.53325,0.3296 -0.96955,-0.1023 -0.96955,-0.9598 0,-0.8574 -0.43588,-1.559 -0.96862,-1.559 -0.53273,0 -0.72686,-0.63 -0.43138,-1.4 0.55194,-1.4383 -0.68889,-1.6582 -11.1,-1.9667 -2.475,-0.073 -4.5,-0.5833 -4.5,-1.1333 0,-0.55 -1.125,-1 -2.5,-1 -1.375,0 -2.5,0.3461 -2.5,0.769 0,0.423 -1.15256,0.4798 -2.56125,0.1263 -2.06068,-0.5172 -2.66979,-0.2278 -3.11663,1.4809 -0.30546,1.1681 -0.97946,2.1238 -1.49777,2.1238 -0.51831,0 -0.74714,0.3375 -0.5085,0.75 0.23864,0.4125 0.15259,1.521 -0.19122,2.4634 -0.45576,1.2492 -1.03141,1.4524 -2.12487,0.75 -0.98535,-0.633 -1.14034,-1.2206 -0.45188,-1.7134 0.57634,-0.4125 1.14324,-2.1764 1.25977,-3.9197 0.15952,-2.3864 -0.4417,-3.6839 -2.43274,-5.25 -1.45455,-1.1442 -3.23322,-2.0803 -3.95261,-2.0803 -1.5363,0 -8.77058,-4.0777 -9.25563,-5.217 -0.18334,-0.4307 -0.97084,-0.783 -1.75,-0.783 -0.77917,0 -1.41667,-0.4992 -1.41667,-1.1094 0,-0.6791 -1.35769,-0.9509 -3.5,-0.7008 -1.925,0.2247 -3.5,0.049 -3.5,-0.3906 0,-0.4396 -0.70156,-0.7992 -1.55902,-0.7992 -0.85746,0 -1.27877,-0.4534 -0.93624,-1.0077 0.34253,-0.5542 -0.0594,-1.6898 -0.89316,-2.5236 -1.35459,-1.3546 -1.63609,-1.2914 -2.64478,0.5933 -0.62086,1.1601 -0.88321,2.3549 -0.583,2.6551 0.84217,0.8422 -1.30128,4.2827 -2.66898,4.2841 -1.8917,0 -6.07779,4.0955 -8.69094,8.4988 -2.69953,4.5489 -5.45042,7.5 -6.99117,7.5 -1.35602,0 -7.03271,5.4108 -7.03271,6.7033 0,0.5427 -0.9,1.8012 -2,2.7967 -1.1,0.9955 -2.00055,1.4027 -2.00122,0.905 -6.7e-4,-0.4978 -1.12567,0.4025 -2.5,2.0005 -1.37433,1.5981 -2.49878,3.4731 -2.49878,4.1667 0,0.6936 -0.55899,1.4475 -1.24219,1.6752 -0.87719,0.2924 -1.20997,3.0349 -1.13253,9.3333 0.11589,9.4245 0.99526,14.479 2.71327,15.5955 1.40693,0.9142 1.99338,5.8238 0.69566,5.8238 -2.88126,0 0.63823,10.5284 4.48525,13.4173 1.3643,1.0246 2.48054,2.3755 2.48054,3.002 0,0.6266 0.9,1.7879 2,2.5807 1.1,0.7928 2,1.8933 2,2.4454 0,0.5521 1.50831,2.3652 3.35179,4.0292 3.58871,3.2393 5.63509,8.425 3.41726,8.6597 -3.33882,0.3533 -10.37242,-0.4147 -11.21905,-1.225 -0.5225,-0.5001 -1.76,-0.9093 -2.75,-0.9093 -0.99,0 -1.8,-0.575 -1.8,-1.2778 0,-0.7027 -0.7875,-2.0211 -1.75,-2.9296 -2.91276,-2.7494 -4.25,-4.6404 -4.25,-6.0098 0,-0.716 -0.9,-1.8638 -2,-2.5507 -1.1,-0.687 -2,-1.7196 -2,-2.2948 0,-0.5752 -1.34792,-2.4839 -2.99537,-4.2415 -1.64746,-1.7577 -3.01177,-3.8708 -3.03181,-4.6958 -0.02,-0.825 -0.69712,-2.3735 -1.50462,-3.4411 -0.82597,-1.0921 -1.4682,-4.0795 -1.4682,-6.8295 0,-2.9345 -1.04188,-7.4926 -2.60672,-11.4041 -2.41688,-6.0412 -2.8864,-10.0863 -2.30118,-19.8253 0.0661,-1.1 -0.15683,-4.7376 -0.4954,-8.0835 -0.56545,-5.5882 -0.40309,-6.3209 1.99424,-9 1.70692,-1.9075 2.77689,-2.484 3.09277,-1.6665 0.6243,1.6158 5.07349,1.6158 6.77691,0 0.72477,-0.6875 2.57605,-2.15 4.11396,-3.25 3.6512,-2.6116 13.9911,-12.5 13.07067,-12.5 -0.39155,0 0.83308,-1.545 2.72142,-3.4333 1.88833,-1.8884 3.20424,-3.6625 2.92424,-3.9425 -0.28,-0.28 0.44,-1.8419 1.6,-3.471 1.16,-1.6291 2.10909,-3.307 2.10909,-3.7288 0,-0.4218 0.74724,-1.5926 1.66054,-2.6018 0.91329,-1.0092 1.38204,-2.1134 1.04166,-2.4537 -1.23682,-1.2369 -5.81472,-0.577 -7.67458,1.1061 -1.04835,0.9487 -3.46772,1.725 -5.37638,1.725 -2.56839,0 -3.59941,0.4938 -3.96714,1.9 -0.29185,1.1161 -1.37521,1.9 -2.62566,1.9 -1.70365,0 -1.94905,-0.3495 -1.22875,-1.75 0.49503,-0.9625 0.69836,-2.3125 0.45185,-3 -0.28437,-0.7931 0.49608,-1.25 2.13513,-1.25 1.62963,0 2.58333,-0.5538 2.58333,-1.5 0,-0.825 0.87344,-1.5 1.94098,-1.5 1.06754,0 2.18318,-0.3919 2.47919,-0.8708 0.29602,-0.479 1.9463,-1.1525 3.66729,-1.4967 2.24411,-0.4488 2.96593,-1.051 2.5522,-2.1292 -0.31729,-0.8268 -0.13244,-1.5033 0.41078,-1.5033 1.64075,0 -0.13418,-4.9928 -2.67994,-7.5386 -1.30378,-1.3038 -2.3705,-3.0659 -2.3705,-3.9159 0,-1.0572 -0.96657,-1.5455 -3.05902,-1.5455 -1.7847,0 -2.80156,-0.4166 -2.44098,-1 0.34102,-0.5518 -0.37549,-1 -1.59861,-1 -3.66587,0 -16.78682,-10.69546 -16.86812,-13.74996 -0.0183,-0.6875 -0.48327,-1.25 -1.03327,-1.25 -0.55,0 -1,-0.675 -1,-1.5 0,-0.825 -0.45,-1.5 -1,-1.5 -0.55,0 -1,-0.7556 -1,-1.679 0,-0.9234 -0.43439,-3.0609 -0.96532,-4.75 -0.53092,-1.6891 -1.21449,-4.3085 -1.51905,-5.821 -0.30455,-1.5125 -1.14104,-2.75 -1.85885,-2.75 -0.71782,0 -4.14049,-2.7487 -7.60594,-6.1083 -6.4748,-6.2769 -10.2668,-7.7764 -14.36513,-5.6804 -2.34002,1.1968 -14.22924,1.1223 -18.43571,-0.1154 -1.7875,-0.526 -3.25,-0.5678 -3.25,-0.093 0,0.4748 -1.36341,0.8246 -3.02981,0.7772 -1.66639,-0.047 -4.18662,0.5329 -5.60052,1.2896 -2.24829,1.2033 -2.72082,1.1706 -3.76756,-0.261 -0.65828,-0.9002 -2.50775,-1.788 -4.10994,-1.9728 -2.11062,-0.2434 -3.10311,-1.0246 -3.60294,-2.8359 -0.37942,-1.375 -0.73472,-1.9436 -0.78952,-1.2634 -0.09,1.1139 -6.11,4.4053 -8.5997,4.7016 -2.8773,0.3424 -3.9369,-5.7232 -1.311,-7.5046 1.4095,-0.9562 -1.2314,-6.8123 -3.3795,-7.4941 -3.7351,-1.1855 -5.647,-3.5729 -5.2668,-6.5769 0.3021,-2.3875 -0.072,-2.9572 -2.3076,-3.5185 -4.0801,-1.024 -5.9124,-3.3855 -6.6683,-8.5941 -0.4739,-3.2654 -1.1613,-4.75 -2.1995,-4.75 -1.6668,0 -4.3673,-2.3346 -4.3673,-3.7756 0,-0.5051 -0.9273,-1.9997 -2.0606,-3.3214 -1.1333,-1.3217 -2.9744,-3.4662 -4.0913,-4.7656 -1.1168,-1.2994 -2.4506,-3.5674 -2.964,-5.04 -0.8243,-2.3645 -6.8572,-6.0899 -6.8994,-4.2606 -0.01,0.3648 -0.4371,1.3303 -0.9527,2.1456 -0.7879,1.246 -1.3835,1.0601 -3.7347,-1.1656 -1.5385,-1.4565 -4.3723,-2.9029 -6.2973,-3.2144 -1.925,-0.3114 -4.4,-0.7495 -5.5,-0.9734 -1.1,-0.224 -4.2446,-0.7093 -6.988,-1.0785 -2.7433,-0.3692 -5.7038,-1.3191 -6.5787,-2.1109 -0.8749,-0.7918 -2.5679,-1.4396 -3.762,-1.4396 -1.1942,0 -2.1713,-0.5667 -2.1713,-1.2594 0,-0.6928 -0.8041,-1.7616 -1.7868,-2.3754 -1.4555,-0.9089 -2.7533,-0.4708 -7,2.363 -3.1426,2.0971 -5.2132,4.2115 -5.2132,5.3233 0,1.6392 -0.3617,1.7224 -3.25,0.748 -4.2479,-1.4331 -4.1482,-1.2621 -2.3421,-4.0186 1.6522,-2.5216 1.4382,-11.6277 -0.2992,-12.7262 -0.4825,-0.3051 -1.0419,-1.4171 -1.243,-2.4711 -0.2402,-1.2588 -1.3945,-2.054 -3.3637,-2.3174 -1.6489,-0.2206 -3.3587,-1.0457 -3.7997,-1.8336 -1.1869,-2.1209 -2.7023,-1.7373 -2.7023,0.684 0,1.7071 -0.4354,2 -2.25,1.5137 -1.2375,-0.3317 -2.5875,-0.6091 -3,-0.6167 -0.4125,-0.01 -0.75,-0.9136 -0.75,-2.0136 0,-1.1 -0.45,-2 -1,-2 -1.696,0 -1.1032,-1.8264 0.75,-2.3107 1.6173,-0.4226 1.6128,-0.4661 -0.059,-0.5733 -0.995,-0.064 -1.5309,-0.566 -1.191,-1.116 0.3399,-0.55 -0.083,-1 -0.941,-1 -1.8549,0 -2.1003,-2.6274 -0.309,-3.3088 0.8323,-0.3166 0.331,-1.3605 -1.5,-3.1238 -1.5125,-1.4566 -2.75,-3.1067 -2.75,-3.6669 0,-0.5602 -0.45,-0.7404 -1,-0.4005 -0.55,0.3399 -1,-0.053 -1,-0.8736 0,-1.8253 -4.247,-3.3853 -4.7891,-1.7591 -0.6756,2.0269 -4.2109,1.2988 -4.2109,-0.8673 0,-1.1 -0.45,-2 -1,-2 -0.55,0 -1,-0.9 -1,-2 0,-1.1 0.45,-2 1,-2 0.55,0 1,-0.45 1,-1 0,-0.55 -0.6518,-1 -1.4485,-1 -1.694,0 -6.5515,-4.2618 -6.5515,-5.748 0,-1.4227 -3.5471,-2.2205 -10,-2.2492 -3.025,-0.014 -7.7393,-0.7037 -10.4761,-1.5338 -2.7369,-0.8302 -5.5728,-1.2805 -6.302,-1.0007 -0.7292,0.2798 -1.0509,0.064 -0.7148,-0.4797 0.336,-0.5438 -0.091,-0.9886 -0.9481,-0.9886 -0.8574,0 -1.559,0.3732 -1.559,0.8293 0,1.0536 -8.0839,0.9384 -9.75,-0.139 -0.7775,-0.5028 -1.25,-0.3081 -1.25,0.5148 0,2.0411 -7.8855,5.0159 -12.2043,4.604 -2.6801,-0.2556 -3.7957,0.03 -3.7957,0.9735 0,0.7345 -0.4116,1.0811 -0.9146,0.7702 -0.503,-0.3109 -1.087,-0.048 -1.2978,0.5844 -0.2886,0.8658 -0.9142,0.8654 -2.5346,0 -2.1093,-1.1289 -2.1188,-1.2392 -0.4865,-5.6434 0.9157,-2.4706 2.0482,-4.4921 2.5166,-4.4921 0.4684,0 0.566,-0.8999 0.2169,-2 -0.475,-1.4967 -0.1774,-2.0038 1.1826,-2.0153 1.0836,-0.01 1.3842,-0.3119 0.7445,-0.75 -0.5902,-0.404 -1.3606,-1.5146 -1.7122,-2.4678 -0.3873,-1.05 -1.2453,-1.5005 -2.1771,-1.143 -0.9585,0.3678 -1.5378,0.03 -1.5378,-0.8955 0,-1.593 -3.4431,-3.204 -8.8425,-4.1375 -3.1004,-0.536 -10.0732,-6.6924 -10.1343,-8.9478 -0.013,-0.4714 -0.6982,-0.598 -1.5232,-0.2814 -0.9137,0.3506 -1.5,0 -1.5,-0.893 0,-0.8075 -0.4222,-1.4684 -0.9382,-1.4684 -1.8869,0 -9.9995,-5.5394 -10.0302,-6.8488 -0.017,-0.7418 -1.4159,-2.6419 -3.1077,-4.2223 -1.813,-1.6936 -2.7761,-3.359 -2.3455,-4.0557 0.4441,-0.7186 0.302,-0.9173 -0.3624,-0.5067 -0.6012,0.3716 -1.5405,-0.1214 -2.0873,-1.0955 -0.93,-1.6566 -1.1761,-1.6654 -3.8114,-0.1364 -2.1627,1.2547 -4.6763,1.5416 -10.8173,1.2347 -4.4,-0.22 -10.475,0.1373 -13.5,0.794 -3.025,0.6566 -6.2476,1.092 -7.1614,0.9674 -0.9138,-0.1245 -1.9528,0.2451 -2.309,0.8214 -0.8243,1.3338 -5.2133,1.3686 -6.0296,0.048 -0.3399,-0.55 0.196,-1.0068 1.191,-1.0153 1.5338,-0.013 1.5808,-0.1627 0.309,-0.9847 -1.9928,-1.2878 -9.6353,-1.2655 -12.0657,0.035 -3.0349,1.6243 -2.2815,3.8204 1.9379,5.6484 4.6435,2.0117 6.9018,4.9804 5.0849,6.6844 -0.9017,0.8457 -1.3231,0.8158 -1.6654,-0.1179 -0.2521,-0.6875 -1.0817,-1.25 -1.8437,-1.25 -0.7619,0 -1.1614,0.5834 -0.8877,1.2964 0.3808,0.9925 -1.3344,1.3023 -7.3171,1.3212 -6.3784,0.02 -7.8452,-0.2639 -7.981,-1.5464 -0.091,-0.8642 -0.3777,-3.2863 -0.6361,-5.3826 -0.3642,-2.9546 -0.094,-3.9303 1.202,-4.3407 3.4856,-1.1035 6.3158,-2.8 5.259,-3.1522 -0.6048,-0.2016 -0.8757,-0.7288 -0.6021,-1.1715 0.2736,-0.4427 -1.1705,-1.1179 -3.2092,-1.5003 -2.0387,-0.3825 -4.9374,-1.3318 -6.4416,-2.1097 -1.5042,-0.7779 -3.8492,-1.4143 -5.2112,-1.4143 -1.5057,0 -2.6031,-0.6478 -2.7997,-1.6525 -0.2296,-1.1735 -1.4828,-1.6978 -4.3233,-1.8087 -2.2,-0.086 -4.7875,-0.4672 -5.75,-0.8474 -0.9625,-0.3803 -2.4757,-0.9217 -3.3626,-1.2032 -1.3072,-0.4149 -1.3787,-0.7938 -0.3776,-2 0.6793,-0.8185 0.955,-1.5445 0.6126,-1.6132 -0.3423,-0.069 -0.992,-0.1813 -1.4438,-0.25 -1.5258,-0.2322 -4.0888,-3.3809 -3.381,-4.1536 0.3863,-0.4217 -0.4226,-0.4814 -1.7976,-0.1327 -1.375,0.3487 -2.8375,0.6401 -3.25,0.6476 -0.4125,0.01 -0.75,0.4827 -0.75,1.0559 0,0.5732 -0.4578,1.5857 -1.0173,2.25 -0.5596,0.6643 -2.0331,2.7828 -3.2746,4.7078 -1.2415,1.925 -3.2587,3.9442 -4.4827,4.4871 -1.224,0.543 -2.2254,1.3626 -2.2254,1.8215 0,1.8068 -2.9995,3.6677 -6.9231,4.2951 -2.2667,0.3625 -4.3628,1.0499 -4.6581,1.5276 -0.2953,0.4778 -1.4103,0.8687 -2.4778,0.8687 -1.0676,0 -1.941,0.4326 -1.941,0.9613 0,0.5287 -2.3079,1.6466 -5.1286,2.4842 -2.8208,0.8377 -5.6333,1.9419 -6.25,2.4538 -0.6168,0.5118 -1.5714,1.0262 -2.1214,1.143 -1.7068,0.3624 -3.9159,1.0891 -6,1.9736 -1.8347,0.7786 -1.7933,0.857 0.5,0.9482 2.4486,0.097 2.4589,0.1305 0.5,1.6097 -1.338,1.0103 -2.0532,2.8144 -2.1607,5.4503 -0.088,2.1671 -0.8437,4.6232 -1.6785,5.458 -1.8092,1.8092 -2.6608,1.9302 -2.6608,0.3781 0,-0.6268 -0.7727,-1.7047 -1.7172,-2.3953 -1.0008,-0.7318 -1.7309,-2.6201 -1.75,-4.5262 -0.018,-1.7988 -0.5956,-3.4584 -1.2835,-3.6882 -0.7468,-0.2493 -1.0316,0.1532 -0.707,0.9993 0.3244,0.8452 -0.079,1.4169 -0.9993,1.4169 -0.8486,0 -1.5785,-0.7125 -1.622,-1.5834 -0.052,-1.0327 -0.2543,-1.1486 -0.5833,-0.3333 -0.868,2.1512 -2.1751,1.3625 -1.6573,-1 0.3648,-1.6645 0.2386,-1.8901 -0.4848,-0.8671 -0.8233,1.1642 -1.3424,1.1277 -3.2817,-0.2306 -1.6217,-1.1359 -3.4285,-1.4337 -6.1034,-1.006 -2.0898,0.3342 -4.3646,0.1806 -5.0551,-0.3412 -0.6905,-0.5218 -3.6179,-0.9082 -6.5054,-0.8586 -2.9864,0.051 -5.25,-0.353 -5.25,-0.9376 0,-2.2083 -3.7058,-3.4289 -7.353,-2.4219 -4.0107,1.1074 -7.4262,5.5387 -13.324305,17.2871 -1.9677,3.9192 -3.891,7.3509 -4.2741,7.6259 -0.3832,0.275 -1.2948,2.6748 -2.0258,5.333 -0.9709,3.5301 -1.9849,5.0823 -3.7614,5.7577 -2.9314,1.1145 -10.3911,8.8905 -9.6614,10.0711 0.2849,0.461 -0.1835,0.8382 -1.041,0.8382 -0.8574,0 -1.559,0.45 -1.559,1 0,0.55 -0.8734,1 -1.941,1 -1.0675,0 -2.2015,0.4216 -2.52,0.9368 -0.3184,0.5153 -3.1575,2.1078 -6.309,3.539 -3.1515,1.4311 -6.5114,3.0346 -7.4664,3.5632 -0.9551,0.5285 -2.647,0.961 -3.7598,0.961 -1.1129,0 -2.794,0.9 -3.7358,2 -0.9419,1.1 -2.2875,2 -2.9902,2 -0.7028,0 -1.2778,0.3839 -1.2778,0.8532 0,0.4693 -2.2847,0.6337 -5.0771,0.3654 -5.0778,-0.4879 -11.1233,0.7781 -16.0326,3.3575 -1.4353,0.7542 -2.97,1.0456 -3.4103,0.6475 -0.4404,-0.398 -0.4982,-0.1955 -0.1286,0.4499 0.6763,1.1808 -4.1786,5.3265 -6.2376,5.3265 -1.4240997,0 -7.5506997,6.0238 -8.3906997,8.25 -0.3632,0.9625 -1.1245,1.75 -1.69170003,1.75 -0.5673,0 -1.0314,0.675 -1.0314,1.5 0,0.825 -0.45,1.5 -0.99999997,1.5 -0.55,0 -1,0.404 -1,0.8978 0,0.4938 -1.8,3.8607 -4,7.4819 -2.2,3.6213 -4.0000003,6.9795 -4.0000003,7.4627 0,0.4832 -1.1324,2.5472 -2.5165,4.5868 -1.3841,2.0396 -2.2103,4.2038 -1.836,4.8095 0.4185,0.6772 0.12,0.8861 -0.7754,0.5425 -1.6525,-0.6341 -4.2098,0.9857 -5.0817,3.2188 -0.3222,0.825 -2.76934,2.5963 -5.43814,3.9361 -2.6687,1.3399 -5.8051,3.2747 -6.9697,4.2997 -1.1645,1.025 -3.2594,1.9538 -4.6551,2.0639 -3.2787,0.2588 -10.4996,6.7479 -11.8639,10.6618 -1.1539,3.31 -2.3278,3.8772 -3.2188,1.5554 -0.6857,-1.7872 -3.6448,-0.9022 -3.6448,1.0901 0,0.7661 -0.5657,1.393 -1.2571,1.393 -0.6914,0 -3.7257,2.025 -6.7429,4.5 -3.0172,2.475 -5.8531,4.5 -6.3019,4.5 -0.4489,0 -0.5795,0.3828 -0.2903,0.8508 0.2891,0.4679 -0.5424,2.2985 -1.8479,4.068 -1.3055,1.7695 -2.9201,4.5367 -3.5881,6.1492 -0.6679,1.6126 -1.6099,2.932 -2.0931,2.932 -0.4833,0 -0.8787,0.6269 -0.8787,1.393 0,0.7662 -0.6098,1.627 -1.355,1.913 -0.7453,0.286 -1.6098,2.0899 -1.9212,4.0087 -0.6084,3.7489 -4.2483,8.6853 -6.404097,8.6853 -0.7259,0 -1.3197,0.45 -1.3197,1 0,0.55 -0.675,1 -1.5,1 -0.825,0 -1.5,0.4449 -1.5,0.9886 0,1.266 -3.0466,5.0402 -11.030998,13.6652 -1.203,1.2996 -2.181,4.0758 -2.4659,7 -0.2597,2.66536 -0.6671,6.49976 -0.9054,8.52066 -0.3135,2.6582 -0.012,3.8361 1.0883,4.2585 0.8368,0.3211 1.2751,1.226 0.9739,2.0108 -0.3011,0.7849 -0.055,1.5911 0.5466,1.7917 0.7492,0.2497 0.6445,1.2949 -0.3321,3.3146 -1.2782,2.6436 -1.2282,3.3652 0.4814,6.9499 1.0492,2.2 2.3159,4.2623 2.8147,4.583 0.5336,0.343 0.4806,1.7044 -0.1287,3.3071 -0.5697,1.4983 -0.6996,2.5168 -0.2888,2.2633 1.0802,-0.6664 0.9217,10.0192 -0.1633,11.0129 -0.529,0.4845 -0.609,0.31 -0.191,-0.4163 0.4422,-0.7684 0.1308,-1.25 -0.8083,-1.25 -1.014,0 -1.3129,0.5595 -0.8891,1.664 0.4637,1.2083 0.2758,1.4399 -0.6859,0.8455 -0.8878,-0.5487 -1.0859,-0.4325 -0.6008,0.3523 0.398,0.644 1.0747,0.9538 1.5038,0.6886 0.4291,-0.2652 1.3378,0.5598 2.0193,1.8333 1.1094,2.0728 1.6752,2.2355 5.400798,1.5526 4.7762,-0.8754 5.2011,-0.6931 4.1263,1.7706 -0.4303,0.9862 -0.6734,2.2431 -0.5402,2.7931 0.1331,0.55 -0.059,0.699 -0.4269,0.3311 -0.6594,-0.6594 -2.9061,1.0203 -8.586198,6.4189 -3.8508,3.66 -7.6965,3.5835 -12.026,-0.2393 -2.0232,-1.7865 -3.9891,-2.7407 -4.8855,-2.3714 -3.8404,1.582 -6,1.5738 -6,-0.023 0,-0.8891 -0.45,-1.6166 -1,-1.6166 -0.55,0 -1,-1.1671 -1,-2.5936 0,-1.7646 -0.6483,-2.7632 -2.028,-3.124 -1.5404,-0.4028 -1.8664,-1.0397 -1.3558,-2.6485 0.5727,-1.8043 0.4484,-1.9324 -0.8388,-0.8641 -0.8311,0.6898 -2.2879,3.7237 -3.2373,6.7422 -1.6574,5.2691 -3.7363,7.025 -4.8577,4.1028 -0.2923,-0.7619 0.135,-2.3369 0.9497,-3.5 0.8147,-1.1631 1.2507,-2.1148 0.969,-2.1148 -0.2818,0 0.1427,-1.8566 0.9433,-4.1257 1.8239,-5.1697 1.8187,-5.8743 -0.044,-5.8743 -1.2347,0 -1.423,-1.2807 -1.0663,-7.25 0.2383,-3.9875 0.4965,-7.25 0.5738,-7.25 0.077,0 0.3451,-1.125 0.5952,-2.5 0.25,-1.375 0.8916,-2.65 1.4257,-2.8333 0.5341,-0.1834 0.9711,-0.7724 0.9711,-1.3091 0,-0.5366 -0.5625,-0.6581 -1.25,-0.2699 -1,0.5646 -1,0.4364 0,-0.641 1.8816,-2.0272 1.5332,-5.6394 -0.5977,-6.1966 -1.2112,-0.3167 -2.2496,-2.0793 -3.0144,-5.1166 -0.6417,-2.5484 -1.6103,-4.6335 -2.1523,-4.6335 -0.5421,0 -0.9856,-0.6908 -0.9856,-1.5352 0,-0.8443 -0.752,-2.6827 -1.671,-4.0853 -1.3556,-2.06886 -1.421,-2.70456 -0.3467,-3.36856 0.874,-0.5402 0.4344,-0.7661 -1.2931,-0.6647 -1.5852,0.093 -3.0926,1.0411 -3.8223,2.4038 -0.6627,1.23746 -1.7505,2.24996 -2.4172,2.24996 -0.6668,0 -2.4137,1.575 -3.8819,3.5 -2.734,3.5843 -5.5678,4.6323 -5.5678,2.059 0,-0.7925 0.4077,-1.693 0.9061,-2.001 0.4983,-0.308 0.6582,-1.5079 0.3553,-2.6664 -0.4679,-1.7891 -1.0801,-2.0204 -4.0647,-1.5361 -2.3527,0.3818 -4.5355,0 -6.6053,-1.1426 -1.7003,-0.94206 -3.1927,-1.73906 -3.3164,-1.77116 -0.1238,-0.032 -0.489,-1.7196 -0.8117,-3.75 -0.4322,-2.7193 -0.2318,-3.6917 0.7607,-3.6917 0.7411,0 1.3619,-0.7875 1.3795,-1.75 0.018,-0.9625 0.3686,-2.875 0.7798,-4.25 0.5838,-1.952 0.506,-2.1712 -0.3548,-1 -0.8784,1.1951 -1.0441,0.8903 -0.8155,-1.5 0.207,-2.1639 0.7537,-2.9229 1.9615,-2.7235 0.9211,0.1521 1.9601,-0.1854 2.3091,-0.75 0.3489,-0.5646 1.5078,-1.0265 2.5754,-1.0265 1.0675,0 1.941,-0.4197 1.941,-0.9326 0,-0.9573 3.2951,-2.3864 6.7843,-2.9424 0.4315,-0.069 1.6351,-1.5875 2.6747,-3.375 1.0397,-1.7875 2.3273,-3.5421 2.8614,-3.8991 0.534,-0.357 0.6903,-1.3805 0.3472,-2.2745 -0.462,-1.2041 -1.3424,-1.4561 -3.3957,-0.9719 -1.5246,0.3596 -3.1994,1.0456 -3.7219,1.5246 -0.5225,0.479 -1.5306,0.8709 -2.2403,0.8709 -0.9128,0 -0.7893,-0.5849 0.4223,-2 0.9418,-1.1 2.7374,-2 3.9902,-2 1.2528,0 2.279,-0.5625 2.2806,-1.25 0,-0.757 1.5471,-1.3185 3.9187,-1.4237 5.0265,-0.2229 9.261,-2.9336 8.9438,-5.7254 -0.2173,-1.9126 2.4333,-7.2962 5.0754,-10.3087 0.5826,-0.6643 1.0593,-2.1013 1.0593,-3.1935 0,-1.1458 1.2688,-2.7352 3,-3.7578 1.65,-0.9746 3,-2.1251 3,-2.5565 0,-0.4314 0.4821,-0.7844 1.0714,-0.7844 1.465,0 3.3687,-2.0249 5.2169,-5.5489 0.8512,-1.6231 3.3689,-4.6102 5.5948,-6.6379 2.2259,-2.0278 4.3365,-4.8403 4.6904,-6.25 0.3538,-1.4098 1.0264,-2.5632 1.4947,-2.5632 0.4683,0 1.3691,-1.9125 2.0017,-4.25 0.6327,-2.3375 1.5183,-5.15 1.9682,-6.25 0.4499,-1.1 1.0875,-3.644 1.4171,-5.6534 0.3295,-2.0095 1.2024,-3.885 1.9397,-4.1679 1.3798,-0.5295 1.5064,-0.8976 3.909498,-11.3623 0.781,-3.401 2.197,-6.9607 3.1468,-7.9105 1.5616,-1.5616 1.5748,-1.8119 0.1378,-2.616 -2.4073,-1.3472 -1.9037,-2.7899 0.9738,-2.7899 2.0832,0 2.5043,-0.4207 2.25,-2.248 -0.3189,-2.2913 -5.786,-6.752 -8.275498,-6.752 -2.0487,0 -4.5373,-1.1043 -4.5373,-2.0134 0,-0.4396 0.854,-0.576 1.8979,-0.303 1.0438,0.2729 3.0515,-0.2596 4.461398,-1.1834 1.6661,-1.0917 4.0236,-1.5608 6.7339,-1.34 3.2496,0.2648 4.4172,-0.075 5.288497,-1.5388 0.8541,-1.4348 0.8132,-1.9892 -0.173497,-2.3472 -1.5772,-0.5723 0.300297,-3.2742 2.275097,-3.2742 1.4789,0 9.5167,-11.4287 9.5167,-13.5314 0,-0.8077 0.373,-1.4686 0.829,-1.4686 0.456,0 1.8829,-2.25 3.171,-5 1.288,-2.75 2.6603,-5 3.0496,-5 0.3892,0 1.2669,-1.35 1.9504,-3 0.6834,-1.65 1.593,-3 2.0213,-3 1.0846,0 7.9787,-6.9989 7.9787,-8.1 0,-0.495 0.6891,-0.9 1.5313,-0.9 0.8423,0 1.7904,-0.675 2.107,-1.5 0.3166,-0.825 1.0096,-1.5 1.5401,-1.5 2.2444,0 6.0186,-5.4188 6.451,-9.2622 0.2004,-1.7808 0.7817,-4.3628 1.2918,-5.7378 0.5101,-1.375 1.2175,-4.2442 1.572,-6.376 0.4609,-2.7709 1.9079,-5.1213 5.0757,-8.2442 2.4371,-2.4026 4.4311,-4.8209 4.4311,-5.3741 0,-0.5531 0.9141,-1.0057 2.0313,-1.0057 1.1173,0 2.3209,-0.7875 2.6746,-1.75 0.3538,-0.9625 1.1604,-2.0655 1.7924,-2.4511 0.6321,-0.3856 1.7224,-2.6356 2.4229,-5 0.7005,-2.3644 1.7501,-5.1989 2.33234,-6.2989 2.3491,-4.4378 3.2714,-6.0233 3.781,-6.5 1.389,-1.2991 7.9655,-11.9658 7.9655,-12.9195 0,-0.5943 0.4500003,-1.0805 1.0000003,-1.0805 0.55,0 1,-0.9266 1,-2.059 0,-1.1325 0.3821,-1.8228 0.8492,-1.5341 0.4671,0.2886 1.4198,-0.5412 2.1171,-1.844 0.6973,-1.3029 3.1575,-3.3408 5.46719997,-4.5287 2.30960003,-1.1879 6.19450003,-3.931 8.63290003,-6.0956 2.4384997,-2.1647 4.8835997,-3.9465 5.4335997,-3.9595 0.55,-0.013 2.125,-0.9036 3.5,-1.9791 1.375,-1.0755 3.4574,-1.9655 4.6275,-1.9778 2.2906,-0.024 4.7759,-2.2855 3.6971,-3.3642 -0.3619,-0.3619 0.2958,-0.658 1.4616,-0.658 2.5569,0 7.2138,-2.0098 7.2138,-3.1133 0,-0.4357 2.8125,-1.64099 6.25,-2.67839 4.9718,-1.5005 7.2725,-2.9358 11.25,-7.0183 6.6935,-6.8703 7.4843,-7.8724 6.7732,-8.5834 -0.3336,-0.3336 -0.097,-0.6066 0.5256,-0.6066 0.6227,0 2.473,-1.2375 4.1118,-2.75 4.0003,-3.692 5.1277,-4.5828 8.6153,-6.8071 1.6358,-1.0432 3.1991,-2.1321 3.4741,-2.4198 0.275,-0.2877 2.9362,-1.8022 5.9139,-3.3656 2.9776,-1.5634 5.9995,-3.3634 6.7153,-4 3.3779,-3.0045 4.3828,-3.6575 5.6285,-3.6575 0.7383,0 1.7698,-0.3756 2.2923,-0.8347 0.5225,-0.4591 3.0875,-1.6213 5.700005,-2.5827 3.8745,-1.4259 4.75,-2.1935 4.75,-4.1653 0,-1.6498 0.5643,-2.4173 1.7774,-2.4173 2.8942,0 6.017,-2.7876 6.7228,-6.0012 0.3623,-1.6494 1.2979,-2.9988 2.0792,-2.9988 0.7813,0 1.4206,-0.4004 1.4206,-0.8899 0,-1.1991 8.4556,-5.1101 11.0481,-5.1101 1.1384,0 1.8233,-0.399 1.5219,-0.8867 -0.7463,-1.2075 1.8041,-3.1905 4.3501,-3.3822 1.1439,-0.086 2.0799,-0.5109 2.0799,-0.9439 0,-0.433 0.8788,-0.7872 1.9529,-0.7872 1.879,0 7.0133,-1.9021 8.0471,-2.9812 2.4494,-2.5571 6.115,-3.1842 12.6382,-2.1622 3.774,0.5912 10.125,1.2892 14.1134,1.5512 3.9884,0.2619 7.8134,0.8271 8.5,1.2561 1.3518,0.8445 1.2848,0.8277 7.4107,1.8613 3.5151,0.5932 4.4438,0.3737 5.9723,-1.4114 1.2636,-1.4758 2.9779,-2.1138 5.6799,-2.1138 2.3558,0 4.8648,-0.7825 6.4126,-2 1.3984,-1.1 3.3819,-2 4.4077,-2 1.0258,0 1.8652,-0.45 1.8652,-1 0,-0.55 0.9,-1 2,-1 1.1,0 2,-0.4766 2,-1.059 0,-0.5825 0.4054,-0.8085 0.9009,-0.5022 0.4956,0.3063 4.6581,-0.1947 9.25,-1.1132 4.592,-0.9185 9.5719,-1.6118 11.0665,-1.5406 1.4946,0.071 2.9836,-0.3014 3.309,-0.8278 0.3254,-0.5265 1.8561,-0.9572 3.4016,-0.9572 4.0871,0 20.2785,-2.93571 21.5165,-3.90121 1.7727,-1.3824 6.3694,-2.1551 6.7227,-1.13 0.183,0.5309 3.114,1.0737 6.5133,1.2061 3.3993,0.1324 6.0199,0.5008 5.8234,0.8186 -0.1964,0.3179 0.4768,0.5779 1.4961,0.5779 1.0192,0 1.5921,-0.4223 1.2731,-0.9385 -0.3517,-0.5691 1.9073,-0.713 5.739,-0.3655 4.2662,0.3868 6.6062,1.0862 7.2031,2.15281 0.5219,0.9326 2.211,1.5798 4.123,1.5798 1.7814,0 5.0042,0.9 7.1618,2 2.1575,1.1 4.6377,2 5.5114,2 0.8737,0 2.0359,0.4474 2.5827,0.9942 0.5468,0.5468 2.2118,1.0949 3.7,1.2181 1.4882,0.1231 2.7059,0.5758 2.7059,1.0058 0,0.43 0.675,0.7819 1.5,0.7819 0.825,0 1.5,0.4012 1.5,0.8916 0,0.4904 1.067,1.1594 2.3711,1.4867 2.5828,0.6483 6.8952,5.7116 8.0943,9.5038 0.5309,1.679 0.9838,2.009 1.5346,1.1179 0.5676,-0.9185 0.9553,-0.7162 1.4174,0.7398 0.4495,1.4165 1.7929,2.1592 4.5819,2.5333 2.1702,0.2911 4.6338,1.2172 5.4746,2.058 1.2164,1.2163 4.232,1.5311 14.7547,1.5401 8.5346,0.01 13.4665,-0.378 13.9043,-1.0863 0.4903,-0.7934 1.8827,-0.7741 5.0227,0.07 2.3894,0.642 5.8069,1.2581 7.5945,1.3691 2.0854,0.1295 3.4476,0.824 3.8011,1.938 0.3031,0.9548 1.3865,2.0012 2.4075,2.3253 1.0211,0.3241 2.1089,1.2471 2.4175,2.0512 0.3085,0.804 1.5876,1.4647 2.8424,1.4681 1.2547,0 3.6314,0.7105 5.2814,1.5714 4.3444,2.2668 13.8171,5.3445 14.7241,4.7839 1.1009,-0.6804 0.961,-4.1471 -0.2593,-6.4272 -0.7136,-1.3334 -0.7136,-1.9343 0,-1.9343 0.5693,0 1.0352,0.675 1.0352,1.5 0,0.825 0.3937,1.5 0.875,1.5 0.4812,0 1.145,1.35 1.475,3 0.33,1.65 1.2381,3 2.018,3 0.7799,0 1.677,0.675 1.9936,1.5 0.3398,0.8856 1.8415,1.5 3.666,1.5 1.6997,0 2.8536,0.3832 2.5641,0.8515 -0.2894,0.4684 1.1596,1.3566 3.2201,1.974 7.2832,2.1821 22.1882,11.1741 22.1882,13.3858 0,0.4798 0.9201,1.86 2.0448,3.0672 2.375,2.5493 4.9552,7.4309 4.9552,9.3751 0,0.7405 0.45,1.3464 1,1.3464 0.55,0 1,0.8312 1,1.847 0,1.0158 0.8459,2.8224 1.8799,4.0146 1.6223,1.8705 2.9591,2.1748 9.75,2.2195 7.4339,0.049 13.9545,1.1313 17.4101,2.8899 0.8471,0.431 3.2096,0.6513 5.25,0.4894 2.0405,-0.1619 3.712,0.01 3.7144,0.3726 0,0.3669 1.6079,0.74959 3.5676,0.85059 1.9597,0.101 4.1366,0.6596 4.8375,1.2413 0.701,0.5818 1.5706,0.7616 1.9325,0.3998 0.3619,-0.3619 0.658,-0.133 0.658,0.5086 0,0.6417 0.9223,1.1667 2.0496,1.1667 1.1273,0 3.3905,0.6934 5.0294,1.5409 1.6388,0.8474 3.4165,1.2709 3.9503,0.9409 0.5339,-0.3299 0.9707,-0.1233 0.9707,0.4592 0,0.5824 0.8734,1.059 1.9409,1.059 1.0676,0 2.2191,0.45 2.5591,1 0.3399,0.55 1.6899,1 3,1 1.31,0 2.66,0.45 3,1 0.3399,0.55 1.7369,1 3.1044,1 1.3827,0 3.687,1.2135 5.191,2.7338 1.4875,1.5035 3.1182,2.6031 3.6238,2.4435 0.5056,-0.1596 0.4025,0.3325 -0.2291,1.0936 -0.9074,1.0934 -0.5317,1.8398 1.7902,3.5565 1.61627,1.1949 4.08189,2.1726 5.47916,2.1726 1.8981,0 2.54049,0.5206 2.54049,2.059 0,1.1325 0.45318,1.779 1.00706,1.4366 0.55389,-0.3423 1.27703,0.081 1.60699,0.941 0.32996,0.8599 1.15455,1.5634 1.83242,1.5634 0.67788,0 1.71232,1.0531 2.29877,2.3402 0.58645,1.2871 3.69618,4.0602 6.91051,6.1624 3.21434,2.1022 5.98487,3.9273 6.15673,4.0556 0.17187,0.1284 0.52144,1.9678 0.77682,4.0876 0.52334,4.344 1.08776,6.6591 2.5655,10.5232 0.8845,2.3128 1.50942,2.6294 4.68296,2.3726 2.01423,-0.163 4.11224,-0.4049 4.66224,-0.5374 2.16863,-0.5227 3.55364,0.1156 6.5,2.9958 2.01425,1.969 4.08811,3 6.03448,3 1.63104,0 2.96552,0.45 2.96552,1 0,0.55 -0.45,1 -1,1 -0.55,0 -1,0.675 -1,1.5 0,0.825 0.85186,1.5 1.89301,1.5 1.04116,0 2.13898,0.641 2.43962,1.4244 0.7748,2.0191 7.29251,4.9069 9.67102,4.2849 1.29627,-0.339 1.99635,-0.029 1.99635,0.8843 0,0.9406 1.15911,1.4064 3.5,1.4064 1.925,0 3.50285,0.3375 3.50632,0.75 0.003,0.4125 1.3096,1.4914 2.90248,2.3975 2.10233,1.196 3.19699,1.3467 3.99368,0.55 0.79669,-0.7967 1.09752,-0.6658 1.09752,0.4775 0,1.0103 0.88989,1.575 2.48176,1.575 1.36497,0 2.30162,-0.2915 2.08145,-0.6477 -0.22018,-0.3563 1.36303,-0.6478 3.51824,-0.6478 2.66466,0 3.91855,0.4415 3.91855,1.3798 0,0.8155 0.61333,1.1443 1.5,0.8041 1.06305,-0.408 1.5,0.089 1.5,1.7044 0,2.4529 3.30684,6.636 5.28896,6.6905 1.63888,0.045 5.71104,3.5225 5.71104,4.877 0,0.5993 0.4875,1.0897 1.08333,1.0897 0.59584,0 0.89657,0.5603 0.66829,1.2451 -0.22827,0.6848 1.08033,2.8224 2.908,4.75 1.82767,1.9277 3.32902,3.9549 3.33633,4.5049 0.007,0.55 1.30357,2.3764 2.88057,4.0587 1.577,1.6823 3.17939,4.0421 3.56088,5.2441 0.38149,1.2019 1.42062,2.9124 2.30918,3.8009 0.88856,0.8886 1.67635,2.8037 1.75064,4.2559 0.0743,1.4522 0.66903,3.6256 1.32164,4.8297 0.77666,1.433 0.83924,2.404 0.18114,2.8107 -2.23482,1.3812 5.74312,10.4119 9.25,10.4707 0.9625,0.016 1.75,0.596 1.75,1.2888 0,1.5984 3.76792,4.002 5.04068,3.2154 0.52762,-0.3261 0.95932,0.1086 0.95932,0.9661 0,0.8574 0.675,1.559 1.5,1.559 0.825,0 1.5,0.45 1.5,1 0,0.55 0.675,1 1.5,1 0.825,0 1.5,0.45 1.5,1 0,0.55 0.675,1 1.5,1 0.825,0 1.5,0.6488 1.5,1.4417 0,0.9592 1.0879,1.443 3.25,1.4455 1.7875,0 4.77642,0.3138 6.64205,0.6927 1.99171,0.4044 3.1573,0.309 2.82342,-0.2313 -0.31275,-0.506 0.30947,-0.92 1.38271,-0.92 1.28144,0 1.76291,0.491 1.40247,1.4303 -0.59738,1.5568 2.13182,5.1411 3.91456,5.1411 0.60787,0 2.31849,1.125 3.80136,2.5 1.48288,1.375 3.16578,2.5 3.73979,2.5 0.574,0 1.04364,0.3402 1.04364,0.7559 0,0.4157 1.23823,1.304 2.75162,1.9739 1.5134,0.6699 3.2009,2.0567 3.75,3.0818 0.54911,1.0251 2.57129,4.2994 4.49374,7.2761 1.92245,2.9768 3.36654,5.805 3.20911,6.285 -0.15744,0.48 0.38423,0.6154 1.20371,0.3009 0.94002,-0.3607 1.30995,-0.1026 1.00225,0.6992 -0.53079,1.3832 3.53844,3.6272 6.57761,3.6272 1.04166,0 2.17204,0.45 2.51196,1 0.33992,0.55 1.48805,1 2.55141,1 2.09947,0 7.14106,3.8796 6.4644,4.9744 -0.41769,0.6759 9.32915,3.6068 10.73419,3.2279 0.4125,-0.1113 0.75,0.2477 0.75,0.7977 0,0.55 1.35,1 3,1 2.53333,0 3,0.3889 3,2.5 0,2.6827 0.93357,3.1664 2.70066,1.3993 0.80089,-0.8008 1.28226,-0.5285 1.76744,1 0.4615,1.4543 1.5016,2.1007 3.3801,2.1007 2.0946,0 2.9707,0.6819 3.8421,2.9903 1.2939,3.4281 5.19243,5.3104 9.13863,4.4124 5.472,-1.2452 9.7672,-1.1161 13.0467,0.3921 6.2819,2.8888 21.6038,1.4079 19.5649,-1.8911 -0.2351,-0.3804 1.4699,-1.4509 3.7889,-2.3788 2.8543,-1.1421 4.3349,-1.3321 4.5828,-0.5882 0.3487,1.046 1.3364,2.0786 4.5465,4.7532 0.7855,0.6544 1.7011,0.9169 2.0347,0.5833 0.3337,-0.3336 0.6066,-0.055 0.6066,0.6192 0,0.6741 0.3524,1.0078 0.7832,0.7416 0.4307,-0.2662 2.9348,-0.025 5.5646,0.5358 3.5194,0.7506 5.0707,1.6546 5.8773,3.425 0.6028,1.3228 1.4737,2.4052 1.9354,2.4052 0.4617,0 0.8395,0.675 0.8395,1.5 0,0.8333 0.8889,1.5 2,1.5 1.1,0 2,0.45 2,1 0,0.55 1.1321,1 2.5157,1 3.2115,0 10.4843,2.25 10.4843,3.2435 0,0.4161 0.9,0.7565 2,0.7565 1.1,0 2,0.45 2,1 0,0.55 0.7275,1 1.6166,1 1.179,0 1.489,0.6672 1.1453,2.4651 -0.2592,1.3558 -0.053,2.6047 0.4589,2.7752 0.5116,0.1705 0.6291,1.5097 0.2611,2.976 -0.4728,1.8834 -1.5212,2.8531 -3.5721,3.3035 -2.8909,0.635 -9.281,-0.8845 -11.6598,-2.7726 -0.6875,-0.5456 -1.25,-0.626 -1.25,-0.1785 0,0.4475 -0.6067,-0.016 -1.3483,-1.0303 -0.7416,-1.0142 -1.8666,-1.5236 -2.5,-1.1322 -0.65,0.4018 -1.1517,0.1283 -1.1517,-0.6279 0,-1.8995 -5.6262,-4.0615 -11.5,-4.4193 -8.3616,-0.5093 -8.5742,-0.5646 -7.4356,-1.9366 1.1586,-1.396 -0.3997,-2.9513 -1.979,-1.9752 -0.503,0.3109 -1.0655,0.1254 -1.25,-0.4123 -0.2065,-0.6018 -1.8056,-0.4709 -4.1606,0.3407 -3.8281,1.3193 -9.0729,1.0776 -8.1742,-0.3766 1.0867,-1.7583 -2.7561,-3.0916 -10.3895,-3.605 -6.7107,-0.4513 -8.1111,-0.2921 -8.1111,0.9219 0,1.9549 -3.9352,2.8499 -7.7369,1.7596 -2.7271,-0.7821 -3.1154,-0.6282 -3.5007,1.3871 -0.2383,1.2468 0.1502,3.0649 0.8634,4.0403 0.8498,1.1622 0.9854,2.355 0.3934,3.4612 -0.9918,1.8533 0.6263,7.6989 2.8844,10.4197 0.7377,0.8889 0.883,1.6162 0.3229,1.6162 -1.2585,0 -0.9583,7.8934 0.3356,8.8249 0.5159,0.3713 1.0128,1.8001 1.1043,3.1751 0.091,1.375 0.638,4.3 1.2145,6.5 0.5765,2.2 1.7827,7.4495 2.6806,11.6655 0.8978,4.216 2.4888,8.5847 3.5355,9.7082 1.0466,1.1235 1.903,2.5596 1.903,3.1915 0,0.6318 0.6521,0.8986 1.4491,0.5927 0.8663,-0.3324 1.2668,-0.074 0.9959,0.64296 -0.2493,0.6595 0.8976,2.7741 2.5486,4.6991 1.6509,1.925 3.0028,4.0625 3.0041,4.75 0,0.6875 0.4523,1.25 1.0023,1.25 0.55,0 1,0.675 1,1.5 0,0.825 0.48,1.5 1.0667,1.5 0.5867,0 2.4992,1.09 4.25,2.4221 1.7508,1.3322 4.4023,2.7264 5.8923,3.0982 1.4899,0.3717 3.2325,1.3068 3.8724,2.0778 0.6399,0.7711 2.2334,1.4019 3.541,1.4019 1.3077,0 2.3804,0.3375 2.3839,0.75 0,0.4125 1.466,1.6195 3.25,2.6821 3.6014,2.1452 8.6297,2.8315 10.3884,1.4178 0.6296,-0.506 1.5296,-0.8456 2,-0.7545 0.4704,0.091 2.3491,-0.4537 4.1749,-1.2105 2.589,-1.0731 3.2284,-1.8533 2.9051,-3.5445 -0.2887,-1.5104 0.297,-2.5493 1.9304,-3.4234 1.2897,-0.6902 2.3449,-1.8539 2.3449,-2.586 0,-0.732 0.5051,-1.331 1.1224,-1.331 0.7676,0 0.7226,-0.4818 -0.1425,-1.5242 -0.6957,-0.8383 -0.9797,-1.8093 -0.6311,-2.158 0.3486,-0.3486 0.1042,-1.272 -0.5432,-2.052 -0.9159,-1.1036 -0.86,-1.6141 0.2517,-2.3012 1.0233,-0.6324 1.6879,-0.2561 2.3419,1.3262 0.5023,1.2151 0.8741,2.4533 0.8262,2.7516 -0.2029,1.265 4.3602,0.7376 5.9329,-0.6857 1.5597,-1.4115 1.9197,-1.362 3.9671,0.5455 2.4424,2.2754 4.3997,2.6752 5.3746,1.0978 1.0109,-1.6357 7.6554,-1.1418 14.0347,1.0434 3.2809,1.1238 6.5325,2.2365 7.2258,2.4726 0.6933,0.2361 1.5757,0.4083 1.961,0.3826 2.1463,-0.1429 3.0136,9.5258 1.0285,11.4659 -1.636,1.5988 -7.4877,1.9292 -12.8462,0.7252 -5.8462,-1.3135 -10.2506,1.1975 -10.3668,5.9103 -0.029,1.1815 -1.3642,1.4767 -6.287,1.3901 -5.5215,-0.097 -6.25,0.1124 -6.25,1.7982 0,1.1756 -1.1582,2.3952 -3.0167,3.1767 -1.6591,0.6976 -2.7091,1.5759 -2.3333,1.9517 0.6056,0.6055 -1.8915,1.1189 -3.9,0.8017 -1.7257,-0.2725 -0.5331,1.7713 2.5,4.284 1.7875,1.4808 3.3063,3.1211 3.375,3.645 0.069,0.5239 0.2226,1.0651 0.3419,1.2026 0.1192,0.1375 0.2989,1.825 0.3991,3.75 0.1003,1.925 0.5104,4.0219 0.9114,4.6598 0.401,0.6378 0.4262,1.9492 0.056,2.914 -0.4401,1.147 -0.2921,1.5188 0.4277,1.0739 0.6054,-0.3742 1.3776,-0.2325 1.7158,0.3148 0.5775,0.9343 1.3365,6.2928 1.4656,10.3465 0.032,0.995 0.5076,1.5309 1.0576,1.191 0.55,-0.3399 1,0.282 1,1.382 0,1.1 0.3651,2.2256 0.8113,2.5014 0.4462,0.2758 0.7088,1.9812 0.5836,3.7898 -0.1252,1.8086 0.01,3.6719 0.299,4.1405 1.1097,1.7955 1.4174,23.8472 0.3507,25.1325 -1.1972,1.4426 0.3351,15.7099 2.0196,18.8038 0.7492,1.3761 0.5619,1.75 -0.8764,1.75 -1.6139,0 -1.7537,0.5885 -1.1878,5 0.3528,2.75 0.2833,5 -0.1545,5 -0.4378,0 -0.3902,1.0674 0.1058,2.3719 1.1125,2.9261 0.5694,18.7611 -0.73,21.284 -0.5223,1.0143 -1.1953,3.7737 -1.4955,6.1322 -0.3001,2.3585 -1.3522,5.5085 -2.338,7 -2.1579,3.2651 -1.8787,7.7137 0.7124,11.3526 1.1229,1.5769 1.8998,4.3429 1.8998,6.7637 0,2.2526 0.445,4.0956 0.9888,4.0956 0.5438,0 0.9909,1.0125 0.9935,2.25 0.025,11.7617 0.1834,13.7656 1.0486,13.2309 0.533,-0.3294 0.9691,0.2795 0.9691,1.3531 0,1.0736 -0.7135,2.2258 -1.5856,2.5605 -1.3343,0.512 -1.471,1.6781 -0.8622,7.357 0.3978,3.7117 0.6962,7.4235 0.6629,8.2485 -0.033,0.825 -0.04,3.075 -0.015,5 0.1489,11.4401 -0.1689,23.7391 -0.6644,25.7135 -0.3157,1.2576 -1.2748,2.2865 -2.1315,2.2865 -1.1825,0 -1.4907,0.9029 -1.2799,3.75 0.1856,2.5062 -0.1207,3.6671 -0.9234,3.5 -1.6697,-0.3476 -1.5065,2.2516 0.232,3.6944 1.2379,1.0274 1.2147,1.4443 -0.171,3.0625 -0.8821,1.0303 -1.7641,3.1378 -1.9599,4.6832 -0.1959,1.5455 -0.4941,3.9694 -0.6629,5.3865 -0.1688,1.4172 -0.573,3.0073 -0.8983,3.5336 -0.5677,0.9186 -0.2669,6.5637 0.687,12.8898 0.2487,1.65 0.016,4.3977 -0.5178,6.106 -1.4122,4.5215 0.1166,7.5308 7.5809,14.9219 6.0236,5.9647 7.0254,7.4662 6.5804,9.8631 -0.091,0.4901 0.4966,2.2901 1.3058,4 0.8092,1.71 2.3634,6.484 3.4537,10.609 1.0904,4.125 2.3945,8.625 2.898,10 0.5036,1.375 0.7894,3.8427 0.6353,5.4837 -0.3014,3.2078 2.988,9.7151 6.5322,12.9225 2.2403,2.0275 2.9271,7.5938 0.9369,7.5938 -0.6416,0 -0.8881,0.2786 -0.5476,0.6191 1.2185,1.2184 -2.2023,3.3809 -5.3483,3.3809 -3.4361,0 -11.1132,-1.9721 -11.9374,-3.0665 -0.275,-0.3652 -1.4567,-0.9622 -2.626,-1.3268 -1.6535,-0.5154 -2.256,-0.1661 -2.7104,1.5716 -0.3213,1.2289 -0.8997,1.9189 -1.2853,1.5334 -0.3855,-0.3856 -1.8377,0.984 -3.227,3.0436 -3.8848,5.7592 -8.5385,8.8008 -11.6426,7.6097 -1.6225,-0.6227 -2.0824,-4.8924 -0.624,-5.7937 0.4866,-0.3008 1.1246,-1.7898 1.4177,-3.3091 0.2931,-1.5192 1.0546,-4.5622 1.6922,-6.7622 1.277,-4.4068 1.9469,-17.9767 0.9657,-19.5642 -1.1312,-1.8304 -3.8275,0.1831 -4.5303,3.3831 -0.3808,1.7335 -1.2641,4.0584 -1.963,5.1664 -0.6989,1.1081 -1.575,3.4745 -1.947,5.2587 -0.372,1.7843 -1.4286,3.6651 -2.3481,4.1797 -0.9196,0.5146 -1.4604,1.0798 -1.2019,1.256 0.6722,0.458 -5.9007,10.0284 -8.1272,11.8335 -1.0265,0.8323 -2.0581,2.4073 -2.2923,3.5 -0.8722,4.0691 -4.3726,16.6422 -4.7338,17.0034 -0.206,0.2061 -1.0016,-0.013 -1.7679,-0.4864 z m -23.0488,-21.602 c 0,-0.1968 -0.8558,-0.8159 -1.9018,-1.3757 -1.6053,-0.8591 -1.8238,-0.7194 -1.4015,0.8957 0.2966,1.1343 1.071,1.6944 1.9018,1.3756 0.7708,-0.2958 1.4015,-0.6988 1.4015,-0.8956 z m -21.4761,-7.3528 c -0.3623,-1.1415 -1.0687,-2.0754 -1.5698,-2.0754 -0.5012,0 -0.3978,1.1269 0.2298,2.5042 1.3302,2.9196 2.3039,2.608 1.34,-0.4288 z m 36.4268,0.484 c 0.6575,-0.7923 1.8376,-1.1941 2.6224,-0.893 0.7848,0.3012 1.4269,0.049 1.4269,-0.5594 0,-0.6089 -0.4658,-1.107 -1.0352,-1.107 -0.6877,0 -0.6605,-0.7001 0.081,-2.0856 0.6139,-1.1472 0.8959,-2.3061 0.6265,-2.5754 -0.2693,-0.2694 -0.7906,0.4582 -1.1583,1.6168 -0.3677,1.1586 -1.8667,3.2176 -3.3311,4.5754 -1.4643,1.3578 -2.1597,2.4688 -1.5451,2.4688 0.6145,0 1.6553,-0.6483 2.3129,-1.4406 z m -91.4934,-3.4903 c 0.31644,-0.512 0.11799,-1.2136 -0.44098,-1.559 -0.55897,-0.3455 -1.01631,0.073 -1.01631,0.9309 0,1.7565 0.60006,2.0151 1.45729,0.6281 z m 1.54271,-7.6281 c 0,-1.4075 -0.40775,-2.307 -0.90612,-1.999 -0.49837,0.308 -0.67088,1.4595 -0.38337,2.559 0.71955,2.7515 1.28949,2.504 1.28949,-0.56 z m 94.99999,1.166 c 0,-0.7662 -0.6684,-1.6495 -1.4854,-1.963 -1.2424,-0.4768 -1.2848,-0.2489 -0.2594,1.393 1.4554,2.3305 1.7448,2.425 1.7448,0.57 z m -7.6746,-1.6573 c -1.4007,-1.3595 -15.6938,-2.9717 -16.3879,-1.8485 -0.3396,0.5495 -1.5583,1.0699 -2.7082,1.1565 -1.1499,0.087 -1.881,0.4969 -1.6246,0.9117 0.2563,0.4148 1.6045,0.3214 2.9958,-0.2076 3.4886,-1.3264 6.7046,-1.2037 9.7409,0.3715 2.6471,1.3734 9.4571,1.0462 7.984,-0.3836 z m -86.64228,-6.1372 c -0.31922,-0.7977 -0.55618,-0.5608 -0.60416,0.6042 -0.0434,1.0541 0.19293,1.6448 0.52522,1.3125 0.33229,-0.3323 0.36781,-1.1948 0.0789,-1.9167 z m 25,-45 c -0.31922,-0.7977 -0.55618,-0.5608 -0.60416,0.6042 -0.0434,1.0541 0.19293,1.6448 0.52522,1.3125 0.33229,-0.3323 0.36781,-1.1948 0.0789,-1.9167 z m 15.99999,-107 c -0.3192,-0.7977 -0.5562,-0.5608 -0.6042,0.6042 -0.043,1.0541 0.193,1.6448 0.5253,1.3125 0.3323,-0.3323 0.3678,-1.1948 0.079,-1.9167 z m -45.95393,-73.4167 c -0.33229,-0.3323 -1.1948,-0.3678 -1.91667,-0.079 -0.79773,0.3193 -0.56078,0.5562 0.60417,0.6042 1.05416,0.043 1.64479,-0.1929 1.3125,-0.5252 z m -871.5364,-145.0784 c 0.3066,-4.8088 0.3018,-4.8169 -2.6928,-4.5271 -1.65,0.1596 -3.7769,1.2846 -4.7265,2.5 -0.9496,1.2153 -2.653,3.2222 -3.7853,4.4597 -2.2537,2.4631 -2.1721,2.521 3.208,2.2743 2.7658,-0.1268 4.02,0.3491 4.9826,1.8904 1.2493,2.0005 1.3069,2.0045 1.9966,0.1401 0.3907,-1.056 0.8485,-4.0878 1.0174,-6.7374 z M 460.401,407.39196 c 0.3399,-0.55 -0.1101,-1 -1,-1 -0.8899,0 -1.3399,0.45 -1,1 0.3399,0.55 0.7899,1 1,1 0.2101,0 0.6601,-0.45 1,-1 z m 0.2292,-2.6042 c -0.3323,-0.3323 -1.1948,-0.3678 -1.9167,-0.079 -0.7977,0.3193 -0.5608,0.5562 0.6042,0.6042 1.0541,0.043 1.6448,-0.1929 1.3125,-0.5252 z m 342.27079,320.16316 c 0,-0.8574 0.45,-1.559 1,-1.559 0.55,0 1,0.4234 1,0.941 0,0.5175 -0.45,1.2191 -1,1.559 -0.55,0.3399 -1,-0.083 -1,-0.941 z m -95.92105,-123.1423 c 0.048,-1.165 0.28494,-1.4019 0.60416,-0.6042 0.28887,0.7219 0.25335,1.5844 -0.0789,1.9167 -0.33229,0.3323 -0.56864,-0.2584 -0.52522,-1.3125 z m 7.92105,-7.9167 c 0,-0.825 0.43588,-1.5 0.96862,-1.5 0.53273,0 0.70959,0.675 0.39301,1.5 -0.31659,0.825 -0.75246,1.5 -0.96862,1.5 -0.21615,0 -0.39301,-0.675 -0.39301,-1.5 z m -81,-18.5 c 0,-2.0859 0.77622,-2.4068 3.39251,-1.4029 1.33531,0.5124 1.35705,0.7962 0.15322,2 -1.99618,1.9962 -3.54573,1.7353 -3.54573,-0.5971 z m 54,-1.559 c 0,-0.8575 0.45734,-1.2764 1.01631,-0.9309 0.55897,0.3454 0.75742,1.047 0.44098,1.559 -0.85723,1.387 -1.45729,1.1284 -1.45729,-0.6281 z m -3,-1.441 c 0,-0.55 0.45,-1 1,-1 0.55,0 1,0.45 1,1 0,0.55 -0.45,1 -1,1 -0.55,0 -1,-0.45 -1,-1 z m -34.37838,-12.75 c 0.94185,-3.926 1.37838,-4.0579 1.37838,-0.4167 0,1.7417 -0.45857,3.1667 -1.01905,3.1667 -0.60496,0 -0.75097,-1.1175 -0.35933,-2.75 z m -824.88835,-70.37406 c 0.6784,-0.6834 1.4853,-0.9907 1.7932,-0.6828 0.3078,0.3079 -0.2472,0.8671 -1.2334,1.2426 -1.4252,0.5427 -1.54,0.4278 -0.5598,-0.5598 z m 22.7667,-16.8759 c -0.3399,-0.55 -0.1415,-1 0.441,-1 0.5824,0 1.059,0.45 1.059,1 0,0.55 -0.1984,1 -0.441,1 -0.2425,0 -0.7191,-0.45 -1.059,-1 z m 950.70322,-50.6277 c 0.87481,-2.3939 1.4312,-2.8632 2.37138,-2 0.90423,0.8301 0.92453,1.2365 0.0769,1.5399 -0.63331,0.2268 -1.70043,1.1268 -2.37138,2 -0.96929,1.2616 -0.98509,0.9453 -0.0769,-1.5399 z m -902.63682,-32.3253 c -1.4284,-0.5186 -1.6016,-0.9072 -0.6629,-1.4874 0.6989,-0.4319 1.7641,-0.292 2.367,0.3109 1.4754,1.4754 0.6634,2.036 -1.7041,1.1765 z m -10.901,-12.0691 c -1.5591,-0.4676 -3.426,-0.6232 -4.1489,-0.3459 -0.7228,0.2774 -1.6158,0.016 -1.9845,-0.5801 -0.3686,-0.5965 -1.0891,-0.8256 -1.6011,-0.5092 -1.2058,0.7452 -1.1685,-0.6277 0.069,-2.5427 0.6462,-1 0.9745,-1.0833 0.9847,-0.25 0.01,0.6875 0.6903,1.25 1.5153,1.25 0.825,0 1.5,-0.5188 1.5,-1.153 0,-0.6342 0.7933,-0.2384 1.7628,0.8795 1.3011,1.5002 2.7383,1.9552 5.4874,1.737 3.2126,-0.2549 3.53,-0.1008 2.3086,1.1205 -1.5792,1.5792 -1.8754,1.599 -5.8934,0.3939 z m -20.5505,-3.3708 c -1.5401,-0.8537 -1.983,-1.5706 -1.25,-2.0236 0.6243,-0.3858 1.6354,-0.3923 2.2469,-0.014 0.6115,0.3779 1.5539,0.067 2.0943,-0.691 0.7434,-1.0426 0.8351,-0.925 0.3769,0.4831 -0.5125,1.575 -0.2193,1.7643 1.9057,1.231 1.3812,-0.3467 2.5113,-0.2242 2.5113,0.2721 0,0.4964 -1.0125,1.1738 -2.25,1.5054 -2.9048,0.7785 -2.8387,0.7874 -5.6351,-0.7626 z m -15.6078,-4.5956 c -0.3504,-0.5669 0.051,-0.7346 0.941,-0.3931 1.7324,0.6648 2.0493,1.3816 0.6109,1.3816 -0.5175,0 -1.2159,-0.4449 -1.5519,-0.9885 z m -32,-4 c -0.3504,-0.5669 0.051,-0.7346 0.941,-0.3931 1.7324,0.6648 2.0493,1.3816 0.6109,1.3816 -0.5175,0 -1.2159,-0.4449 -1.5519,-0.9885 z m -5.0071,-1.0115 c -0.3399,-0.55 -0.1415,-1 0.441,-1 0.5824,0 1.059,0.45 1.059,1 0,0.55 -0.1984,1 -0.441,1 -0.2425,0 -0.7191,-0.45 -1.059,-1 z m 767.50003,-142 c 0,-0.55 0.45,-1 1,-1 0.55,0 1,0.45 1,1 0,0.55 -0.45,1 -1,1 -0.55,0 -1,-0.45 -1,-1 z M 276.9799,121.80866 c 0.048,-1.165 0.285,-1.4019 0.6042,-0.6042 0.2889,0.7219 0.2534,1.5844 -0.079,1.9167 -0.3323,0.3323 -0.5686,-0.2584 -0.5252,-1.3125 z"
       id="path3046"
       inkscape:connector-curvature="0" />
  </g>
</svg>
