<?xml version="1.0" encoding="UTF-8" standalone="no"?>
<!-- Created with Inkscape (http://www.inkscape.org/) -->

<svg
   xmlns:dc="http://purl.org/dc/elements/1.1/"
   xmlns:cc="http://creativecommons.org/ns#"
   xmlns:rdf="http://www.w3.org/1999/02/22-rdf-syntax-ns#"
   xmlns:svg="http://www.w3.org/2000/svg"
   xmlns="http://www.w3.org/2000/svg"
   xmlns:sodipodi="http://sodipodi.sourceforge.net/DTD/sodipodi-0.dtd"
   xmlns:inkscape="http://www.inkscape.org/namespaces/inkscape"
   width="744.09448819"
   height="1052.3622047"
   id="svg3848"
   version="1.1"
   inkscape:version="0.48.4 r9939"
   sodipodi:docname="New document 10">
  <defs
     id="defs3850" />
  <sodipodi:namedview
     id="base"
     pagecolor="#ffffff"
     bordercolor="#666666"
     borderopacity="1.0"
     inkscape:pageopacity="0.0"
     inkscape:pageshadow="2"
     inkscape:zoom="0.35"
     inkscape:cx="375"
     inkscape:cy="520"
     inkscape:document-units="px"
     inkscape:current-layer="layer1"
     showgrid="false"
     inkscape:window-width="934"
     inkscape:window-height="435"
     inkscape:window-x="0"
     inkscape:window-y="59"
     inkscape:window-maximized="0" />
  <metadata
     id="metadata3853">
    <rdf:RDF>
      <cc:Work
         rdf:about="">
        <dc:format>image/svg+xml</dc:format>
        <dc:type
           rdf:resource="http://purl.org/dc/dcmitype/StillImage" />
        <dc:title></dc:title>
      </cc:Work>
    </rdf:RDF>
  </metadata>
  <g
     inkscape:label="Layer 1"
     inkscape:groupmode="layer"
     id="layer1">
    <path
       style="fill:#000063;fill-opacity:1"
       d="m -109.92474,1006.9389 c 0,-2.1504 3.0127,-5.5395 7.5909,-8.53933 1.325,-0.8681 2.409101,-2.2233 2.409101,-3.0114 0,-1.589 4.5751,-5.9696 7.1506,-6.8466 0.9078,-0.3092 1.9112,-1.5585 2.2298,-2.7762 0.5514,-2.1077 6.4557,-6.7142 8.6056,-6.7142 0.5577,0 1.014,-0.4299 1.014,-0.9554 0,-0.5254 3.1938,-2.8527 7.0973,-5.1717 3.9035,-2.3191 7.3267,-4.8142 7.607,-5.5447 0.2803,-0.7305 0.98,-1.3282 1.5548,-1.3282 0.5749,0 2.8892,-1.3786 5.143,-3.0636 2.2539,-1.685 7.167,-5.2655 10.9181,-7.9566 3.7511,-2.6912 8.4761,-6.2651 10.5,-7.9422 2.0239,-1.6771 9.1923,-7.1538 15.9298,-12.1705 6.7375,-5.0167 12.2499999,-9.5141 12.2499999,-9.9942 0,-0.4801 0.4267,-0.8729 0.9483,-0.8729 0.7984,0 19.1269001,-13.1925 24.1256001,-17.3651 0.8657,-0.7226 3.1069,-2.1736 4.9806,-3.2244 1.8736,-1.0508 4.1616,-2.829 5.0844,-3.9516 0.9227,-1.1227 5.2064,-4.7163 9.5194,-7.9859 4.3129,-3.2696 8.0667,-6.2213 8.341702,-6.5594 0.275,-0.338 2.3,-1.752 4.5,-3.1421 2.2,-1.3902 6.389,-4.8324 9.3088,-7.6495 2.9198,-2.8171 5.709,-5.122 6.1981,-5.122 1.0043,0 10.9596,-8.1255 15.5019,-12.6527 1.6452,-1.6397 3.728,-3.4011 4.6285,-3.9143 1.6183,-0.9222 16.4549,-14.1859 24.534197,-21.933 7.95,-7.6233 13.8591,-13.0263 20.2329,-18.5 21.2769,-18.27236 27.5052,-23.99996 26.0976,-23.99996 -1.5556,0 2.6361,-4.6082 6.349,-6.98 l 2.8511,-1.8211 -2.3511,-0.7433 c -6.0602,-1.9161 -10.894,-7.6575 -12.3725,-14.6956 l -0.6849,-3.26 4.3532,4.0625 c 9.6092,8.9676 11.5009,10.2275 14.4961,9.6549 1.5649,-0.2991 4.1979,-1.8492 5.8511,-3.4447 1.6533,-1.5954 5.3889,-5.0894 8.3014,-7.7644 5.0136,-4.6049 5.3173,-5.1652 5.7081,-10.5325 0.3256,-4.4706 0.9502,-6.1669 2.9547,-8.0246 1.398,-1.2957 2.5418,-2.6322 2.5418,-2.9702 0,-0.3379 1.0136,-2.0469 2.2525,-3.7977 3.3102,-4.678 3.7944,-5.519 16.4975,-28.6509 1.3493,-2.4572 3.6785,-6.2822 5.1758,-8.5 2.4735,-3.6638 13.0742,-24.7787 13.0742,-26.0418 0,-0.2917 1.0588,-2.2089 2.3529,-4.2605 1.2941,-2.0516 6.0693,-10.9301 10.6115,-19.7301 4.5423,-8.8 8.6118,-16.225 9.0434,-16.5 0.4315,-0.275 2.5495,-4.1 4.7065,-8.5 2.1571,-4.4 4.4302,-8.9 5.0514,-10 0.6212,-1.1 5.2382,-10.4375 10.26,-20.75 5.0219,-10.3125 9.5455,-18.75 10.0525,-18.75 0.507,0 0.9218,-0.5863 0.9218,-1.3029 0,-1.4837 6.76024,-15.1917 10.45354,-21.1971 1.353,-2.2 2.9864,-5.575 3.6297,-7.5 0.6433,-1.925 1.7421,-4.175 2.4418,-5 2.9064,-3.4272 5.2388,-8.9004 6.5023,-15.2587 1.1469,-5.7713 1.607,-6.6748 3.1498,-6.1851 2.1355,0.6778 3.0716,-1.2679 4.8384,-10.0562 0.6634,-3.3 1.8313,-7.6966 2.5954,-9.7703 0.764,-2.0736 1.3891,-4.5169 1.3891,-5.4296 0,-2.8969 5.429,-13.2986 7.2421,-13.8755 1.5589,-0.4961 1.5953,-0.8369 0.3466,-3.2395 -0.7676,-1.4768 -4.2515,-5.2814 -7.7421,-8.4547 -3.4906,-3.1732 -7.6966,-8.0022 -9.3466,-10.7311 -1.65,-2.7289 -3.45,-5.0154 -4,-5.0811 -0.55,-0.066 -3.7,-3.161 -7,-6.8783 -3.3,-3.7173 -6.9,-7.29 -8,-7.9392 -1.1,-0.6492 -3.68474,-4.6702 -5.74384,-8.9356 -3.0037,-6.2221 -4.5562,-8.2406 -7.853,-10.2102 -6.7979,-4.0612 -10.3952,-7.5734 -12.9487,-12.6421 -1.3336,-2.6471 -5.5814,-8.15 -9.4396,-12.2287 -3.8582,-4.0787 -7.9162,-8.3754 -9.0177,-9.5482 -3.12,-3.322 -9.7613,-13.8988 -11.0915,-17.664 -0.5625,-1.5922 -5.1685,-4.3925 -6.6557,-4.0464 -0.4125,0.096 -0.75,-0.2755 -0.75,-0.8255 0,-0.55 -0.5625,-1.0308 -1.25,-1.0683 -1.4968,-0.082 -10.3545,-10.1962 -12.6386,-14.4317 -2.5637,-4.7541 -10.4145,-14.7596 -15.2415,-19.4246 -3.1455,-3.0398 -11.8699,-15.1954 -11.8699,-16.5381 0,-0.7462 -3.7231,-5.1098 -8.2735,-9.697 -4.5504,-4.5872 -10.4902,-11.7153 -13.1996,-15.8403 -7.8237,-11.9113 -24.8153,-35.42267 -26.2336,-36.29967 -0.7113,-0.4399 -1.2933,-1.4149 -1.2933,-2.1667 0,-0.7518 -0.3375,-1.517 -0.75,-1.7003 -0.4125,-0.1833 -2.1,-2.3482 -3.75,-4.8109 -1.65,-2.4626 -5.25,-7.6727 -8,-11.57797 -2.75,-3.90527 -6.35,-9.72767 -8,-12.93866 -3.3869,-6.591 -3.6239,-6.92648 -10.2518,-14.5058 -7.797897,-8.91738 -22.484397,-26.14589 -26.426097,-31 -2.0098,-2.475 -4.9294,-5.8864 -6.4881,-7.58089 -1.5587,-1.69448 -5.309,-5.93133 -8.334,-9.41522 -3.025,-3.48389 -14.451,-16.49749 -25.391102,-28.91912 -10.9401,-12.42162 -20.7022,-23.89943 -21.6934,-25.506259 -2.0729,-3.3602 -1.3948,-5.44886 2.4346,-7.49829 2.3195,-1.24133 2.8674,-1.05474 7.3982,2.51934 2.6912,2.12298 6.541,5.89408 8.5552,8.380209 2.0141,2.48613 8.557802,9.57314 14.541402,15.74893 5.9836,6.17578 12.6033,13.37578 14.7105,16 2.1072,2.62421 7.9602,9.0463 13.0067,14.2713 5.0464,5.225 10.4719,10.89611 12.0566,12.60247 1.5847,1.70635 5.8169,6.20635 9.4049,10 3.587997,3.79364 10.337997,11.13224 14.999997,16.30799 4.662,5.17576 11.2187,11.47575 14.5705,14 3.3518,2.52425 8.775,6.83954 12.0516,9.58954 3.2767,2.75 7.9261,6.575 10.3322,8.5 7.806,6.24544 11.74,9.59741 16.6758,14.20873 2.6655,2.4902 7.5518,6.9495 10.8584,9.9095 17.8338,15.9639 29.144,27.21567 32.4879,32.32007 2.7476,4.1941 5.1808,6.7717 9.97,10.5617 1.7375,1.375 5.0267,4.975 7.3092,8 2.2826,3.025 10.298,11.5902 17.8121,19.0339 9.3807,9.2929 14.3294,14.9992 15.7919,18.2097 3.4267,7.522 7.9162,13.4908 10.9404,14.545 1.9597,0.6832 4.0911,3.1348 7.0383,8.0957 2.3251,3.9136 4.627,7.1157 5.1154,7.1157 0.4883,0 1.18184,0.926 1.54114,2.0579 0.3592,1.1319 5.0344,6.4422 10.3892,11.8008 7.4767,7.4819 10.2842,11.0654 12.0982,15.4421 1.2992,3.1345 2.7294,5.6992 3.1782,5.6992 0.4488,0 0.816,0.6954 0.816,1.5454 0,0.85 1.125,2.6705 2.5,4.0455 1.375,1.375 2.5,2.8982 2.5,3.385 0,0.4867 0.9488,1.0288 2.1084,1.2045 1.3378,0.2028 3.622,2.7228 6.25,6.8954 5.1352,8.1535 8.8481,13.4201 14.6416,20.769 6.5553,8.3152 9,11.9199 9,13.2703 0,1.2433 4.6741,7.8928 6.3561,9.0421 0.5289,0.3615 2.9359,0.6274 5.3488,0.5909 3.4489,-0.052 4.2654,-0.3832 3.8184,-1.5481 -1.2309,-3.2075 2.0894,-5.9213 8.1696,-6.6776 3.1939,-0.3973 6.2571,-1.0146 6.8071,-1.3718 1.2578,-0.817 13.047,-2.9662 16.8489,-3.0716 2.5284,-0.07 4.5147,-0.7535 12.1511,-4.1805 3.5155,-1.5776 13.9056,-5.0491 16.75,-5.5964 1.5125,-0.291 2.75,-0.9281 2.75,-1.4156 0,-0.4876 0.8456,-0.8865 1.8792,-0.8865 2.9237,0 13.0928,-4.9824 14.3818,-7.0464 0.7346,-1.1763 1.5522,-1.5236 2.2409,-0.9521 0.6762,0.5612 5.0198,-0.6224 11.5412,-3.145 5.7513,-2.2247 12.0319,-4.547 13.9569,-5.1606 1.925,-0.6137 3.725,-1.4148 4,-1.7802 0.275,-0.3655 2.075,-0.9988 4,-1.4075 1.925,-0.4087 5.272,-1.5902 7.4378,-2.6256 2.1658,-1.0355 4.6783,-1.8826 5.5834,-1.8826 0.905,0 1.9539,-0.3084 2.3308,-0.6854 1.096,-1.096 13.0966,-5.3085 22.398,-7.8622 3.4375,-0.9438 6.25,-2.1067 6.25,-2.5842 0,-0.4775 0.6288,-0.8682 1.3974,-0.8682 0.7685,0 4.1183,-1.35 7.4439,-3 3.3256,-1.65 6.7229,-3 7.5497,-3 0.8267,0 3.6606,-1.1472 6.2976,-2.5493 2.637,-1.402 6.3733,-2.9373 8.3029,-3.4117 7.244,-1.7809 17.0085,-5.7532 17.0085,-6.9193 0,-0.4325 0.5625,-0.8096 1.25,-0.838 5.1413,-0.2123 14.2957,-2.5342 16.6771,-4.2298 1.5849,-1.1286 3.4177,-2.0519 4.0729,-2.0519 0.6552,0 2.3898,-0.8535 3.8548,-1.8966 1.4649,-1.0432 4.6844,-2.4372 7.1544,-3.0978 2.4699,-0.6607 4.9796,-1.6012 5.5771,-2.09 0.5975,-0.4889 2.9695,-1.5533 5.271,-2.3653 6.9787,-2.4622 15.2194,-6.2613 22.1427,-10.2081 4.2798,-2.4397 7.8873,-2.9463 16,-2.2468 5.2166,0.4499 13.2216,-0.5093 13.6539,-1.6359 0.2478,-0.6456 2.3395,-1.7692 4.6483,-2.4968 2.3088,-0.7277 4.6478,-1.6498 5.1978,-2.0493 0.55,-0.3994 3.25,-1.0422 6,-1.4282 2.75,-0.3861 5.9631,-1.3062 7.1401,-2.0447 1.1771,-0.7385 3.4271,-1.5527 5,-1.8094 1.573,-0.2567 3.0849,-0.557 3.3599,-0.6673 0.275,-0.1104 0.8709,-0.1362 1.3243,-0.057 0.4534,0.079 0.5272,-0.3377 0.1639,-0.9254 -0.3632,-0.5877 -0.084,-1.7637 0.6216,-2.6132 1.4588,-1.7578 1.9039,-40.9539 0.5417,-47.7029 -0.668,-3.3096 -0.5404,-3.7892 0.9312,-3.5 0.938,0.1843 2.653,1.6096 3.8113,3.1674 1.848,2.4853 2.0774,4.0166 1.8729,12.5 -0.1282,5.3172 0.1243,11.2427 0.5612,13.1677 0.4971,2.1905 0.2805,5.932 -0.5788,10 -2.6955,12.76 -2.7274,13.3999 -0.6269,12.5709 1.0327,-0.4076 3.3401,-0.9866 5.1276,-1.2868 1.7875,-0.3002 3.25,-0.9369 3.25,-1.4149 0,-0.4781 0.6811,-0.8692 1.5136,-0.8692 1.5224,0 2.3494,-0.341 8.1407,-3.3572 1.7348,-0.9035 4.0907,-1.6428 5.2351,-1.6428 4.5649,0 26.0502,-8.0192 29.0097,-10.8276 0.7695,-0.7302 2.2154,-1.1142 3.2132,-0.8533 0.9978,0.261 2.3358,-0.1541 2.9734,-0.9223 0.6375,-0.7683 2.849,-1.3968 4.9143,-1.3968 2.1056,0 4.2979,-0.6541 4.9909,-1.489 0.6796,-0.819 1.5876,-1.2716 2.0176,-1.0058 0.4301,0.2658 1.0469,-0.2073 1.3708,-1.0513 0.3374,-0.8792 1.5566,-1.4265 2.8548,-1.2815 2.6052,0.291 9.5213,-1.4956 15.1051,-3.9021 2.1116,-0.91 4.6526,-1.7145 5.6467,-1.7877 0.9941,-0.073 2.5988,-0.9245 3.566,-1.8917 1.69253,-1.6925 5.30363,-3.4335 8.45203,-4.0749 4.5706,-0.9312 10.5619,-2.8211 10.9961,-3.4686 0.584,-0.871 13.3396,-6.0474 14.9016,-6.0474 0.5833,0 4.1065,-1.407 7.8295,-3.1266 8.4605,-3.9079 11.7146,-5.2429 16.7689,-6.8796 2.2,-0.7124 5.5869,-2.2946 7.5265,-3.516 1.9396,-1.2214 5.0896,-2.5556 7,-2.9648 1.9104,-0.4092 3.9235,-1.0901 4.4735,-1.513 0.55,-0.423 2.4733,-1.0842 4.2739,-1.4693 1.80073,-0.3851 4.60163,-1.81727 6.22433,-3.18267 1.6227,-1.3654 3.774,-2.3429 4.7809,-2.1724 1.0068,0.1706 2.9309,-0.405 4.2757,-1.279 1.3449,-0.8741 6.2702,-2.8322 10.9452,-4.3514 10.3751,-3.3715 9.8297,-3.1535 13.5219,-5.4061 1.662,-1.014 5.262,-2.1751 8,-2.5803 2.738,-0.4051 5.6754,-1.3597 6.52768,-2.1214 0.8524,-0.7616 3.5524,-2.0876 6,-2.9467 6.2485,-2.193 9.9504,-3.8829 9.9504,-4.5422 0,-0.3097 1.3199,-0.4718 2.933,-0.3601 1.6132,0.1117 3.1512,-0.3655 3.4179,-1.0604 0.2666,-0.6949 1.5343,-1.4901 2.817,-1.7672 1.2826,-0.277 3.1977,-0.8646 4.2557,-1.3058 1.5599,-0.65057 1.7984,-0.47598 1.2615,0.9233 -0.3941,1.0268 -0.2619,1.4781 0.3264,1.1146 0.5437,-0.336 0.9885,-1.4844 0.9885,-2.55195 0,-1.06754 0.4945,-1.94098 1.0989,-1.94098 1.572,0 8.2795,-3.21822 9.049,-4.34172 0.5442,-0.79445 5.6833,-3.01335 9.3521,-4.03792 0.55,-0.1536 2.5569,-0.94411 4.4598,-1.7567 4.78146,-2.0418 8.02156,-0.53664 8.03236,3.73135 0.011,4.37257 -2.5188,6.14411 -9.97446,6.98488 -4.4569,0.5026 -5.8629,0.95752 -4.5,1.456 1.5934,0.58274 1.1974,0.87494 -2.0177,1.48944 -2.2,0.4204 -5.0732,1.5992 -6.3849,2.6195 -1.3116,1.0204 -3.9257,1.8552 -5.809,1.8552 -2.0281,0 -3.1722,0.4077 -2.8061,1 0.3399,0.55 0.1415,1.0562 -0.441,1.125 -0.5824,0.069 -1.437,0.1812 -1.8991,0.25 -0.4621,0.069 -3.2746,1.3275 -6.25,2.7973 -2.9754,1.4697 -10.0333,4.3428 -15.684,6.3845 -5.6508,2.0418 -10.51488,4.1017 -10.80908,4.5777 -0.2941,0.476 -1.2265,0.8655 -2.0718,0.8655 -0.8454,0 -4.9717,1.6299 -9.1698,3.622 -4.198,1.9922 -8.0923,3.7001 -8.654,3.7955 -2.0613,0.35 -11.0855,4.00517 -13.219,5.35427 -1.2088,0.7644 -2.7838,1.5093 -3.5,1.6553 -0.7162,0.1461 -2.569,0.7847 -4.1173,1.4192 -1.5483,0.6345 -3.046,1.1537 -3.3281,1.1537 -1.1376,0 -15.89963,7.3963 -16.46863,8.2514 -0.3365,0.5057 -0.7865,0.8098 -1,0.6758 -1.3075,-0.8205 -8.7932,1.6007 -10.8882,3.5217 -1.5401,1.4122 -4.355,2.531 -7.331,2.9137 -2.6571,0.3417 -8.4739,2.1999 -12.9261,4.1293 -4.4523,1.9295 -8.7096,3.5081 -9.4608,3.5081 -0.7512,0 -2.2418,0.8162 -3.3126,1.8138 -1.0708,0.9976 -4.5395,2.5947 -7.7082,3.5492 -5.1226,1.543 -9.2811,3.0453 -15.7613,5.6938 -1.1,0.4496 -3.0125,1.1011 -4.25003,1.4477 -1.2375,0.3466 -2.25,1.0499 -2.25,1.5629 0,0.5129 -1.2021,0.9326 -2.6713,0.9326 -1.4692,0 -3.3817,0.6169 -4.25,1.3708 -2.1834,1.896 -12.6034,5.6292 -15.7118,5.6292 -1.407,0 -3.7526,0.8373 -5.2125,1.8607 -1.4599,1.0234 -6.0294,2.8931 -10.1544,4.1549 -4.125,1.2618 -8.175,2.6206 -9,3.0195 -0.825,0.399 -8.25,2.8502 -16.5,5.4471 -30.676,9.6562 -30.4798,9.578 -32.1589,12.825 -1.0609,2.0515 -1.5474,5.8449 -1.5508,12.0911 0,5.0059 -0.2497,9.5061 -0.5487,10.0005 -0.299,0.4944 -0.5063,4.7493 -0.4606,9.4555 0.046,4.7061 -0.167,8.9613 -0.4727,9.4558 -0.3057,0.4946 -0.6995,3.8897 -0.8752,7.5446 -1.0986,22.8567 -1.5996,29.4529 -2.3963,31.5485 -0.4924,1.2952 -0.8816,4.3218 -0.8648,6.7258 0.069,9.9141 -3.4501,50.881 -5.0935,59.2911 -0.546,2.7939 -1.2677,7.7799 -1.6038,11.0799 -0.3362,3.3 -1.2391,9.15 -2.0066,13 -0.7675,3.85 -2.3157,11.95 -3.4404,18 -2.9821,16.0413 -5.8814,28.6823 -9.1467,39.88 -1.5845,5.434 -2.881,10.8715 -2.881,12.0833 0,1.2119 -0.3116,2.5149 -0.6924,2.8958 -0.3809,0.3808 -0.816,1.5016 -0.9669,2.4906 -0.1509,0.9891 -1.002,4.465 -1.8913,7.7243 -0.8892,3.2593 -2.4644,9.076 -3.5004,12.926 -2.0677,7.6843 -4.0079,13.2851 -5.3042,15.3116 -0.8552,1.3369 -4.5457,3.0446 -8.1415,3.7673 -1.0982,0.2207 -2.1482,0.8557 -2.3333,1.4112 -0.533,1.5988 -6.1623,1.1936 -6.8084,-0.4901 -0.3166,-0.825 -1.2024,-1.5 -1.9686,-1.5 -0.7661,0 -1.393,-0.3938 -1.393,-0.875 0,-0.4813 -1.1762,-0.875 -2.6137,-0.875 -1.4376,0 -2.9001,-0.4411 -3.25,-0.9801 -0.35,-0.5391 -2.2113,-1.4959 -4.1363,-2.1262 -1.925,-0.6304 -5.075,-2.124 -7,-3.319 -1.925,-1.1951 -5.9403,-3.4906 -8.9229,-5.1011 -2.9826,-1.6106 -7.6456,-4.4573 -10.3622,-6.326 -2.7166,-1.8687 -5.5638,-3.3976 -6.3271,-3.3976 -0.7633,0 -1.3878,-0.6592 -1.3878,-1.4649 0,-1.4494 -3.7992,-4.1587 -5.2535,-3.7464 -0.6223,0.1764 -15.0117,-6.3299 -22.1525,-10.0165 -1.0483,-0.5412 -5.0983,-2.5719 -9,-4.5127 -3.9017,-1.9408 -9.0291,-4.8181 -11.3941,-6.3941 -2.3651,-1.576 -4.7748,-2.8654 -5.355,-2.8654 -0.5801,0 -6.2772,-3.1599 -12.6602,-7.0219 -6.5261,-3.9486 -13.2987,-7.2925 -15.4743,-7.6404 -2.1681,-0.3467 -4.3794,-1.4362 -5.0302,-2.4782 -0.6387,-1.0228 -1.7981,-1.8595 -2.5764,-1.8595 -0.7782,0 -2.89,-1.125 -4.6927,-2.5 -1.8027,-1.375 -3.9276,-2.5 -4.7219,-2.5 -0.7944,0 -1.9269,-0.5815 -2.5168,-1.2923 -0.5898,-0.7107 -3.9074,-2.6232 -7.3724,-4.25 -3.465,-1.6267 -6.6242,-3.4566 -7.0205,-4.0663 -0.3963,-0.6097 -4.2213,-2.7573 -8.5,-4.7726 -4.2787,-2.0152 -8.9045,-4.2911 -10.2795,-5.0575 -1.375,-0.7664 -6.1,-3.278 -10.5,-5.5814 -4.4,-2.3033 -8.45,-4.744 -9,-5.4237 -0.55,-0.6797 -4.6,-2.8963 -9,-4.9258 -4.4,-2.0294 -8.675,-4.1355 -9.5,-4.6802 -0.825,-0.5448 -3.075,-1.6903 -5,-2.5457 -7.9682,-3.5408 -16.0898,-7.8396 -17.7719,-9.4066 -0.9873,-0.9199 -3.0175,-1.9793 -4.5116,-2.3542 -1.4941,-0.375 -2.7165,-1.297 -2.7165,-2.0488 0,-0.7519 -1.5305,-2.0933 -3.4011,-2.981 -3.4832,-1.6529 -5.9283,-2.165 -4.0514,-0.8486 1.5128,1.0611 5.4525,11.0814 5.4525,13.868 0,1.3017 0.45,2.3667 1,2.3667 0.55,0 1,1.1311 1,2.5135 0,2.4844 1.3185,5.4947 3.7529,8.5684 0.6891,0.87 1.7408,4.2212 2.3371,7.447 0.5963,3.2258 1.968,7.0139 3.0482,8.4181 2.8143,3.6583 14.8618,21.9937 14.8618,22.6186 0,1.0816 10.5767,16.163 15.4434,22.0209 9.4021,11.3169 12.0545,14.728 12.6933,16.3233 0.3502,0.8746 3.3569,3.9659 6.6817,6.8696 3.3247,2.9036 6.8632,7.0545 7.8633,9.2242 1.0001,2.1696 2.5158,3.9564 3.3683,3.9706 2.244,0.037 3.95,2.0784 3.95,4.7258 0,1.265 0.4988,2.3 1.1084,2.3 1.476,0 0.2255,4.9565 -1.8243,7.2312 -1.269,1.4082 -1.3249,2.0146 -0.2997,3.25 1.4189,1.7097 4.0156,2.0451 4.0156,0.5188 0,-0.55 0.81,-1 1.8,-1 0.99,0 2.2275,-0.3932 2.75,-0.8737 1.9361,-1.7805 9.2183,-1.9761 11.6273,-0.3123 4.2221,2.9159 5.0811,4.2635 5.1825,8.1301 0.1621,6.1816 -2.8042,10.7244 -8.8598,13.5686 -1.65,0.7749 -2.325,1.4397 -1.5,1.4773 0.825,0.038 3.4505,2.7551 5.8345,6.0391 2.384,3.284 4.6977,5.9709 5.1416,5.9709 0.4439,0 1.1112,1.2375 1.483,2.75 0.3717,1.5125 2.1642,4.325 3.9832,6.25 1.819,1.925 5.1444,6.65 7.3896,10.5 2.2452,3.85 4.6974,7.675 5.4493,8.5 0.7519,0.825 4.0266,5.775 7.277,11 6.5426,10.5169 17.5042,26.0761 21.1121,29.9671 1.2813,1.3818 2.3297,3.2822 2.3297,4.223 0,0.9408 0.5632,2.0704 1.2516,2.5102 0.6884,0.4398 1.8487,1.961 2.5784,3.3804 0.7297,1.4193 2.6415,3.3573 4.2484,4.3065 1.6069,0.9492 2.9348,2.2629 2.9509,2.9193 0.036,1.4767 5.5957,7.6935 6.8799,7.6935 0.5155,0 2.2594,1.1124 3.8753,2.4721 1.6159,1.3597 3.1655,2.2445 3.4436,1.9664 0.2782,-0.2781 1.9079,1.1969 3.6216,3.2779 1.7138,2.081 3.9111,4.6789 4.8831,5.7731 4.7598,5.3587 18.4591,22.9753 19.7008,25.3339 0.7749,1.4721 2.2318,3.4271 3.2376,4.3445 1.0059,0.9173 4.3038,4.9048 7.3288,8.86116 6.9277,9.0605 14.7921,18.7916 22.5,27.8406 3.3,3.8742 8.7,10.3393 12,14.3669 7.5854,9.258 18.9505,19.4014 25.9891,23.1955 7.962,4.2919 10.493,11.5063 6.8119,19.4167 -2.5809,5.5462 -4.9139,7.1512 -10.395,7.1512 -2.6334,0 -5.0661,-0.45 -5.406,-1 -0.3399,-0.55 -1.413,-1 -2.3847,-1 -1.8917,0 -6.1153,-3.9312 -6.1153,-5.692 0,-0.5847 0.62,-1.5777 1.3779,-2.2066 1.0826,-0.8985 1.4911,-0.7105 1.9063,0.8775 0.5461,2.0881 3.1476,2.7494 4.1888,1.0648 0.3251,-0.526 1.1629,-0.7369 1.8619,-0.4687 1.6168,0.6204 8.6651,-2.2829 8.6651,-3.5694 0,-0.5321 -1.0669,-1.2353 -2.3709,-1.5626 -1.3039,-0.3272 -6.4478,-4.9483 -11.4308,-10.269 -20.8348,-22.2467 -20.5289,-21.9745 -22.6817,-20.1878 -1.2307,1.0214 -1.6567,0.7756 -2.5,-1.4426 -0.5591,-1.4706 -1.0166,-3.7919 -1.0166,-5.1584 0,-3.6827 -2.5308,-7.9247 -7.5405,-12.639 -2.4527,-2.3081 -4.4595,-4.5688 -4.4595,-5.0237 0,-0.4549 -6.525,-7.2521 -14.5,-15.1048 -7.975,-7.8527 -14.5,-14.64816 -14.5,-15.10096 0,-0.4529 -2.1375,-3.1789 -4.75,-6.0578 -2.6125,-2.8789 -6.55,-7.5872 -8.75,-10.4627 -5.7586,-7.527 -14.4133,-16.1678 -15.513,-15.4882 -1.0472,0.6472 -14.6142,-12.8576 -16.0817,-16.008 -2.6085,-5.5998 -9.3584,-15.7653 -18.3175,-27.5866 -1.9119,-2.5226 -7.37,-9.9476 -12.1292,-16.5 -4.7592,-6.5524 -9.5299,-12.8134 -10.6015,-13.9134 -1.0716,-1.1 -2.5885,-2.9 -3.3709,-4 -1.3774,-1.9365 -1.4236,-1.9165 -1.4544,0.6275 -0.018,1.4452 0.6432,3.1878 1.4682,3.8725 0.825,0.6847 1.5,1.883 1.5,2.6629 0,0.7799 0.8578,2.6373 1.9062,4.1276 3.8184,5.4275 13.7625,21.8049 15.4328,25.417 0.943,2.0391 2.1404,3.9708 2.661,4.2925 0.5205,0.3217 1.6413,2.0283 2.4906,3.7925 0.8492,1.7641 4.1428,6.8184 7.319,11.2318 8.0182,11.1415 10.579,17.8606 10.8526,28.4757 0.1648,6.3953 0.8782,10.2333 2.881,15.5 1.4641,3.85 3.4995,9.925 4.523,13.5 1.0236,3.57496 3.4685,11.89996 5.4332,18.49996 1.9646,6.6 3.7425,13.6058 3.9507,15.5685 0.2082,1.9626 1.5883,7.1376 3.067,11.5 1.4786,4.3623 2.9045,9.2815 3.1687,10.9315 0.6969,4.3542 4.1186,11.7389 5.1452,11.1044 0.483,-0.2985 1.8478,0.4893 3.0329,1.7507 1.8804,2.0016 2.0126,2.7008 1.0386,5.4947 -0.8992,2.5794 -0.7745,4.2162 0.6419,8.4258 1.6487,4.8999 2.719,9.638 3.9719,17.5831 0.2913,1.8473 0.9674,4.1766 1.5024,5.1762 1.1027,2.0605 1.036,9.8132 -0.09,10.5094 -0.4073,0.2517 -0.512,1.3316 -0.2326,2.3997 0.3965,1.5166 1.1976,1.8601 3.6561,1.5679 4.4297,-0.5264 7.6482,-1.6033 7.6482,-2.559 0,-0.4476 1.0125,-0.9576 2.25,-1.1334 1.7774,-0.2524 2.2849,-1.0195 2.4163,-3.6524 0.2005,-4.0201 0.8408,-4.8211 2.6522,-3.3177 1.0117,0.8396 1.1765,2.3708 0.6341,5.8925 -0.403,2.6169 -0.5622,5.0446 -0.3537,5.3948 0.2085,0.3502 -0.291,1.1928 -1.1099,1.8724 -0.819,0.6797 -1.489,2.0552 -1.489,3.0566 0,2.1997 -3.6869,4.9917 -5.6148,4.2519 -0.7619,-0.2924 -1.3921,0.079 -1.4005,0.8254 -0.012,1.0865 -0.1964,1.0709 -0.9238,-0.079 -0.7044,-1.1132 -1.2252,-1.1728 -2.3184,-0.2656 -1.6224,1.3465 -6.7211,-0.4734 -6.7347,-2.4038 0,-0.6078 -2.2579,-3.0912 -5.0081,-5.5186 l -5.0003,-4.4135 -0.367,-13.4814 c -0.3155,-11.5885 -0.7485,-14.5345 -3.0832,-20.9814 -1.4939,-4.125 -2.7994,-8.4 -2.9011,-9.5 -0.1016,-1.1 -1.4431,-4.621 -2.981,-7.8245 -1.5379,-3.2035 -3.1801,-8.1535 -3.6493,-11 -0.8388,-5.0887 -1.8213,-8.1829 -4.4962,-14.1605 -0.742,-1.6582 -1.8966,-4.815 -2.5657,-7.015 -0.6691,-2.2 -1.543,-4.45 -1.9419,-5 -0.3989,-0.55 -1.2703,-3.231 -1.9364,-5.9577 -0.666,-2.7267 -2.9584,-9.0632 -5.0941,-14.0811 -2.1358,-5.0179 -4.0838,-10.21186 -4.3289,-11.54226 -0.2452,-1.3304 -1.4279,-5.1189 -2.6283,-8.4189 -3.7479,-10.3038 -4.0661,-11.8245 -3.8701,-18.5 0.1599,-5.4478 -0.3119,-7.5522 -2.9145,-13 -1.7079,-3.575 -3.7948,-8.075 -4.6375,-10 -1.9105,-4.3642 -6.3512,-11.9822 -8.2068,-14.0787 -0.7686,-0.8684 -1.3974,-1.9027 -1.3974,-2.2987 0,-0.3959 -1.8661,-3.5104 -4.147,-6.9212 -6.7544,-10.1005 -19.853,-30.7087 -19.853,-31.2349 0,-0.2679 -1.4625,-2.6422 -3.25,-5.2764 -4.295,-6.3293 -5.0516,-7.5473 -9.4356,-15.1901 -3.5316,-6.1569 -12.7053,-17 -14.3825,-17 -0.4279,0 -2.095,1.3169 -3.7045,2.9264 -5.5652,5.5652 -15.8888,4.7245 -18.2501,-1.4862 -2.296,-6.039 0.6313,-14.5516 5.5227,-16.06 2.9741,-0.9172 5.4339,-3.389 4.8602,-4.8839 -0.2777,-0.7237 -1.7098,-1.6165 -3.1826,-1.984 -1.4727,-0.3675 -3.4651,-1.3778 -4.4276,-2.2452 -1.1914,-1.0737 -1.75,-1.1857 -1.75,-0.3507 0,2.0476 -3.1047,-1.6566 -3.2742,-3.9064 -0.083,-1.1055 -0.5056,-2.01 -0.9386,-2.01 -0.433,0 -0.7872,-0.6375 -0.7872,-1.4167 0,-0.7792 -0.3375,-1.5667 -0.75,-1.75 -0.9155,-0.4069 -7.25,-13.4508 -7.25,-14.9291 0,-0.951 -6.4877,-12.7233 -15.4409,-28.0183 -1.8075,-3.0878 -5.4852,-8.8781 -8.1727,-12.8675 -2.6875,-3.9894 -6.8058,-10.238 -9.1518,-13.8859 -5.742,-8.9287 -15.3451,-19.4606 -21.6047,-23.6946 -2.8215,-1.9084 -6.6741,-4.5978 -8.5616,-5.9766 -5.4249,-3.963 -6.3438,-2.7155 -4.08,5.5387 2.031,7.4054 7.2798,24.8296 9.6396,32 5.0641,15.3877 7.581,24.6956 8.5034,31.4459 0.522,3.8203 1.3363,7.4203 1.8096,8 0.8758,1.0728 5.6562,14.5997 7.0871,20.0541 0.4328,1.65 2.132,7.725 3.7759,13.5 1.644,5.775 3.5243,13.751 4.1786,17.7245 0.6543,3.9735 2.0066,8.2632 3.0051,9.5326 1.8874,2.3994 5.1645,12.4691 9.3543,28.7429 1.3452,5.225 2.9053,10.625 3.4668,12 0.5615,1.375 2.2245,7.9 3.6955,14.5 1.471,6.6 4.1524,15.6 5.9587,20 5.4784,13.345 15.5371,46.546 15.5371,51.2838 0,0.9628 -2.008,4.0459 -4.4621,6.8514 l -4.4622,5.1009 -9.2878,0.8045 c -5.1084,0.4425 -9.5129,0.86206 -9.7879,0.93246 -0.275,0.07 -4.775,0.4806 -10,0.9116 -5.225,0.4309 -11.725,1.2006 -14.4444,1.7104 -8.7954,1.6488 -57.7362,2.2704 -75.0556,0.9533 -8.8,-0.6692 -17.125,-1.3732 -18.5,-1.5644 -9.70744,-1.3497 -16.79204,-2.24466 -18.50004,-2.33726 -4.4361,-0.2402 -20.1606,-2.1859 -22.5,-2.784 -1.375,-0.3515 -3.4,-0.7608 -4.5,-0.9095 -3.9087,-0.5283 -18.0397,-2.6503 -20.5,-3.0783 -1.375,-0.2393 -5.0713,-0.6515 -8.2139,-0.916 -3.1427,-0.2645 -6.8552,-0.9149 -8.25,-1.4452 -1.7097,-0.65 -2.5361,-0.6245 -2.5361,0.078 0,1.9116 -10.2896,-0.1309 -14.7482,-2.9275 -2.3365,-1.4655 -4.249,-3.0133 -4.25,-3.4394 -0.001,-0.4261 -1.0143,-1.2329 -2.2518,-1.7929 -2.9433,-1.332 -5.581,-2.9222 -9.4251,-5.6823 -1.7235,-1.2375 -4.1278,-2.25 -5.3429,-2.25 -2.5579,0 -26.3534,20.2512 -37.8941,32.24996 -4.0998,4.2625 -7.8819,7.75 -8.4048,7.75 -0.5229,0 -4.1717,3.0595 -8.1084,6.799 -15.5782,14.7978 -52.822497,45.4844 -64.569997,53.201 -2.0933,1.375 -5.9881,4.375 -8.6553,6.6668 -2.667202,2.2917 -7.324402,5.8082 -10.349402,7.8144 -3.025,2.0061 -6.625,4.7711 -8,6.1443 -1.375,1.3732 -5.3709,4.3426 -8.8797,6.5987 -3.5089,2.2561 -7.7839001,5.5053 -9.5000001,7.2206 -1.7162,1.7153 -5.79890004,4.8961 -9.0728,7.0686 -3.2738,2.1724 -7.1695,5.0831 -8.6568999,6.4682 -1.4875,1.3851 -5.3339,4.4125 -8.5475,6.7275 -15.1217,10.8931 -28.5669,20.2909 -29.0298,20.2909 -0.281,0 -1.7617,1.2375 -3.2904,2.75 -3.4944,3.4573 -5.0271,4.6477 -8.0859,6.2798 -3.8386,2.0483 -11.936,9.3375 -11.9365,10.7452 -3e-4,0.7012 -1.3271,1.5403 -2.9484,1.8646 -1.6214,0.3242 -4.2089,1.8755 -5.75,3.4472 -1.5412,1.5717 -3.7914,2.8701 -5.0006,2.8854 -1.2091,0.015 -3.4124,1.1528 -4.896,2.5278 -1.4837,1.375 -3.0515,2.5 -3.4841,2.5 -0.4327,0 -1.0694,0.8908 -1.415,1.9797 -0.3455,1.0888 -0.9384,1.9355 -1.3173,1.8816 -2.0108,-0.2863 -3.01,0.3457 -3.498301,2.21293 -0.2983,1.1408 -1.4758,2.3183 -2.6166,2.6166 -1.1408,0.2984 -2.0742,1.1132 -2.0742,1.8108 0,0.6976 -1.125,2.0055 -2.5,2.9064 -2.4004,1.5729 -2.5,1.5521 -2.5,-0.5203 z M 369.0753,807.59901 c 5.775,-0.3499 10.6122,-0.9537 10.7493,-1.342 0.1371,-0.3882 4.5246,-0.5541 9.75,-0.3687 6.7464,0.2394 9.5007,0 9.5007,-0.8255 0,-0.7276 1.5905,-1.0997 4.25,-0.9944 2.3375,0.092 4.475,0.099 4.75,0.015 0.275,-0.084 2.75,-0.3957 5.5,-0.6924 2.75,-0.2968 5.9,-0.6622 7,-0.8122 1.1,-0.1499 2.7875,-0.3301 3.75,-0.4003 1.2118,-0.088 1.75,-0.9739 1.75,-2.8796 0,-3.4163 -3.6467,-22.8527 -4.9247,-26.248 -0.5176,-1.375 -3.2692,-11.05 -6.1147,-21.5 -2.8456,-10.45 -5.5758,-20.0125 -6.0671,-21.25 -0.4915,-1.2375 -1.3138,-3.2625 -1.8274,-4.5 -1.1714,-2.8223 -1.9882,-5.5583 -7.5377,-25.25 -0.93,-3.3 -2.7325,-9.6 -4.0055,-14 -1.273,-4.4 -3.758,-13.4 -5.5223,-20 -1.7642,-6.6 -3.5624,-12.45 -3.9958,-13 -0.4334,-0.55 -1.3364,-3.7 -2.0066,-7 -0.6703,-3.3 -1.797,-7.8 -2.504,-10 -0.7069,-2.2 -3.8424,-13.225 -6.9677,-24.5 -3.1252,-11.275 -6.2853,-22.525 -7.0223,-25 -0.7371,-2.475 -2.5419,-9.675 -4.0108,-16 -1.4688,-6.325 -3.0508,-12.4 -3.5155,-13.5 -0.4647,-1.1 -1.9711,-6.5191 -3.3476,-12.0424 -1.3765,-5.5233 -3.8814,-13.0211 -5.5665,-16.6617 -1.6851,-3.6407 -3.0638,-7.5815 -3.0638,-8.7573 0,-2.8466 -2.3992,-7.3375 -7.0912,-13.2732 -2.8266,-3.576 -4.0307,-6.2037 -4.5148,-9.8531 -0.4798,-3.6168 -1.339,-5.5105 -3.1446,-6.9308 -3.0839,-2.4258 -4.2476,-1.7892 -4.2556,2.3275 0,1.755 -0.6783,4.4799 -1.5,6.0553 -0.8216,1.5753 -1.4938,3.3061 -1.4938,3.8461 0,2.745 -3.4031,12.1045 -5.5532,15.2728 -1.3457,1.9831 -2.4468,4.0727 -2.4468,4.6436 0,1.3407 -6.0582,15.216 -6.9305,15.8732 -0.3651,0.275 -1.8446,2.975 -3.2878,6 -1.4432,3.025 -4.3037,8.875 -6.3567,13 -2.0529,4.125 -4.8423,9.75 -6.1986,12.5 -1.3563,2.75 -3.2604,5.9 -4.2313,7 -0.9709,1.1 -2.0802,3.125 -2.4652,4.5 -0.385,1.375 -3.3618,7.9498 -6.61504,14.6106 -3.2532,6.6609 -5.9149,12.3916 -5.9149,12.735 0,0.3434 -1.2997,2.7686 -2.8882,5.3893 -1.5885,2.6208 -3.2201,5.8901 -3.6257,7.2651 -0.4056,1.375 -2.0309,4.435 -3.6118,6.8001 -1.5809,2.3651 -2.8743,4.7276 -2.8743,5.25 0,0.5224 -0.4248,0.9499 -0.9439,0.9499 -0.5192,0 -2.1994,2.8125 -3.7338,6.25 -3.7261,8.3476 -21.0529,42.3421 -23.8281,46.75 -1.212,1.925 -2.3011,3.95 -2.4202,4.5 -0.1191,0.55 -0.7937,1.675 -1.499,2.5 -0.7054,0.825 -2.9473,4.875 -4.982,9 -3.5885,7.2751 -9.4717,18.6425 -16.5615,32 -3.5876,6.7591 -13.693,21 -14.9017,21 -0.3813,0 -1.3187,2.1187 -2.0833,4.7082 -1.1075,3.7508 -2.9821,6.2189 -9.2184,12.1376 -4.3054,4.0862 -7.8281,7.8405 -7.8281,8.3428 0,0.5024 1.625,1.5924 3.6111,2.4223 1.9861,0.8298 5.871,3.0633 8.6331,4.9633 2.762,1.8999 6.1995,3.6763 7.6389,3.9474 1.4393,0.2711 5.5419,1.1528 9.1169,1.9593 3.575,0.8066 8.3,1.6885 10.5,1.9598 2.2,0.2714 5.35,0.772 7,1.1123 2.824,0.5826 7.7897,1.1308 15.25,1.6836 1.7875,0.1325 3.25,0.5555 3.25,0.94 0,0.3845 0.7875,0.6747 1.75,0.6449 0.9625,-0.03 6.025,0.4945 11.25,1.165 5.225,0.6705 10.175,1.2039 11,1.1855 0.825,-0.019 4.65,0.388 8.5,0.9033 3.85,0.5153 8.8,1.1302 11,1.3663 2.20004,0.2362 6.18914,0.7196 8.86464,1.0741 14.5282,1.9251 53.2799,2.447 76.6354,1.0321 z m 130.2754,-115.6027 c -0.3772,-1.4426 -0.7547,-1.5789 -1.7709,-0.6393 -0.9227,0.8532 -1.0057,1.7325 -0.2905,3.0793 1.2209,2.2993 2.8092,0.4194 2.0614,-2.44 z M 660.4,617.04431 c 1.2865,-5.0179 5.6691,-19.1381 6.671,-21.4931 0.4679,-1.1 1.5949,-5.375 2.5043,-9.5 0.9094,-4.125 2.0454,-8.4 2.5244,-9.5 0.4789,-1.1 1.6274,-5.6 2.552,-10 0.9247,-4.4 2.035,-8.45 2.4674,-9 0.4323,-0.55 0.7849,-1.3442 0.7833,-1.7649 -0.01,-2.2923 2.629,-16.1872 4.2205,-22.2351 1.9109,-7.2617 3.5044,-15.5653 6.9086,-36 1.7882,-10.7338 6.0104,-47.9013 6.0208,-53 0,-1.1 0.4761,-5.825 1.053,-10.5 0.5768,-4.675 1.2142,-10.525 1.4163,-13 0.2022,-2.475 0.8879,-10.8 1.5238,-18.5 2.2474,-27.2114 2.7374,-40.8366 1.9511,-54.25 -0.2772,-4.7297 -0.4254,-4.8887 -2.5641,-2.75 -0.825,0.825 -2.3678,1.5 -3.4285,1.5 -1.0607,0 -1.9286,0.4078 -1.9286,0.9063 0,0.4986 -0.8315,0.689 -1.8477,0.4232 -1.0162,-0.2657 -4.5037,0.6046 -7.75,1.9342 -3.2463,1.3295 -8.6023,3.0252 -11.9023,3.7683 -3.3,0.7432 -6.2961,1.787 -6.658,2.3197 -0.3618,0.5326 -3.2868,1.1653 -6.5,1.4058 -7.604,0.5692 -20.1268,4.6846 -22.342,7.3423 -0.8767,1.0518 -12.3427,5.7712 -16.75,6.8943 -2.3375,0.5956 -4.25,1.4123 -4.25,1.8148 0,0.854 -13.6063,5.2142 -17.6597,5.6591 -1.5203,0.1669 -2.9313,0.8049 -3.1356,1.4177 -0.2042,0.6129 -0.8964,1.117 -1.538,1.1204 -0.6417,0 -2.4661,0.6838 -4.0542,1.5121 -1.5882,0.8282 -5.4132,2.2158 -8.5,3.0835 -3.0869,0.8677 -10.1125,3.4856 -15.6125,5.8176 -5.5,2.3319 -14.725,5.7791 -20.5,7.6603 -5.775,1.8812 -10.65,3.7579 -10.8334,4.1704 -0.1833,0.4125 -1.5786,0.75 -3.1007,0.75 -4.6745,0 -16.0659,4.4155 -16.0659,6.2274 0,0.4249 -0.4945,0.7726 -1.0989,0.7726 -0.6043,0 -2.5168,0.6578 -4.25,1.4618 -3.0887,1.4328 -28.774,10.0254 -37.6511,12.5956 -2.475,0.7165 -4.95,1.6077 -5.5,1.9804 -0.55,0.3727 -6.625,2.794 -13.5,5.3808 -6.875,2.5868 -13.357,5.173 -14.4044,5.7472 -1.0474,0.5742 -4.6474,1.9228 -8,2.997 -3.3526,1.0741 -7.4456,2.5678 -9.0956,3.3193 -1.65,0.7515 -6.375,2.2535 -10.5,3.3378 -4.125,1.0843 -8.625,2.4379 -10,3.0081 -4.3223,1.7922 -21.9039,6.2783 -27,6.8892 -5.9286,0.7107 -6.1313,0.8797 -4.7976,3.999 0.6546,1.5311 3.5769,5.117 6.4939,7.9688 2.9171,2.8518 5.3037,5.6339 5.3037,6.1826 0,0.5487 1.0125,1.2884 2.25,1.6438 5.5755,1.6013 16.2817,5.8963 16.5833,6.6527 0.1834,0.4597 0.7682,0.8359 1.2996,0.8359 0.5314,0 2.6314,1.6237 4.6667,3.6083 3.607,3.5172 25.1263,14.5666 39.4504,20.2564 1.5125,0.6008 2.75,1.777 2.75,2.6138 0,0.8368 0.6871,1.5215 1.5269,1.5215 1.4994,0 14.5295,6.2067 23.5586,11.2218 2.5221,1.4009 6.0142,2.8608 7.7603,3.2443 1.7461,0.3835 3.8744,1.3969 4.7295,2.2521 1.7384,1.7383 4.5451,3.2829 22.1747,12.203 6.7375,3.409 12.25,6.6082 12.25,7.1092 0,0.8794 10.1663,5.9696 11.9226,5.9696 0.4749,0 1.1224,0.675 1.439,1.5 0.3166,0.825 1.3772,1.5178 2.357,1.5396 0.9798,0.022 4.2564,1.3718 7.2814,2.9998 3.025,1.6281 6.2875,2.9602 7.25,2.9603 0.9625,2e-4 1.75,0.3862 1.75,0.8578 0,0.8858 26.0316,14.1425 27.771,14.1425 0.5377,0 2.6354,1.5185 4.6616,3.3744 2.0262,1.8559 5.5703,4.2056 7.8757,5.2214 2.3054,1.0159 4.5516,2.4224 4.9914,3.1256 0.4398,0.7032 1.4523,1.2786 2.25,1.2786 0.7977,0 1.4503,0.675 1.4503,1.5 0,1.0192 1.0204,1.5 3.1839,1.5 1.8893,0 7.4804,2.2064 13.75,5.4262 5.8114,2.9844 13.0411,6.6969 16.0661,8.25 3.025,1.5531 5.65,3.1613 5.8333,3.5738 0.1834,0.4125 1.0834,0.7643 2,0.7818 0.9167,0.017 2.4908,0.6564 3.4981,1.4198 1.0073,0.7634 4.0448,1.9189 6.75,2.5679 2.7052,0.649 4.9186,1.6181 4.9186,2.1535 0,0.5355 0.7715,0.825 1.7145,0.6434 0.9945,-0.1915 2.0907,-1.7973 2.6102,-3.8233 z M 980.80454,232.44704 c -0.3323,-0.3323 -1.1948,-0.3678 -1.9167,-0.079 -0.7977,0.3192 -0.5608,0.5562 0.6042,0.6042 1.0541,0.043 1.6448,-0.193 1.3125,-0.5253 z"
       id="path3040"
       inkscape:connector-curvature="0" />
  </g>
</svg>
